<?xml version="1.0" standalone="no"?>
<!DOCTYPE svg PUBLIC "-//W3C//DTD SVG 20010904//EN"
 "http://www.w3.org/TR/2001/REC-SVG-20010904/DTD/svg10.dtd">
<svg version="1.0" xmlns="http://www.w3.org/2000/svg"
 width="1080.000000pt" height="1080.000000pt" viewBox="0 0 1080.000000 1080.000000"
 preserveAspectRatio="xMidYMid meet">
<metadata>
Created by potrace 1.14, written by Peter Selinger 2001-2017
</metadata>
<g transform="translate(0.000000,1080.000000) scale(0.100000,-0.100000)"
fill="#000000" stroke="none">
<path d="M4261 9079 c-13 -11 -26 -17 -30 -14 -3 3 1 10 9 15 9 6 10 10 3 10
-6 0 -15 -5 -19 -11 -3 -6 -15 -9 -25 -6 -10 3 -22 0 -26 -5 -3 -7 -1 -8 5 -4
8 5 10 2 6 -9 -6 -14 -8 -14 -20 2 -8 11 -13 13 -14 6 0 -7 -7 -13 -16 -13 -9
0 -13 5 -9 13 4 6 0 4 -8 -5 -16 -21 -31 -24 -22 -5 4 6 -3 1 -14 -13 -11 -14
-21 -29 -21 -34 0 -6 -7 -1 -15 10 -14 18 -14 18 -15 -6 -1 -14 -4 -19 -7 -12
-2 6 -12 12 -21 12 -15 0 -15 -2 -2 -11 12 -9 10 -10 -8 -6 -19 4 -21 3 -12
-8 8 -10 8 -13 -2 -11 -7 1 -18 5 -25 9 -7 5 -10 0 -7 -15 2 -13 2 -17 -2 -10
-3 6 -15 12 -25 12 -13 0 -18 4 -13 12 4 7 3 8 -4 4 -7 -4 -12 -14 -12 -22 0
-8 -5 -12 -10 -9 -6 4 -8 11 -5 16 6 9 -10 14 -30 9 -11 -3 -14 -3 -72 4 -24
2 -43 0 -43 -6 0 -5 -4 -6 -10 -3 -15 9 -12 27 3 19 6 -4 8 -3 4 2 -12 12 -57
13 -57 0 0 -6 -5 -4 -10 4 -9 13 -11 13 -20 0 -9 -13 -14 -7 -11 13 0 4 -3 7
-9 7 -5 0 -10 -4 -10 -10 0 -5 -7 -7 -15 -4 -9 4 -15 0 -15 -7 0 -10 -3 -10
-8 -3 -10 15 -44 14 -38 -1 2 -7 -5 -12 -17 -12 -28 0 -58 -13 -52 -23 3 -4
-3 -14 -13 -21 -15 -13 -16 -12 -4 3 12 15 11 17 -7 15 -11 0 -17 -5 -15 -9 3
-4 0 -8 -6 -8 -6 0 -8 -6 -5 -12 4 -7 -1 -4 -10 7 -17 20 -17 20 -10 -5 7 -21
6 -23 -6 -13 -10 8 -19 9 -29 1 -12 -8 -11 -9 5 -4 20 6 20 6 1 -9 -11 -8 -24
-21 -29 -27 -6 -9 -7 -8 -3 4 3 10 0 20 -6 24 -7 4 -8 3 -4 -4 4 -7 2 -12 -4
-12 -6 0 -8 -4 -5 -10 3 -5 1 -10 -5 -10 -6 0 -8 -5 -4 -11 4 -8 -1 -9 -17 -4
-13 3 -19 3 -14 -2 17 -14 17 -43 0 -43 -8 0 -15 -7 -15 -16 0 -8 -4 -13 -9
-9 -5 3 -12 1 -15 -4 -4 -5 -1 -13 5 -17 8 -5 9 -3 4 6 -5 9 -4 11 4 6 9 -6 9
-11 0 -22 -6 -7 -16 -11 -23 -7 -6 4 -4 -2 4 -12 14 -17 14 -18 -10 -5 -22 12
-23 11 -13 -1 10 -12 8 -15 -10 -15 -12 0 -28 7 -35 15 -11 14 -11 14 -6 -1 6
-17 -18 -20 -33 -3 -4 4 -2 5 5 1 6 -4 12 -5 12 -2 0 3 -9 10 -19 15 -17 9
-18 8 -14 -12 l5 -22 -17 23 c-11 15 -21 20 -28 14 -7 -5 -22 -12 -35 -15 -19
-4 -21 -3 -11 9 7 9 8 14 1 14 -6 0 -14 -9 -17 -21 -6 -19 -7 -20 -20 -2 -13
17 -14 17 -20 1 -5 -14 -11 -15 -25 -8 -11 6 -21 6 -24 1 -4 -5 -1 -12 4 -14
6 -3 5 -4 -2 -3 -7 2 -12 12 -11 22 1 15 -2 14 -18 -6 -12 -17 -19 -20 -19
-10 0 12 -2 12 -9 2 -4 -8 -12 -14 -17 -15 -5 -1 -8 -5 -7 -9 2 -4 -4 -5 -12
-2 -8 4 -15 11 -15 18 -1 6 -7 0 -15 -14 -9 -15 -14 -19 -15 -10 0 12 -2 13
-9 1 -5 -8 -14 -10 -21 -6 -8 5 -11 4 -6 -3 3 -6 2 -13 -4 -17 -5 -3 -10 -2
-10 4 0 6 -6 8 -14 5 -8 -3 -12 -12 -10 -19 3 -7 -3 -16 -15 -20 -14 -4 -18
-11 -14 -23 6 -14 4 -15 -8 -5 -12 10 -17 8 -28 -8 -7 -12 -19 -18 -26 -15 -8
3 -14 0 -12 -7 1 -7 -4 -11 -12 -9 -11 2 -12 0 -4 -10 13 -15 -5 -48 -26 -48
-12 0 -14 -10 -13 -48 1 -18 -2 -21 -11 -13 -9 7 -13 5 -13 -9 0 -10 5 -16 11
-13 5 3 5 0 -2 -7 -9 -10 -16 -10 -26 -2 -11 9 -14 8 -14 -3 0 -8 4 -12 8 -10
4 3 9 -1 12 -8 6 -16 -34 -17 -46 -2 -4 6 -10 0 -14 -14 -6 -23 -7 -23 -20 -6
-7 11 -13 13 -13 7 0 -7 -9 -12 -20 -12 -11 0 -20 -5 -20 -11 0 -5 5 -7 12 -3
7 4 8 3 4 -5 -6 -9 -11 -9 -22 0 -12 10 -18 8 -29 -7 -8 -10 -15 -15 -15 -10
0 5 -7 3 -15 -4 -8 -7 -22 -9 -31 -6 -12 5 -15 2 -10 -10 6 -15 4 -15 -11 -3
-9 8 -14 9 -10 3 4 -7 0 -15 -9 -18 -9 -3 -12 -11 -8 -18 6 -10 3 -9 -9 0 -14
12 -15 11 -11 -14 5 -25 3 -26 -12 -13 -16 12 -17 12 -11 -4 4 -11 1 -20 -8
-23 -8 -4 -15 -10 -15 -16 0 -5 6 -6 13 -3 6 4 1 -3 -13 -14 -21 -18 -23 -22
-10 -31 11 -7 11 -10 2 -10 -8 0 -10 -5 -6 -12 6 -10 4 -10 -8 0 -14 11 -16 9
-14 -16 1 -19 -2 -28 -9 -25 -7 2 -12 -3 -12 -11 0 -8 4 -13 9 -10 4 3 8 -2 8
-11 0 -9 -5 -13 -11 -9 -7 4 -10 1 -7 -7 3 -8 14 -13 24 -11 18 2 18 2 -1 -9
-29 -17 -29 -17 -18 -31 12 -17 11 -26 -11 -66 -12 -23 -22 -32 -33 -28 -14 6
-14 4 -2 -11 9 -10 9 -14 2 -10 -7 5 -22 -2 -34 -14 -17 -17 -23 -19 -31 -8
-6 10 -7 7 -3 -8 4 -14 2 -23 -5 -23 -6 0 -8 -5 -5 -10 4 -6 1 -9 -7 -8 -7 2
-12 -3 -10 -9 1 -7 -5 -13 -13 -13 -8 0 -15 -7 -15 -16 0 -8 -4 -13 -8 -10 -4
2 -8 -7 -7 -22 0 -30 -15 -53 -29 -44 -5 3 -6 0 -2 -7 6 -9 12 -9 24 1 13 10
13 8 -1 -9 -14 -16 -15 -22 -5 -26 7 -2 4 -3 -7 -1 -17 3 -20 -3 -20 -30 0
-19 3 -32 8 -29 4 2 7 -1 7 -7 0 -6 4 -8 10 -5 5 3 10 1 10 -4 0 -6 -6 -11
-12 -11 -9 0 -9 -3 1 -9 8 -5 15 -23 15 -39 1 -26 -1 -28 -14 -19 -13 11 -13
10 -1 -6 8 -10 20 -16 28 -13 11 4 11 1 2 -15 -6 -11 -8 -23 -5 -27 3 -3 6 0
6 6 0 18 16 15 18 -3 1 -8 3 -22 4 -30 1 -8 6 -15 11 -15 12 0 0 -14 -14 -16
-5 -1 -12 -2 -15 -3 -4 0 -1 -8 6 -16 11 -13 10 -14 -5 -9 -14 6 -16 4 -10 -6
6 -10 4 -12 -10 -6 -15 5 -16 4 -5 -9 8 -10 9 -15 1 -15 -6 0 -11 -5 -11 -11
0 -5 6 -7 13 -3 8 5 7 2 -2 -9 -8 -10 -16 -15 -19 -12 -3 2 -13 -5 -24 -17
-14 -16 -15 -24 -6 -29 9 -6 9 -11 -2 -24 -11 -13 -11 -18 -1 -24 9 -6 6 -10
-11 -14 -21 -6 -22 -8 -7 -22 12 -12 14 -26 9 -53 -7 -40 -3 -65 9 -58 4 3 8
-1 8 -9 0 -8 -5 -11 -11 -8 -6 4 -2 -4 8 -16 20 -22 20 -22 0 -15 -17 7 -17 6
-5 -9 7 -9 10 -17 6 -17 -5 0 0 -10 11 -22 10 -12 14 -18 8 -15 -7 4 -18 -1
-25 -10 -8 -9 -9 -14 -3 -10 7 4 15 0 18 -9 3 -8 2 -13 -3 -10 -14 9 -19 -29
-6 -47 7 -9 14 -15 17 -12 2 3 5 -2 5 -10 0 -8 -4 -12 -8 -10 -10 7 -6 -16 9
-41 6 -12 8 -24 5 -28 -3 -3 4 -6 16 -6 12 0 20 -4 17 -8 -2 -4 -1 -14 5 -22
7 -13 9 -13 9 0 1 9 5 6 10 -7 5 -13 16 -23 25 -23 13 0 19 -12 16 -32 0 -5 4
-8 9 -8 6 0 10 5 10 12 0 6 2 9 5 6 3 -3 1 -17 -5 -32 -8 -21 -7 -28 5 -32 13
-5 13 -8 0 -21 -9 -8 -12 -20 -8 -26 4 -7 0 -8 -12 -3 -16 6 -16 4 -4 -11 9
-11 10 -14 2 -9 -13 7 -17 -4 -13 -33 2 -13 0 -13 -16 0 -16 12 -17 12 -9 -1
5 -8 10 -21 12 -29 1 -8 8 -18 15 -22 10 -7 10 -9 -1 -9 -8 0 -11 -3 -8 -7 4
-3 1 -13 -5 -22 -7 -9 -8 -13 -4 -9 10 8 36 -9 36 -23 0 -5 -8 -9 -17 -9 -15
0 -16 -2 -3 -9 8 -6 18 -7 23 -4 5 3 3 -5 -3 -18 -7 -13 -9 -21 -5 -17 4 4 14
0 22 -8 8 -8 18 -12 23 -9 4 3 7 -9 6 -25 -2 -24 2 -30 17 -30 10 0 21 -9 24
-20 3 -11 9 -20 14 -20 5 0 6 8 2 18 -5 14 -3 13 10 -3 11 -15 12 -22 4 -28
-7 -5 -3 -6 9 -2 30 8 51 -19 33 -42 -12 -14 -12 -16 0 -8 11 6 13 1 9 -23 -4
-27 -2 -30 10 -19 13 10 14 9 4 -10 -16 -28 -15 -31 6 -36 16 -4 16 -5 -1 -6
-10 0 -15 -6 -12 -11 4 -6 12 -7 18 -3 7 4 6 0 -2 -10 -12 -15 -11 -17 3 -17
9 0 16 -5 16 -11 0 -5 -4 -8 -9 -5 -11 7 -8 -21 4 -31 4 -4 5 -2 1 5 -10 18
-1 15 15 -5 10 -11 10 -14 2 -9 -8 4 -13 1 -13 -8 0 -9 7 -16 16 -16 9 0 12
-5 8 -12 -5 -7 -2 -9 9 -5 12 4 14 2 10 -10 -4 -10 -2 -14 5 -10 7 5 9 -5 6
-30 -3 -28 -1 -34 6 -23 5 8 10 10 10 4 0 -18 -12 -25 -25 -14 -9 8 -12 4 -9
-15 2 -21 0 -24 -11 -15 -10 8 -15 8 -21 -1 -4 -8 -3 -9 4 -5 21 13 12 -8 -12
-32 -20 -19 -23 -28 -16 -52 7 -25 6 -30 -8 -30 -15 0 -15 -2 -2 -10 11 -7 12
-10 2 -10 -10 0 -9 -4 2 -16 14 -14 14 -34 0 -34 -3 0 -2 4 1 10 4 6 -1 7 -11
3 -14 -5 -13 -8 7 -19 16 -9 19 -13 8 -14 -9 0 -16 -7 -16 -15 0 -11 4 -12 14
-3 7 6 16 8 20 4 3 -3 1 -6 -5 -6 -15 0 -16 -57 0 -66 7 -5 5 -11 -7 -21 -16
-11 -16 -13 -3 -13 9 0 19 -7 22 -16 3 -8 2 -12 -4 -9 -6 3 -10 1 -10 -4 0 -6
8 -11 18 -12 10 0 12 -3 5 -6 -7 -2 -13 -11 -13 -19 0 -9 5 -12 13 -8 9 5 9 4
0 -6 -12 -13 -6 -43 7 -35 5 3 12 0 16 -6 4 -8 3 -9 -4 -5 -16 10 -15 -2 2
-19 7 -8 17 -11 21 -7 4 4 2 -3 -4 -16 -7 -12 -8 -22 -4 -21 22 4 25 -3 7 -17
-10 -8 -14 -13 -8 -10 16 8 41 -25 39 -51 -2 -14 2 -20 11 -16 9 3 11 -2 7
-16 -3 -12 -1 -21 6 -21 6 0 11 -7 11 -15 0 -8 -5 -15 -12 -15 -6 0 -8 -3 -5
-6 4 -4 14 -1 22 6 9 7 15 9 14 4 -4 -25 2 -54 11 -49 6 3 10 -1 10 -9 0 -9 5
-16 11 -16 5 0 7 5 3 12 -4 7 -3 8 4 4 6 -4 8 -14 5 -23 -5 -12 -3 -14 8 -8
12 8 12 6 0 -8 -9 -12 -10 -17 -2 -17 7 0 9 -4 6 -10 -4 -6 1 -7 11 -3 14 5
15 3 5 -15 -9 -18 -8 -19 12 -14 20 5 21 4 7 -14 -8 -10 -10 -16 -6 -12 5 5
16 -1 24 -13 11 -17 17 -18 30 -7 10 7 14 9 10 4 -4 -5 1 -16 10 -25 10 -9 13
-12 6 -8 -7 5 -15 2 -20 -5 -4 -7 -4 -10 1 -6 4 4 14 0 22 -8 8 -8 19 -12 24
-9 5 4 9 2 9 -3 0 -6 7 -13 16 -16 13 -5 14 -4 5 7 -9 12 -5 12 24 3 19 -6 35
-14 35 -18 0 -5 5 -8 11 -8 6 0 9 7 5 15 -5 13 -2 14 15 4 17 -9 20 -8 14 2
-6 9 -3 11 9 6 10 -4 15 -3 11 3 -3 6 -2 10 4 10 5 0 12 -6 15 -12 4 -7 5 -4
3 7 -3 15 1 21 14 21 14 0 16 -3 6 -15 -10 -12 -9 -13 8 -4 23 12 94 11 115
-2 9 -5 11 -4 6 3 -5 8 -2 10 8 6 9 -3 13 -11 9 -18 -4 -6 0 -6 9 2 13 10 18
10 24 1 5 -8 3 -9 -6 -4 -8 5 -11 4 -6 -3 3 -6 15 -9 26 -7 18 4 25 -6 21 -29
-1 -5 6 -3 15 5 10 8 15 9 11 3 -4 -7 10 -16 35 -23 30 -9 38 -15 29 -24 -6
-6 -11 -16 -11 -22 0 -5 5 -3 10 5 7 11 10 11 10 2 0 -7 8 -12 18 -10 9 2 16
-3 15 -9 -3 -13 9 -17 35 -14 7 1 12 -2 11 -6 -4 -23 3 -33 24 -33 18 0 19 -2
7 -10 -12 -8 -10 -10 8 -10 13 0 20 -4 17 -10 -4 -6 -12 -7 -18 -3 -8 4 -7 1
1 -9 7 -9 24 -15 38 -13 20 2 22 0 12 -12 -9 -11 -8 -13 3 -11 8 2 18 8 22 13
5 6 6 2 3 -8 -4 -13 0 -20 14 -24 11 -3 17 -10 13 -17 -4 -6 2 -4 12 4 10 8
16 10 12 3 -4 -6 -1 -14 5 -16 10 -4 10 -8 -1 -15 -11 -8 -9 -11 10 -18 13 -4
27 -7 32 -6 4 1 7 -3 7 -9 0 -5 4 -7 10 -4 5 3 21 -5 35 -19 14 -15 33 -26 41
-26 8 0 12 -4 9 -10 -3 -5 0 -8 7 -5 7 3 18 -5 23 -17 6 -12 19 -23 29 -24 10
-2 23 -9 27 -16 5 -7 9 -9 9 -4 0 5 8 2 17 -5 14 -12 15 -12 9 -1 -7 11 -4 12
13 3 22 -12 30 -27 9 -16 -7 4 -4 -1 6 -9 24 -19 40 -21 30 -3 -4 7 -3 9 2 4
5 -5 9 -14 9 -19 0 -6 6 -13 13 -16 8 -2 10 3 6 15 -5 17 -5 17 9 1 8 -10 18
-14 23 -10 4 4 2 -1 -5 -11 -12 -15 -11 -17 10 -15 19 2 24 -1 23 -19 -1 -13
3 -20 7 -17 5 3 7 10 4 15 -4 5 -1 9 5 9 6 0 8 5 5 10 -3 6 -4 10 -1 10 3 0
10 -10 17 -21 9 -17 8 -20 -3 -14 -7 3 -5 0 5 -8 14 -11 15 -16 5 -20 -10 -4
-10 -6 0 -6 6 -1 12 -6 12 -12 0 -5 -4 -8 -9 -4 -5 3 -13 0 -17 -6 -5 -8 -3
-9 6 -4 10 6 11 2 6 -18 -4 -16 -1 -27 7 -30 9 -4 9 -6 0 -6 -7 -1 -13 -6 -13
-11 0 -6 6 -10 13 -9 6 1 19 1 27 0 12 -1 11 -4 -3 -12 -14 -8 -15 -14 -7 -24
8 -10 8 -15 -1 -20 -8 -6 -7 -10 2 -17 11 -8 10 -9 -3 -4 -10 3 -20 0 -24 -6
-4 -6 -3 -8 4 -4 6 3 13 2 17 -4 3 -5 1 -10 -5 -10 -6 0 -8 -5 -5 -10 5 -8 12
-7 23 2 12 9 11 6 -2 -10 -18 -20 -15 -27 8 -23 5 1 4 -5 -4 -13 -15 -19 -24
-21 -14 -4 5 7 3 8 -6 3 -8 -5 -11 -4 -7 3 5 6 -1 8 -14 5 -19 -5 -18 -7 10
-21 17 -8 31 -19 31 -24 0 -6 -6 -6 -14 1 -10 8 -16 9 -21 1 -3 -5 0 -10 7
-10 9 0 9 -3 -2 -10 -13 -9 -13 -10 0 -11 10 0 8 -3 -5 -9 -16 -7 -17 -9 -3
-9 9 -1 20 -5 23 -11 4 -6 -1 -7 -12 -3 -10 3 -15 2 -10 -2 4 -5 0 -20 -9 -33
-16 -24 -16 -25 2 -19 18 7 18 6 1 -7 -14 -10 -15 -15 -5 -19 10 -4 10 -6 -1
-6 -11 -1 -11 -4 -1 -16 11 -13 10 -14 -2 -10 -11 4 -18 -2 -22 -20 -4 -17
-11 -23 -19 -18 -8 5 -8 2 1 -9 10 -13 10 -18 1 -24 -8 -5 -9 -3 -4 6 5 8 4
11 -3 6 -6 -4 -9 -13 -5 -21 3 -8 0 -15 -6 -15 -6 0 -11 5 -11 10 0 6 -6 5
-14 -2 -8 -7 -12 -15 -11 -18 2 -3 -5 -6 -15 -6 -10 0 -16 5 -13 11 3 5 -6 -2
-20 -18 -22 -24 -25 -25 -31 -10 -7 16 -9 15 -27 -7 l-20 -25 6 25 c5 21 4 22
-5 7 -6 -10 -16 -14 -23 -10 -7 4 -6 -1 2 -11 10 -12 11 -20 4 -27 -8 -8 -13
-7 -18 2 -5 8 -4 10 3 5 7 -4 12 -2 12 3 0 11 -22 10 -52 -3 -10 -5 -14 -14
-10 -24 5 -14 3 -15 -10 -5 -17 15 -29 8 -22 -12 4 -10 -1 -12 -18 -9 -13 2
-17 1 -10 -2 10 -5 7 -14 -14 -35 -22 -23 -30 -26 -41 -17 -8 6 -13 7 -12 2 4
-21 -2 -28 -11 -14 -8 13 -10 12 -10 -2 0 -10 5 -18 12 -18 6 0 8 -3 5 -6 -4
-4 -15 -1 -24 7 -10 7 -15 9 -11 5 4 -5 0 -15 -10 -23 -11 -10 -12 -12 -2 -8
10 4 9 2 -2 -8 -10 -8 -14 -18 -10 -22 4 -5 1 -4 -7 0 -11 6 -13 4 -8 -9 4 -9
3 -14 -2 -11 -5 3 -16 -4 -24 -15 -7 -11 -17 -17 -22 -12 -4 4 -6 -3 -3 -15 5
-17 2 -20 -11 -15 -14 5 -14 4 -2 -11 12 -15 12 -17 -2 -11 -12 4 -15 1 -12
-15 3 -14 0 -19 -7 -15 -7 5 -9 2 -5 -9 4 -11 2 -14 -9 -10 -9 3 -14 0 -12 -8
2 -7 -6 -13 -16 -14 -21 0 -36 -25 -15 -25 7 0 10 -2 7 -5 -3 -3 -17 -1 -31 4
-20 8 -25 7 -21 -3 3 -8 -4 -16 -17 -19 -15 -4 -20 -11 -15 -23 6 -15 4 -15
-11 -3 -15 12 -16 12 -11 -2 5 -12 1 -15 -17 -13 -13 1 -29 -4 -36 -12 -6 -7
-16 -11 -21 -8 -6 4 -5 -2 1 -14 10 -18 8 -20 -14 -18 -16 2 -32 -6 -47 -23
l-23 -26 28 24 c15 14 27 21 27 17 0 -17 -45 -44 -57 -35 -10 9 -25 -3 -29
-23 -1 -5 -2 -11 -3 -15 -1 -5 -6 -1 -11 7 -8 13 -10 12 -11 -5 -1 -11 -1 -24
0 -29 1 -5 -4 -4 -11 2 -10 8 -21 4 -45 -17 -18 -16 -29 -32 -25 -36 4 -5 -1
-5 -10 -2 -11 4 -19 0 -23 -14 -5 -16 -9 -18 -21 -8 -12 10 -13 9 -8 -6 5 -12
4 -16 -3 -12 -6 4 -13 0 -17 -8 -3 -8 -11 -15 -18 -15 -9 0 -8 3 2 10 8 5 10
10 4 10 -18 0 -24 -12 -13 -26 8 -9 4 -12 -15 -10 -19 3 -24 -1 -21 -16 3 -12
-1 -18 -8 -15 -6 2 -25 -10 -42 -27 -17 -17 -34 -32 -38 -33 -12 -5 -13 -11
-3 -20 5 -5 6 -2 1 6 -5 10 -4 12 4 7 14 -9 5 -26 -14 -26 -9 0 -12 -6 -8 -17
4 -11 3 -14 -5 -9 -11 7 -17 -13 -13 -38 1 -5 -6 -3 -15 5 -15 12 -17 12 -9 0
6 -11 4 -13 -11 -8 -16 6 -17 5 -4 -6 18 -14 26 -42 10 -32 -6 4 -11 1 -9 -6
4 -35 0 -42 -18 -28 -15 13 -15 12 -4 -10 8 -15 9 -21 2 -17 -6 4 -11 2 -11
-4 0 -6 -4 -8 -10 -5 -13 8 0 -28 14 -37 7 -5 4 -8 -6 -8 -9 0 -20 -5 -24 -12
-4 -7 -3 -8 4 -4 7 4 12 2 12 -3 0 -6 -5 -11 -11 -11 -5 0 -7 -5 -4 -11 4 -6
-1 -16 -11 -23 -12 -9 -14 -15 -6 -20 7 -4 12 -12 12 -17 0 -6 -5 -7 -11 -3
-8 5 -8 1 0 -13 8 -16 6 -24 -8 -39 -11 -12 -17 -32 -15 -51 1 -20 -3 -34 -12
-37 -9 -3 -13 -10 -9 -15 3 -5 1 -13 -5 -16 -8 -5 -7 -11 1 -21 10 -12 9 -17
-1 -27 -9 -9 -11 -9 -6 0 3 6 2 14 -3 17 -5 4 -8 -2 -7 -11 2 -10 8 -18 14
-18 7 0 11 -4 10 -10 -2 -5 -5 -9 -9 -8 -3 1 -11 -8 -19 -20 -12 -19 -11 -20
2 -10 12 10 15 10 15 -2 0 -8 -6 -15 -13 -15 -7 0 -16 -5 -20 -12 -4 -7 -3 -8
4 -4 7 4 12 3 12 -3 0 -5 -4 -13 -10 -16 -6 -3 -10 -11 -10 -18 0 -8 3 -8 12
1 7 7 16 12 22 12 5 0 -1 -9 -14 -20 -13 -11 -18 -20 -12 -20 7 0 12 -5 12
-11 0 -5 -4 -7 -10 -4 -5 3 -10 -1 -10 -10 0 -9 5 -13 11 -9 8 5 8 1 0 -13 -6
-11 -7 -24 -3 -28 4 -5 2 -5 -4 -2 -15 9 -21 -16 -19 -76 1 -28 -3 -47 -9 -47
-6 0 -4 -5 4 -10 11 -7 11 -10 2 -10 -7 0 -10 -4 -7 -10 3 -5 7 -26 9 -46 2
-30 0 -34 -9 -21 -10 14 -12 12 -12 -13 0 -18 4 -27 11 -23 6 4 5 -1 -3 -10
-9 -12 -10 -17 -2 -17 7 0 10 -4 6 -10 -3 -5 -13 -6 -23 -3 -10 4 -7 -2 8 -15
20 -17 22 -23 11 -31 -9 -6 -12 -23 -10 -55 2 -25 0 -46 -4 -46 -5 0 -5 -5 -2
-10 4 -6 11 -7 17 -4 7 4 8 2 4 -5 -4 -6 -12 -9 -17 -6 -5 4 -9 1 -9 -4 0 -6
5 -11 11 -11 8 0 7 -6 -2 -17 -8 -9 -9 -14 -4 -11 6 4 11 -2 11 -13 0 -10 -4
-19 -9 -19 -5 0 -4 -7 3 -15 7 -8 8 -15 3 -15 -5 0 -8 -16 -8 -35 0 -19 4 -35
9 -35 6 0 1 -7 -10 -16 -10 -8 -14 -13 -7 -10 6 4 14 2 18 -4 3 -5 1 -10 -5
-10 -6 0 -8 -5 -4 -11 3 -6 0 -15 -7 -20 -10 -6 -11 -9 -1 -9 15 0 16 -46 2
-55 -7 -4 -8 -11 -1 -18 5 -7 8 -33 8 -60 -1 -26 1 -47 5 -47 4 0 4 -10 -1
-22 -4 -13 -6 -29 -3 -37 3 -9 0 -11 -9 -7 -10 5 -9 3 1 -6 9 -8 14 -25 12
-42 -3 -22 -6 -26 -13 -15 -7 11 -9 11 -9 -3 0 -10 6 -18 13 -18 9 0 8 -3 -2
-9 -8 -5 -9 -11 -3 -15 13 -8 4 -46 -10 -43 -6 1 -13 -4 -16 -12 -3 -8 0 -11
7 -7 17 11 13 -5 -6 -26 -15 -17 -15 -18 -1 -13 13 5 15 2 11 -14 -3 -12 -10
-21 -15 -21 -5 0 -6 5 -2 12 5 7 3 8 -6 3 -10 -6 -9 -11 5 -22 14 -9 15 -13 4
-13 -10 -1 -9 -5 5 -15 11 -8 16 -15 10 -15 -5 0 -14 -11 -21 -25 -6 -14 -7
-23 -2 -19 5 3 9 -2 9 -10 0 -9 -4 -16 -8 -16 -5 0 -9 -7 -9 -15 0 -11 4 -12
13 -4 8 7 14 6 20 -2 4 -8 3 -9 -4 -5 -7 4 -12 2 -12 -3 0 -6 5 -11 10 -11 6
0 10 -9 10 -20 0 -17 9 -24 31 -22 3 0 6 -18 8 -41 1 -23 7 -45 14 -49 8 -5 5
-8 -8 -9 -11 0 -14 -3 -8 -6 9 -3 10 -10 3 -24 -8 -14 -7 -19 2 -19 10 0 10
-2 1 -8 -6 -4 -14 -20 -17 -35 -3 -15 -1 -25 3 -23 4 3 7 -6 7 -19 0 -13 -3
-22 -7 -19 -4 2 -9 -3 -13 -11 -3 -8 0 -17 6 -21 6 -4 8 -3 5 3 -3 5 0 10 8
10 12 0 12 -4 -2 -19 -13 -14 -15 -23 -7 -36 13 -21 7 -45 -9 -35 -7 4 -7 1 1
-9 9 -11 10 -18 2 -23 -5 -3 -10 -11 -10 -16 0 -6 4 -8 8 -5 4 2 6 -11 4 -30
-2 -19 -9 -34 -15 -34 -6 0 -2 -7 9 -15 13 -10 14 -14 5 -15 -11 0 -11 -3 -1
-15 11 -13 275 -15 2316 -15 2070 0 2304 2 2304 16 0 8 4 13 9 10 5 -4 8 2 6
11 -1 10 -8 17 -15 15 -6 -1 -9 2 -5 8 3 6 11 8 16 5 17 -11 9 14 -8 25 -17
11 -17 11 -1 6 10 -3 20 -1 23 5 4 5 2 8 -3 7 -6 -2 -10 2 -10 7 0 6 4 9 9 7
15 -4 10 6 -13 29 -15 14 -17 20 -7 16 9 -3 16 0 16 9 0 8 -7 13 -15 12 -8 -2
-17 4 -19 12 -4 12 -2 12 5 2 7 -10 12 -9 23 4 9 12 10 15 2 10 -7 -4 -13 -4
-14 1 -6 48 -5 70 4 81 7 9 6 11 -8 6 -16 -7 -16 -5 1 22 15 23 15 26 2 16
-14 -11 -15 -9 -14 20 2 18 -2 39 -8 47 -8 11 -8 13 0 8 18 -10 12 145 -6 161
-13 10 -13 11 2 6 13 -4 16 -1 13 15 -2 12 -6 25 -9 29 -2 4 -1 14 4 22 6 10
3 22 -11 36 -15 16 -17 24 -8 29 7 5 10 4 5 -3 -3 -6 -3 -13 2 -16 4 -2 8 11
8 29 0 18 -3 32 -7 29 -4 -2 -9 3 -12 11 -4 10 -1 12 10 8 12 -5 14 -3 7 8
-12 19 -14 34 -17 111 -1 36 1 64 5 62 4 -3 5 2 2 10 -3 9 -9 14 -13 11 -4 -2
-8 2 -8 10 0 8 4 12 9 9 4 -3 8 -1 8 4 0 6 -7 13 -16 16 -9 4 -12 11 -8 18 12
18 11 52 -1 60 -6 5 -5 8 3 8 9 0 10 6 4 18 -4 9 -8 24 -7 32 0 8 -4 18 -10
22 -6 5 -5 8 4 8 9 0 10 4 4 12 -8 11 -10 33 -3 41 6 8 5 45 -2 41 -4 -3 -8 2
-8 11 0 10 -5 13 -12 9 -6 -4 -4 3 4 15 17 24 13 65 -6 54 -6 -4 -6 0 2 9 9
11 10 23 3 41 -7 16 -6 28 2 36 8 8 8 11 -1 11 -9 0 -10 5 -4 17 12 20 -14 67
-31 56 -6 -3 -7 -1 -3 6 4 6 11 9 16 6 4 -3 10 1 12 8 7 16 -2 38 -12 32 -4
-3 -11 2 -14 11 -5 12 -2 15 10 10 15 -6 15 -4 3 10 -15 18 -22 47 -9 39 5 -3
12 0 16 6 5 8 3 9 -6 4 -10 -6 -12 -3 -8 13 4 12 2 24 -3 27 -4 3 -5 13 -2 21
3 9 0 20 -8 25 -12 7 -12 9 0 9 11 0 10 4 -5 16 -15 12 -15 14 -2 10 14 -4 15
-2 3 20 -7 14 -10 41 -8 61 4 28 2 34 -9 28 -10 -6 -11 -5 0 6 6 7 12 17 12
22 0 4 -6 5 -12 1 -9 -5 -9 -2 1 9 11 14 11 17 0 17 -11 0 -11 2 1 10 8 5 10
10 4 10 -19 0 -24 38 -5 43 13 4 13 5 -3 6 -14 1 -17 6 -12 26 4 16 2 25 -6
25 -9 0 -9 3 0 12 9 9 7 17 -9 34 -15 16 -17 24 -8 29 7 5 10 4 5 -3 -3 -6 -2
-13 3 -16 11 -7 9 13 -2 32 -5 7 -3 12 3 12 6 0 8 5 5 10 -4 6 -11 7 -17 4 -6
-4 -6 1 1 14 8 15 8 22 -2 26 -6 4 -2 4 10 2 13 -2 21 1 20 8 -1 6 4 10 12 8
12 -3 12 0 2 11 -9 12 -9 15 1 14 35 -1 59 4 54 11 -3 5 1 9 9 9 8 0 13 -3 13
-6 -3 -15 23 -62 37 -67 8 -4 15 -13 15 -21 0 -8 5 -11 10 -8 6 3 10 1 10 -5
0 -6 5 -8 12 -4 8 5 9 2 5 -9 -4 -10 -2 -16 6 -14 7 1 11 -4 9 -12 -3 -12 0
-12 12 -1 15 12 18 8 15 -17 -1 -11 31 -24 42 -17 8 4 9 -1 4 -17 -7 -22 -7
-22 11 -5 17 18 18 18 31 0 8 -11 13 -13 13 -5 0 10 3 11 14 2 11 -9 15 -9 19
1 3 10 9 11 25 1 16 -10 23 -9 32 2 7 8 16 12 21 9 5 -3 12 2 15 10 3 9 12 16
20 16 8 0 14 4 14 9 0 6 9 8 19 6 13 -2 18 1 15 9 -4 9 3 13 20 11 14 -2 27 3
30 11 5 12 1 12 -17 4 -19 -10 -19 -9 3 9 14 11 31 19 37 16 7 -2 12 -1 12 3
-3 20 3 32 16 32 8 0 15 7 15 16 0 8 4 13 9 10 14 -9 42 5 34 17 -4 6 0 8 10
4 10 -4 17 -1 17 6 0 6 7 1 16 -11 8 -12 22 -22 30 -22 8 0 13 -4 10 -8 -5 -8
7 -12 46 -13 10 0 15 -7 13 -18 -2 -13 3 -18 18 -17 14 1 23 -7 28 -24 4 -14
8 -18 8 -10 1 13 3 13 10 1 5 -8 16 -11 26 -7 14 5 15 4 7 -7 -8 -10 -6 -16 9
-25 11 -7 24 -10 28 -7 5 3 12 -2 15 -11 3 -9 12 -14 20 -11 10 4 13 -1 11
-19 -2 -20 0 -22 12 -12 11 9 20 5 46 -23 17 -19 30 -38 29 -42 -1 -5 2 -6 7
-3 5 4 11 3 14 -1 2 -5 2 -2 1 5 -2 6 1 12 6 12 6 0 10 -8 10 -17 0 -15 2 -16
10 -3 7 11 10 11 10 2 0 -8 5 -10 13 -6 7 5 6 0 -3 -11 -9 -11 -10 -16 -2 -11
7 4 12 2 12 -4 0 -6 5 -8 12 -4 8 5 9 2 4 -11 -6 -15 -4 -16 10 -4 14 11 15
10 12 -5 -2 -13 4 -20 20 -22 16 -3 21 0 16 8 -4 7 -3 8 5 4 6 -4 9 -12 6 -17
-4 -5 -1 -9 5 -9 6 0 9 -4 5 -9 -3 -6 3 -8 14 -6 15 3 18 -1 14 -12 -5 -12 -1
-14 16 -8 15 4 21 3 19 -7 -2 -7 3 -12 10 -10 11 2 16 -10 10 -23 -4 -7 51
-35 68 -35 8 0 14 -5 14 -11 0 -5 5 -7 12 -3 8 5 9 2 5 -9 -5 -13 -1 -17 14
-17 13 0 18 -4 13 -12 -5 -9 -3 -9 9 1 14 11 18 11 23 -3 4 -10 13 -15 21 -12
8 3 11 1 8 -4 -3 -6 -1 -10 4 -10 6 0 11 -5 11 -11 0 -8 -4 -8 -14 0 -11 9
-16 9 -22 -1 -4 -7 -4 -10 1 -6 4 4 19 -1 33 -12 13 -11 28 -17 33 -14 5 3 9
0 9 -7 0 -8 5 -7 17 2 9 8 14 9 10 3 -3 -6 3 -16 13 -24 10 -8 16 -18 13 -23
-3 -6 -1 -7 5 -4 14 9 42 -2 42 -18 0 -6 8 -19 18 -28 14 -13 21 -14 30 -5 9
9 12 9 12 0 0 -7 9 -12 20 -12 11 0 20 -5 20 -11 0 -5 -5 -7 -12 -3 -7 5 -8 3
-4 -5 5 -7 14 -10 22 -7 8 3 14 -1 14 -9 0 -9 6 -12 15 -8 9 3 23 -3 31 -13 9
-11 13 -13 9 -7 -4 9 -1 11 10 7 10 -4 15 -14 12 -25 -3 -11 -2 -17 3 -14 4 3
13 -2 20 -10 10 -12 16 -13 28 -3 13 10 14 10 8 1 -4 -8 -2 -13 4 -13 6 0 8
-5 4 -13 -6 -9 -5 -9 8 1 12 10 18 9 28 -3 15 -18 45 -21 34 -3 -4 7 -3 8 5 4
6 -4 9 -11 7 -15 -3 -4 4 -12 15 -19 11 -7 19 -8 19 -2 0 5 -5 10 -12 10 -6 0
-8 3 -5 6 4 4 18 -1 32 -10 14 -9 25 -14 25 -10 0 4 7 1 15 -6 8 -7 12 -16 9
-21 -3 -5 3 -6 12 -2 13 5 15 3 9 -7 -6 -10 -3 -12 12 -8 12 3 27 2 34 -3 8
-5 17 -3 21 4 5 8 8 5 8 -8 0 -17 2 -17 10 -5 7 11 10 11 10 2 0 -9 10 -12 30
-8 19 2 30 0 31 -7 0 -7 4 -3 9 8 l9 20 1 -20 c1 -18 2 -18 10 -3 9 15 14 15
36 3 28 -14 78 -6 98 16 8 9 8 10 -1 5 -18 -10 -16 -1 3 14 8 8 14 9 13 4 -4
-25 3 -26 17 -4 l15 25 -7 -25 c-7 -28 3 -22 20 12 8 15 19 22 33 20 12 -2 23
4 27 13 3 9 10 13 16 10 5 -3 10 1 10 10 0 9 5 13 10 10 6 -3 10 1 10 9 0 8 4
18 10 21 6 4 7 -1 4 -12 -5 -15 -4 -16 5 -3 6 8 11 23 11 33 0 11 4 15 12 11
8 -5 9 -2 5 9 -6 16 4 22 26 18 5 -1 7 4 5 11 -3 7 2 19 9 26 11 12 11 17 1
30 -10 12 -10 14 0 8 18 -11 33 3 23 22 -13 27 -2 47 15 25 12 -17 13 -16 9 5
-2 12 -7 28 -11 35 -6 9 -4 9 8 -1 14 -11 16 -11 14 0 -1 7 -5 18 -9 25 -4 6
0 19 9 27 8 9 12 16 8 16 -3 0 0 8 7 17 12 15 12 16 -6 10 -20 -7 -20 -7 -1 8
11 8 15 15 10 15 -6 0 -10 10 -8 23 1 12 3 22 4 22 1 0 3 22 5 49 2 27 6 60
10 73 3 14 2 22 -3 19 -13 -8 -8 37 6 53 7 7 10 16 7 19 -3 4 -11 0 -16 -8 -8
-11 -8 -8 -3 10 8 26 8 33 1 65 -2 11 2 26 10 33 12 12 12 17 -2 31 -17 20
-20 35 -4 25 8 -4 8 -1 2 12 -5 11 -9 49 -8 86 1 38 -3 64 -8 61 -5 -3 -4 5 3
17 10 18 9 24 -1 31 -8 5 -9 9 -4 9 16 0 13 43 -3 56 -11 8 -12 13 -3 18 9 6
9 11 -1 24 -11 13 -10 15 5 9 14 -5 16 -3 9 11 -5 9 -8 24 -7 32 1 8 -3 21 -8
28 -6 8 -5 12 4 12 9 1 7 6 -6 16 -16 12 -17 16 -6 23 9 6 10 10 2 16 -9 5 -9
10 0 21 9 11 9 14 -1 14 -10 0 -10 3 -1 14 9 11 9 15 -1 19 -10 4 -10 8 2 16
12 8 12 11 1 11 -11 0 -11 3 0 16 11 13 10 15 -3 12 -9 -1 -17 2 -16 7 0 6 4
9 9 8 4 -2 6 4 3 12 -4 8 -10 13 -14 10 -4 -3 -10 2 -14 10 -3 8 0 17 6 21 6
4 8 3 5 -3 -3 -5 0 -10 8 -10 10 0 12 4 5 12 -5 7 -6 16 -2 20 4 5 1 5 -5 1
-16 -9 -16 -1 -2 27 l12 22 -24 -20 c-13 -11 -19 -13 -13 -5 15 20 24 70 13
70 -5 0 -9 5 -9 11 0 5 4 8 9 5 5 -4 7 3 4 14 -3 11 -10 17 -17 13 -6 -4 -5 1
3 10 7 9 10 17 5 17 -5 0 -2 5 6 10 13 8 13 10 -1 10 -9 0 -19 10 -22 23 -6
21 -5 21 8 3 13 -18 14 -18 12 3 -1 11 -4 21 -8 21 -4 0 -10 7 -13 16 -3 8 -2
12 4 9 6 -3 10 -1 10 4 0 6 -6 11 -12 11 -7 0 -5 5 5 11 17 10 16 12 -3 39
-11 16 -16 31 -12 34 8 4 9 50 2 66 -1 3 -1 10 0 15 8 38 8 45 -1 40 -5 -4 -9
-2 -9 4 0 5 4 12 9 15 12 8 8 30 -8 50 -7 9 -10 16 -6 16 4 0 1 8 -6 17 -12
15 -12 16 1 8 13 -7 13 -6 2 7 -7 9 -9 19 -4 22 10 6 9 36 -2 54 -4 7 -2 12 6
12 10 0 10 2 1 8 -6 4 -10 19 -9 34 2 19 -1 25 -11 21 -13 -5 -13 -3 -1 16 11
18 11 23 -2 31 -13 9 -13 10 0 10 9 0 11 3 5 8 -13 10 -19 46 -6 38 7 -5 7 2
1 21 -6 15 -11 47 -13 69 -2 23 -11 54 -21 69 -10 15 -13 24 -7 21 6 -4 11 -1
12 6 0 7 2 25 4 40 2 15 0 30 -5 33 -4 3 -7 -1 -6 -8 0 -6 -3 -14 -8 -17 -5
-3 -10 7 -10 22 -1 15 3 24 9 21 5 -2 2 2 -7 10 -22 17 -11 32 11 14 14 -11
14 -10 2 6 -11 14 -11 17 0 17 8 0 6 5 -6 12 -29 16 -29 16 -14 35 8 9 9 14 3
10 -7 -4 -14 2 -17 13 -3 11 -1 18 4 14 5 -3 9 0 9 5 0 6 -5 11 -10 11 -7 0
-7 6 0 20 9 16 8 19 -6 13 -13 -5 -15 -3 -8 8 12 19 13 59 2 59 -5 0 -7 9 -3
19 3 11 1 22 -5 26 -8 5 -8 11 0 20 12 14 3 45 -13 45 -6 0 -2 7 9 16 10 8 14
13 7 10 -15 -8 -27 10 -13 19 8 5 6 13 -6 26 -9 10 -12 19 -6 19 7 0 8 10 2
29 -6 21 -5 31 3 35 7 2 3 5 -7 5 -19 1 -19 2 -2 14 16 12 17 15 3 29 -12 12
-13 18 -4 28 9 10 9 11 -1 5 -11 -6 -13 2 -11 34 2 29 -1 45 -11 51 -10 7 -11
10 -2 10 6 0 12 5 12 11 0 5 -6 7 -12 3 -8 -5 -7 0 2 11 9 11 10 16 3 11 -8
-4 -13 -2 -13 8 0 8 5 16 12 18 9 3 9 6 0 12 -7 4 -12 2 -12 -3 0 -6 -5 -11
-10 -11 -7 0 -6 8 1 22 14 25 13 27 -10 46 -15 12 -15 13 0 9 15 -5 15 -3 2
24 -8 16 -12 33 -8 39 3 5 -2 10 -12 11 -16 0 -16 1 2 9 13 6 15 9 5 9 -13 1
-13 2 0 11 12 7 12 10 1 10 -7 0 -11 6 -7 15 3 8 0 15 -7 15 -8 0 -6 4 3 10 8
5 10 10 3 10 -6 0 -9 9 -6 20 3 11 10 17 16 13 6 -3 7 -1 3 6 -4 6 -11 9 -16
6 -9 -6 -20 18 -20 43 0 15 2 15 10 2 7 -12 9 -10 7 7 0 12 -5 19 -9 17 -7 -4
-13 54 -9 79 1 5 -3 6 -9 2 -6 -4 -10 9 -10 35 0 30 -3 39 -12 34 -10 -6 -10
-4 0 7 6 7 12 22 12 32 0 13 5 17 15 13 10 -3 15 1 16 12 0 10 3 12 6 5 2 -7
9 -13 15 -13 6 0 7 8 4 17 -6 14 -3 14 15 -3 12 -10 19 -13 14 -5 -6 11 -4 13
10 7 14 -5 16 -4 7 7 -9 11 -8 13 6 12 9 0 23 -4 30 -8 8 -6 10 -3 6 8 -5 11
-2 14 12 8 13 -5 15 -3 9 8 -8 12 -6 12 8 0 16 -12 17 -12 10 5 -6 17 -5 17
10 5 15 -12 17 -12 10 4 -5 14 -3 17 9 12 9 -3 25 1 36 9 12 8 27 13 34 12 7
-2 12 2 11 9 -1 6 5 10 15 9 9 -2 24 5 33 15 9 10 19 15 23 12 4 -4 4 1 0 11
-5 14 -4 17 4 12 8 -4 12 0 12 11 0 15 2 16 10 3 8 -13 10 -12 10 3 0 9 7 17
16 17 8 0 12 5 9 10 -3 6 1 10 9 10 8 0 20 9 26 20 6 11 16 17 22 14 7 -4 8
-3 4 5 -4 6 -13 9 -19 5 -7 -3 -4 1 5 9 10 8 15 17 11 21 -4 4 3 9 16 13 12 3
18 9 13 12 -5 3 0 15 11 26 11 11 17 15 14 9 -3 -6 0 -11 7 -11 8 0 11 8 8 19
-2 10 1 18 8 18 9 0 9 4 -1 17 -13 15 -12 15 9 4 12 -6 21 -8 21 -4 -1 4 3 21
9 36 7 16 12 32 12 37 0 4 8 11 17 14 15 6 15 8 3 16 -11 7 -12 10 -2 10 7 0
10 5 7 10 -3 6 -1 10 4 10 6 0 10 3 10 8 -3 19 2 25 11 12 6 -10 10 -11 10 -2
0 6 7 12 16 12 8 0 12 5 9 10 -4 6 -11 7 -17 4 -7 -5 -8 -2 -4 5 5 7 15 10 23
6 13 -4 14 -3 3 10 -9 11 -9 15 -1 15 7 0 10 4 6 10 -3 5 5 20 17 32 13 13 22
29 20 35 -2 7 4 13 12 13 8 0 18 5 22 12 5 7 3 8 -5 3 -9 -5 -12 -2 -9 11 2
10 18 28 36 39 17 11 35 30 38 42 3 12 13 24 21 27 12 5 13 9 3 21 -10 12 -8
14 8 10 13 -2 19 2 18 12 0 9 5 18 13 21 9 3 11 0 6 -8 -5 -9 -4 -11 4 -6 9 6
9 11 1 21 -8 10 -6 13 7 11 12 -1 18 6 17 21 0 12 4 21 10 20 6 -1 11 5 11 14
0 9 7 24 14 33 11 13 16 14 22 4 6 -9 9 -6 9 11 0 17 4 22 15 17 13 -5 14 -2
4 17 -11 19 -10 21 3 9 13 -11 18 -11 24 0 14 22 15 50 2 42 -7 -4 -8 -3 -4 5
4 6 11 9 15 6 5 -2 17 3 27 11 19 15 19 15 -1 10 -19 -6 -19 -5 -3 7 10 8 14
18 10 22 -4 5 1 5 12 1 14 -5 17 -2 12 9 -3 8 -1 15 5 15 6 0 7 6 3 13 -6 9
-5 9 8 0 19 -17 32 -4 15 15 -10 13 -9 14 1 8 9 -6 12 -3 10 10 -2 12 2 18 11
16 12 -3 12 0 2 12 -10 12 -8 14 13 12 22 -3 24 -1 15 15 -7 13 -6 19 1 19 6
0 9 4 5 9 -3 6 4 15 15 21 11 6 18 15 15 19 -2 5 4 19 15 31 19 22 19 24 3 40
-10 10 -22 15 -27 12 -5 -3 -6 0 -2 7 6 9 11 9 22 0 18 -15 18 -2 0 16 -7 8
-17 11 -22 7 -5 -4 -2 2 6 12 10 13 10 17 3 12 -8 -4 -13 -1 -13 9 0 10 -5 13
-12 9 -8 -5 -9 -2 -4 11 5 15 4 16 -9 5 -12 -10 -15 -10 -15 0 0 7 -6 10 -14
7 -8 -3 -13 1 -12 11 1 11 -5 16 -16 14 -9 -1 -19 5 -21 15 -4 17 -5 17 -6 0
0 -10 -6 -15 -11 -12 -6 4 -8 11 -5 16 4 5 1 9 -4 9 -6 0 -11 -7 -11 -15 0 -8
-5 -15 -11 -15 -6 0 -8 8 -5 18 6 16 5 16 -8 0 -7 -10 -18 -18 -24 -18 -6 0
-21 -10 -33 -22 -12 -13 -18 -17 -14 -9 5 9 4 12 -3 7 -7 -4 -12 -15 -12 -24
0 -15 -2 -15 -10 -2 -6 10 -10 11 -10 3 0 -7 -7 -13 -15 -13 -8 0 -15 -5 -15
-11 0 -5 5 -7 11 -3 6 3 3 -5 -6 -20 -10 -14 -25 -26 -34 -26 -14 0 -14 -2 -1
-10 13 -8 12 -10 -2 -10 -16 0 -22 -11 -19 -32 0 -4 -7 -4 -16 -1 -11 4 -14 3
-9 -5 5 -8 2 -10 -10 -5 -14 5 -15 3 -4 -18 12 -22 12 -23 -4 -10 -14 12 -16
12 -10 -4 6 -14 4 -16 -6 -10 -10 6 -12 4 -7 -9 5 -14 3 -17 -8 -12 -9 3 -15
0 -15 -10 0 -8 4 -12 10 -9 6 4 7 -1 3 -11 -4 -11 -8 -13 -11 -6 -2 7 -8 12
-14 12 -6 0 -8 -7 -4 -15 5 -13 2 -14 -17 -4 -19 11 -21 10 -9 -3 9 -11 10
-18 2 -23 -6 -3 -7 -11 -4 -17 5 -8 1 -9 -11 -4 -15 5 -16 4 -5 -9 7 -9 9 -15
4 -14 -21 4 -28 -2 -14 -12 12 -9 11 -10 -7 -6 -16 4 -20 1 -16 -11 5 -12 2
-14 -12 -9 -14 6 -16 5 -6 -6 9 -11 8 -17 -2 -26 -8 -6 -16 -9 -18 -7 -2 2
-10 -2 -17 -10 -8 -9 -9 -14 -2 -14 6 0 8 -5 5 -11 -4 -6 -13 -8 -20 -5 -10 3
-12 -3 -9 -22 4 -27 4 -27 -9 -4 -7 12 -16 19 -21 15 -4 -4 -4 0 0 10 3 9 10
17 15 17 5 0 9 5 9 11 0 5 -5 7 -10 4 -6 -3 4 14 21 39 17 25 36 46 42 46 7 0
4 -5 -5 -11 -10 -5 -18 -15 -18 -21 0 -6 8 -4 19 6 12 11 17 26 14 44 -3 15
-1 23 4 17 4 -5 14 -11 22 -13 12 -3 12 -1 0 14 -12 16 -12 17 3 11 13 -4 15
-2 11 10 -5 12 -3 14 8 8 12 -8 12 -6 0 8 -12 16 -8 22 13 18 5 -1 6 5 3 14
-4 10 -1 15 11 15 15 0 15 2 2 10 -13 9 -13 10 0 11 8 1 18 1 22 0 3 0 5 10 4
23 -2 19 1 23 15 21 11 -2 19 0 19 6 0 5 -5 9 -12 9 -6 0 -1 9 12 20 21 18 20
25 -3 21 -5 -1 -6 3 -2 9 3 6 10 8 15 5 4 -3 10 2 14 10 3 8 13 15 21 15 9 0
13 5 10 10 -4 6 -12 7 -18 4 -7 -4 -2 3 10 15 12 11 27 21 32 21 16 0 22 18
10 26 -8 5 -9 3 -4 -6 5 -9 4 -11 -4 -6 -6 4 -9 12 -5 17 3 5 8 7 12 5 4 -2
13 3 21 11 12 13 11 14 -10 9 -20 -6 -21 -5 -6 4 10 6 14 16 10 23 -5 9 -3 9
8 1 18 -15 35 2 33 34 -1 19 1 20 14 10 10 -9 13 -9 9 -1 -4 6 -1 14 5 16 10
4 10 6 1 6 -7 1 -13 6 -13 12 0 5 5 7 12 3 8 -5 9 -2 4 11 -6 16 -4 16 11 4 9
-8 14 -9 11 -4 -8 14 1 28 27 44 19 11 18 12 -5 6 -19 -5 -21 -4 -10 4 8 6 15
16 15 23 0 7 8 12 17 12 10 -1 17 1 16 5 0 3 0 15 1 26 1 17 3 18 11 5 5 -8
10 -10 10 -4 0 5 -5 15 -12 22 -9 9 -8 12 6 12 12 0 16 5 13 14 -4 10 0 14 13
11 11 -2 19 -1 19 3 -3 21 2 43 9 38 4 -2 14 4 21 16 7 11 8 17 2 13 -6 -3
-11 -2 -11 4 0 5 5 13 10 16 8 5 8 11 0 20 -6 8 -7 16 -2 19 12 7 13 56 1 56
-5 0 -7 6 -5 13 1 6 1 9 -1 5 -7 -13 -20 -9 -27 8 -3 8 -2 12 4 9 6 -3 10 -1
10 4 0 6 -10 11 -22 11 -19 0 -20 2 -8 10 11 7 11 10 2 10 -7 0 -10 5 -6 12 4
6 3 8 -4 4 -6 -3 -18 1 -26 10 -9 8 -16 12 -16 8 0 -4 -9 1 -20 11 -20 18 -21
18 -15 -1 7 -19 6 -19 -9 0 -12 15 -16 16 -16 5 0 -12 -2 -12 -9 0 -8 12 -12
12 -26 -2 -21 -21 -26 -21 -18 0 4 11 3 14 -5 9 -7 -4 -12 -15 -13 -24 0 -10
-3 -12 -5 -5 -4 9 -11 9 -29 1 -14 -6 -22 -15 -19 -19 3 -5 -3 -9 -13 -9 -15
0 -16 -2 -3 -10 8 -5 12 -10 8 -11 -5 -1 -12 -3 -18 -4 -5 -1 -13 -3 -17 -4
-5 -1 -1 -6 7 -11 13 -8 12 -10 -3 -10 -10 0 -16 -4 -12 -9 3 -5 1 -12 -5 -16
-6 -4 -7 -11 -4 -17 4 -7 2 -8 -4 -4 -6 4 -10 12 -9 19 2 7 -1 2 -7 -10 -5
-13 -13 -23 -18 -23 -13 0 -9 -28 4 -32 7 -3 5 -7 -6 -11 -10 -4 -15 -3 -11 3
3 6 1 10 -4 10 -10 0 -16 -30 -12 -54 1 -5 -5 -3 -14 4 -13 11 -14 10 -9 -5 5
-13 4 -16 -4 -11 -7 4 -12 2 -12 -3 0 -6 6 -11 12 -11 7 0 2 -7 -10 -16 -13
-9 -21 -22 -18 -30 3 -8 0 -13 -7 -11 -7 1 -11 -6 -11 -15 1 -10 -4 -14 -13
-11 -17 7 -43 -26 -36 -45 3 -7 -8 -25 -24 -40 -16 -15 -21 -21 -12 -14 12 9
19 10 24 3 3 -6 4 -12 1 -12 -3 -1 -9 -2 -13 -3 -29 -6 -54 -30 -50 -46 2 -10
0 -24 -5 -31 -8 -11 -9 -11 -5 2 3 9 -1 16 -8 16 -8 0 -11 -7 -7 -15 3 -10 1
-13 -6 -8 -6 3 -14 2 -17 -4 -4 -6 -3 -10 2 -9 24 4 25 -3 3 -16 -15 -9 -19
-14 -10 -15 12 0 12 -2 2 -9 -7 -4 -14 -17 -15 -29 0 -11 -5 -19 -9 -16 -4 3
-4 12 -1 22 7 18 5 17 -17 -12 -10 -13 -10 -17 -2 -12 8 5 11 1 9 -16 -4 -23
-12 -27 -25 -12 -4 4 -1 4 7 -1 10 -5 12 -4 7 4 -10 16 -25 5 -22 -16 2 -10
-7 -22 -18 -28 -14 -7 -21 -21 -21 -39 -1 -17 -10 -35 -25 -47 -14 -10 -21
-19 -16 -19 5 0 3 -7 -4 -15 -9 -11 -17 -12 -30 -5 -29 15 -34 12 -13 -7 10
-10 13 -14 6 -9 -9 5 -13 4 -14 -5 0 -8 -4 -5 -9 6 -5 14 -3 24 7 32 9 7 12
17 7 25 -6 10 -5 10 9 0 14 -12 16 -11 12 7 -2 12 -1 19 4 17 11 -7 34 11 37
28 1 9 -2 14 -6 11 -5 -3 -12 0 -16 6 -4 8 -3 9 4 5 7 -4 12 -2 12 4 0 6 4 8
10 5 6 -3 7 1 4 9 -3 9 -1 16 5 16 6 0 11 10 11 23 0 18 2 19 11 7 8 -12 10
-10 8 10 -2 39 0 50 10 50 5 0 11 -6 14 -12 2 -7 2 -3 1 9 -2 12 1 25 8 29 7
5 9 2 4 -7 -4 -8 -1 -6 7 3 8 10 17 15 20 11 4 -3 7 -1 7 4 0 6 -5 13 -12 15
-8 3 -5 11 8 24 11 11 18 26 16 32 -2 7 8 16 22 22 14 5 26 12 26 15 0 4 -5 3
-10 0 -5 -3 -10 -1 -10 4 0 6 5 11 11 11 5 0 7 5 4 10 -6 9 8 14 28 11 5 -1 6
3 2 8 -3 6 -13 7 -22 4 -13 -5 -11 -1 5 17 12 13 20 30 18 37 -3 8 1 10 11 6
11 -4 14 -3 9 6 -5 7 -2 10 6 9 7 -2 12 5 12 14 -1 10 3 15 8 12 5 -3 8 0 7 7
-4 17 22 67 35 69 5 1 12 -4 16 -11 5 -7 7 -2 7 14 -2 21 -5 23 -17 14 -13
-11 -13 -10 -1 6 9 11 21 15 35 12 20 -6 20 -5 2 6 -18 11 -18 12 2 28 12 9
23 27 26 41 2 14 9 24 17 22 9 -2 9 1 -2 14 -8 10 -9 15 -3 11 6 -3 16 5 23
20 11 25 11 25 -6 13 -10 -7 -2 2 18 21 19 19 26 27 15 19 -19 -14 -20 -14 -7
2 7 9 10 22 6 27 -3 7 0 8 10 5 23 -9 48 15 34 32 -9 11 -7 14 7 15 11 0 14 3
7 6 -7 2 -13 9 -13 14 0 6 5 7 10 4 9 -6 14 8 11 28 0 4 3 7 8 7 5 0 11 7 14
14 4 11 1 13 -11 9 -10 -3 -8 1 6 12 18 13 21 20 11 31 -9 11 -8 19 7 35 16
17 16 19 1 13 -14 -5 -17 0 -17 25 0 17 -4 31 -10 31 -5 0 -10 7 -10 16 0 8
-4 12 -10 9 -5 -3 -10 3 -10 13 0 11 -7 23 -16 26 -14 6 -15 4 -4 -9 12 -14
11 -15 -13 -4 -15 7 -23 17 -20 23 4 6 -2 4 -12 -4 -11 -9 -16 -10 -11 -2 4 7
2 12 -4 12 -6 0 -8 5 -4 12 4 7 3 8 -5 4 -6 -4 -8 -12 -5 -18 4 -6 -1 -6 -14
1 -25 13 -35 14 -27 2 3 -5 0 -13 -6 -17 -7 -4 -9 -3 -6 3 4 6 0 14 -9 17 -21
8 -26 8 -20 -2 2 -4 -5 -14 -17 -22 -21 -12 -21 -12 -7 6 14 18 14 18 -6 1
-11 -9 -23 -15 -26 -12 -2 3 -4 -5 -4 -18 1 -17 -4 -21 -21 -19 -13 2 -23 -2
-23 -8 0 -6 4 -8 10 -5 6 3 7 -1 4 -10 -5 -12 -9 -13 -20 -4 -12 10 -13 8 -8
-6 6 -14 4 -16 -7 -10 -11 7 -11 5 1 -10 12 -15 12 -17 1 -10 -11 6 -13 4 -8
-8 4 -12 2 -14 -10 -10 -11 4 -14 2 -9 -5 4 -7 2 -12 -5 -12 -7 0 -10 -3 -6
-6 3 -4 0 -13 -8 -21 -8 -8 -15 -19 -15 -26 0 -6 7 -2 16 9 14 18 15 18 4 -4
-10 -20 -14 -21 -27 -10 -15 12 -15 10 -3 -12 10 -21 10 -23 -1 -12 -7 6 -18
12 -24 12 -5 0 -3 -5 5 -10 13 -9 13 -12 -2 -20 -9 -6 -15 -17 -12 -25 4 -9 0
-15 -9 -15 -11 0 -13 -6 -9 -22 3 -13 1 -19 -5 -15 -6 4 -14 0 -17 -9 -3 -8
-2 -12 4 -9 6 3 10 1 10 -4 0 -6 -5 -11 -11 -11 -6 0 -9 -7 -6 -14 4 -10 1
-13 -9 -9 -10 4 -12 0 -8 -11 4 -11 1 -16 -11 -16 -10 0 -13 5 -9 12 5 7 3 8
-5 3 -9 -5 -10 -10 -2 -18 14 -14 14 -30 1 -22 -5 3 -10 1 -10 -4 0 -6 6 -11
13 -11 6 0 0 -8 -16 -18 -15 -10 -25 -21 -21 -24 10 -10 -27 -58 -40 -51 -6 4
-6 1 2 -9 10 -13 9 -16 -9 -21 -15 -4 -20 -11 -15 -23 5 -12 2 -15 -10 -10
-15 6 -15 4 -3 -11 12 -15 12 -16 -3 -10 -12 4 -15 2 -11 -9 3 -9 -1 -14 -13
-15 -11 0 -14 -3 -8 -5 14 -6 6 -44 -8 -44 -5 0 -6 6 -3 13 3 6 0 3 -7 -7 -7
-11 -21 -28 -30 -38 -21 -21 -16 -23 15 -6 20 10 21 10 8 -5 -7 -10 -21 -17
-30 -17 -14 0 -14 -2 -1 -10 12 -8 12 -10 1 -10 -9 0 -11 -7 -8 -21 4 -16 2
-19 -10 -15 -12 5 -14 1 -10 -14 3 -13 1 -18 -6 -13 -6 4 -8 0 -4 -9 8 -22 -2
-29 -26 -17 -12 7 -17 7 -13 1 3 -6 3 -12 -1 -15 -5 -2 -3 -2 4 -1 7 2 10 -3
6 -12 -3 -9 -12 -13 -21 -9 -9 3 -13 3 -10 -1 4 -4 2 -16 -4 -28 -10 -20 -10
-20 8 -7 10 8 7 3 -8 -12 -15 -15 -32 -27 -37 -27 -6 0 -14 -7 -19 -16 -6 -11
-11 -13 -16 -5 -4 6 -2 11 4 11 6 0 9 4 5 9 -3 5 -1 12 5 16 6 4 7 11 4 17 -4
6 -2 8 4 4 17 -10 25 13 10 32 -12 15 -11 16 4 4 11 -9 18 -10 23 -2 3 5 1 10
-6 10 -7 0 -4 7 7 15 16 13 16 14 1 9 -13 -5 -16 -2 -11 10 3 9 12 16 20 16
20 0 17 18 -3 23 -16 4 -16 5 1 6 13 1 17 6 13 22 -5 17 -3 18 10 7 15 -12 15
-10 3 12 -12 23 -12 24 4 11 9 -8 19 -11 23 -7 3 3 2 6 -3 6 -6 0 -10 12 -10
26 0 22 2 24 12 10 10 -14 13 -14 17 -3 3 8 0 20 -6 27 -9 10 -9 11 2 5 11 -6
13 -4 8 8 -4 11 -1 15 12 12 13 -2 17 3 15 26 -1 21 3 29 14 29 15 0 15 2 2
10 -13 9 -13 10 0 11 8 1 21 1 29 0 7 -2 11 4 9 11 -3 7 -14 12 -24 10 -17 -2
-16 0 4 14 22 17 32 41 10 28 -7 -5 -8 -3 -4 5 5 7 14 10 22 7 7 -3 16 0 20 6
4 6 3 8 -3 5 -6 -4 -16 0 -22 7 -10 12 -8 13 8 9 16 -4 19 -1 14 15 -2 11 1
23 8 27 7 5 10 4 6 -2 -3 -5 0 -10 8 -10 12 0 12 3 3 14 -9 11 -9 16 1 23 11
6 11 9 0 13 -11 4 -11 6 -1 6 7 1 10 5 7 11 -4 6 1 7 12 3 16 -6 17 -5 3 12
-9 11 -10 16 -2 11 7 -4 12 -1 12 8 0 9 4 16 9 16 5 0 12 7 15 16 6 15 4 15
-11 3 -17 -12 -17 -12 -1 6 17 19 18 19 33 0 15 -19 15 -19 3 5 -7 14 -11 28
-11 31 1 4 4 19 7 34 3 15 8 30 12 34 4 3 4 -2 1 -11 -4 -10 -2 -18 3 -18 11
0 11 2 15 38 1 12 10 31 19 41 9 9 13 21 9 25 -13 13 -10 46 6 46 11 0 10 3
-5 15 -10 8 -15 15 -10 15 6 0 1 7 -10 16 -10 8 -14 13 -7 10 6 -3 10 0 9 6
-4 27 -17 36 -44 32 -15 -2 -22 -1 -17 3 18 14 14 28 -10 28 -15 0 -21 -5 -18
-15 2 -8 -2 -5 -9 8 -11 18 -16 20 -27 10 -8 -8 -11 -8 -8 -2 4 7 0 15 -8 18
-21 8 -31 4 -27 -10 1 -7 -9 -11 -28 -9 -21 2 -30 -2 -30 -12 0 -13 -3 -13
-16 -3 -12 11 -15 11 -12 0 2 -8 -3 -14 -9 -15 -17 0 -46 -43 -38 -55 3 -6 -1
-7 -9 -4 -11 4 -16 0 -16 -15 0 -12 -3 -21 -7 -21 -5 0 -13 -11 -20 -25 -6
-14 -7 -23 -2 -19 5 3 9 0 9 -5 0 -6 -9 -11 -21 -11 -12 0 -19 -5 -16 -12 2
-7 10 -12 16 -10 7 1 10 -2 6 -8 -3 -6 -10 -8 -15 -5 -5 3 -11 -4 -15 -15 -3
-11 -15 -25 -26 -30 -16 -9 -17 -14 -7 -33 10 -20 10 -21 -6 -8 -14 12 -16 12
-10 -4 5 -12 4 -16 -3 -12 -16 10 -24 -18 -10 -33 10 -10 8 -12 -7 -6 -15 5
-17 4 -7 -8 9 -11 6 -18 -16 -35 -24 -17 -26 -22 -13 -31 12 -8 11 -10 -7 -10
-17 0 -21 -4 -16 -17 4 -10 2 -14 -5 -9 -6 3 -14 1 -18 -5 -4 -7 -3 -9 3 -6 6
4 13 -2 16 -13 3 -11 2 -18 -2 -16 -16 10 -32 -13 -34 -47 -1 -25 -7 -37 -17
-37 -12 0 -13 -2 -1 -9 11 -7 11 -9 0 -14 -12 -4 -11 -7 1 -16 8 -6 10 -11 5
-11 -6 0 -17 6 -24 13 -10 10 -11 8 -5 -7 5 -14 4 -17 -5 -11 -8 4 -6 -4 4
-21 10 -17 11 -22 2 -11 -15 18 -32 24 -22 7 3 -5 1 -10 -5 -10 -7 0 -9 -8 -5
-19 3 -12 0 -21 -9 -24 -11 -4 -13 -1 -10 11 5 15 4 15 -6 -1 -6 -9 -8 -22 -5
-27 3 -6 2 -10 -4 -10 -6 0 -7 -7 -4 -17 5 -12 3 -14 -7 -8 -10 6 -12 4 -7 -8
4 -10 2 -17 -5 -17 -7 0 -6 -5 2 -15 11 -13 10 -14 -5 -8 -14 5 -17 3 -12 -10
3 -9 2 -17 -3 -17 -6 0 -9 -5 -7 -11 1 -6 -4 -14 -12 -17 -9 -3 -11 0 -6 8 5
9 4 11 -3 6 -9 -5 -8 -13 3 -30 13 -20 13 -23 0 -23 -8 0 -11 5 -8 10 3 6 1 7
-6 3 -6 -4 -9 -11 -6 -16 3 -4 -2 -13 -9 -20 -8 -6 -13 -20 -11 -32 3 -16 2
-18 -10 -8 -12 10 -13 8 -10 -9 2 -12 0 -21 -6 -21 -5 0 -9 -5 -9 -11 0 -5 5
-7 12 -3 7 5 8 3 4 -5 -5 -7 -15 -10 -23 -6 -13 4 -14 3 -3 -10 10 -12 10 -15
-4 -16 -30 -3 -34 -4 -43 -13 -5 -5 -3 -6 5 -2 7 5 12 1 12 -9 0 -11 -5 -15
-15 -11 -11 4 -15 0 -13 -12 2 -12 -3 -16 -16 -14 -18 3 -19 2 -5 -15 12 -16
12 -17 -2 -6 -9 7 -19 9 -23 5 -5 -4 -6 2 -4 13 2 12 -2 19 -9 18 -8 -2 -10 4
-6 15 6 15 5 15 -11 3 -15 -12 -17 -12 -14 0 2 8 -3 13 -11 11 -11 -2 -12 0
-3 11 15 18 3 30 -15 16 -16 -14 -17 3 -1 19 9 9 9 12 0 12 -7 0 -11 3 -11 8
1 4 1 20 0 36 -1 22 -5 27 -18 22 -15 -5 -15 -4 1 9 12 9 15 15 7 15 -9 0 -12
9 -9 25 4 17 1 25 -8 25 -8 0 -14 5 -14 11 0 5 4 8 9 5 5 -4 7 3 4 13 -3 13
-10 18 -21 13 -15 -5 -15 -3 -4 10 8 10 9 19 3 22 -5 3 -12 0 -14 -6 -3 -7 -4
2 -2 19 2 18 0 32 -3 32 -22 -3 -32 4 -33 24 l0 22 -9 -22 c-12 -29 -20 -30
-12 -1 3 14 2 19 -6 14 -7 -4 -12 -1 -12 9 0 11 -5 15 -15 12 -19 -8 -31 13
-14 24 8 5 9 9 4 9 -6 0 -16 -5 -22 -11 -8 -8 -11 -6 -10 7 2 15 -4 18 -26 16
-19 -2 -34 3 -44 15 -14 17 -14 17 -9 -2 5 -18 4 -18 -10 3 -9 12 -22 22 -28
22 -6 0 -4 -5 4 -11 11 -8 8 -9 -13 -4 -22 4 -27 3 -21 -7 6 -10 5 -10 -7 -2
-8 6 -24 10 -37 8 -13 -2 -21 0 -18 4 3 5 -1 9 -8 9 -8 0 -12 -7 -9 -16 3 -11
0 -10 -13 4 -13 15 -15 16 -11 3 3 -9 0 -19 -9 -22 -23 -9 -27 -7 -18 7 5 7 2
6 -6 -3 -9 -9 -22 -14 -30 -12 -8 3 -12 1 -8 -3 4 -4 0 -14 -10 -22 -11 -10
-12 -12 -2 -8 8 4 4 -2 -9 -13 -15 -12 -21 -24 -16 -32 6 -10 3 -12 -11 -6
-15 6 -17 5 -6 -5 14 -15 16 -33 2 -24 -5 3 -10 1 -10 -4 0 -6 6 -11 13 -11 8
0 7 -4 -3 -11 -12 -9 -11 -10 8 -6 12 3 20 1 16 -4 -3 -5 -13 -9 -22 -10 -14
0 -13 -2 3 -8 11 -5 21 -13 21 -20 1 -6 2 -15 3 -21 0 -5 8 -10 16 -10 8 0 12
-6 9 -14 -3 -8 8 -27 25 -44 17 -16 28 -32 24 -35 -3 -4 -1 -7 6 -7 7 0 10 -4
6 -9 -3 -5 4 -16 15 -24 11 -7 17 -16 14 -19 -3 -4 4 -9 15 -13 13 -4 18 -11
14 -22 -5 -12 -2 -15 9 -11 8 4 15 1 15 -8 0 -7 -5 -10 -11 -7 -6 4 -5 0 1 -9
7 -8 9 -19 5 -23 -4 -5 -1 -5 6 -1 6 4 12 2 12 -3 0 -20 3 -26 19 -39 14 -11
14 -12 0 -7 -10 4 -16 0 -16 -10 0 -9 6 -14 13 -11 8 3 11 0 7 -10 -3 -8 1
-14 8 -14 11 0 11 -2 -1 -10 -12 -7 -12 -13 -4 -27 6 -10 8 -27 4 -38 -4 -11
-3 -26 2 -32 6 -7 6 -13 1 -13 -13 0 -9 -48 5 -62 7 -7 12 -17 12 -22 0 -6 -4
-5 -9 2 -7 11 -9 11 -14 -2 -4 -9 -3 -16 1 -16 4 0 8 -9 8 -20 0 -11 -5 -20
-11 -20 -5 0 -3 -5 5 -10 12 -8 12 -10 1 -10 -9 0 -10 -4 -4 -12 8 -11 10 -33
3 -40 -7 -9 -5 -75 3 -86 7 -9 6 -11 -7 -6 -14 5 -15 2 -7 -18 5 -14 5 -31 1
-38 -5 -8 -4 -23 3 -34 13 -24 15 -47 6 -61 -9 -13 -5 -53 6 -62 4 -5 5 -2 0
6 -5 10 -4 12 4 7 6 -4 9 -11 6 -16 -3 -4 1 -11 7 -14 7 -3 2 -3 -12 0 -18 4
-21 3 -11 -5 13 -8 13 -12 0 -27 -8 -10 -9 -15 -3 -11 6 4 20 -3 30 -15 11
-12 13 -18 7 -14 -7 4 -13 2 -13 -3 0 -6 8 -11 18 -12 10 0 12 -3 5 -6 -7 -2
-13 -9 -13 -14 0 -6 5 -7 11 -3 7 4 7 -1 -1 -16 -10 -18 -9 -24 7 -37 10 -8
12 -12 6 -8 -9 4 -11 1 -7 -9 3 -9 9 -14 13 -11 4 2 8 -2 8 -10 0 -8 -4 -12
-9 -9 -4 3 -8 0 -8 -5 0 -6 6 -11 13 -11 8 0 7 -4 -3 -10 -10 -6 -11 -10 -2
-10 6 0 12 -7 12 -15 0 -8 4 -15 9 -15 10 0 9 -19 -2 -36 -4 -7 0 -17 8 -24 8
-7 12 -17 9 -22 -3 -5 2 -8 11 -6 10 2 20 -4 22 -12 4 -12 3 -12 -5 -1 -6 8
-12 9 -16 3 -3 -6 -2 -13 3 -17 6 -3 7 -13 4 -23 -6 -15 -5 -15 10 -3 16 13
17 12 7 -14 -6 -15 -8 -30 -5 -33 3 -3 5 0 5 6 0 7 5 12 11 12 6 0 8 -9 3 -22
-6 -20 -5 -21 9 -10 14 12 15 10 11 -12 -2 -15 -1 -26 3 -25 21 3 24 -2 12
-18 -8 -9 -9 -14 -4 -11 6 3 17 -1 25 -10 13 -14 13 -15 -1 -10 -10 4 -15 0
-15 -12 0 -12 6 -16 16 -12 8 3 12 2 8 -3 -4 -4 -2 -17 4 -29 10 -20 10 -20
-7 -6 -17 14 -17 14 -7 -7 7 -12 11 -47 9 -77 -1 -31 2 -58 8 -60 6 -3 6 -5
-1 -5 -10 -1 -9 -80 1 -109 3 -7 1 -11 -3 -8 -9 5 -8 -116 1 -130 3 -6 2 -16
-3 -24 -5 -9 -5 -19 2 -27 6 -8 7 -13 1 -13 -6 0 -8 -16 -6 -36 3 -27 1 -34
-9 -28 -10 6 -10 5 -2 -7 16 -20 17 -242 1 -232 -9 5 -9 3 -1 -8 16 -20 17
-242 1 -232 -9 5 -9 3 0 -8 7 -9 11 -47 11 -100 -1 -47 2 -91 6 -97 4 -7 2
-12 -4 -12 -6 0 -8 -5 -5 -10 4 -6 1 -18 -7 -27 -8 -10 -8 -14 -1 -10 6 4 14
3 18 -3 3 -5 2 -10 -2 -10 -10 0 -10 -66 -1 -76 4 -3 3 -17 -2 -30 -6 -14 -6
-26 0 -29 6 -4 7 -14 2 -23 -4 -9 -7 -82 -6 -162 2 -98 -2 -150 -9 -159 -10
-12 -9 -13 2 -6 11 6 13 1 9 -24 -3 -18 0 -31 6 -31 6 0 4 -5 -4 -10 -13 -9
-13 -10 0 -10 13 0 13 -1 0 -10 -8 -5 -10 -10 -5 -10 6 0 8 -26 5 -69 -3 -38
-1 -67 4 -64 4 3 5 -5 1 -17 -5 -15 -2 -25 6 -31 10 -6 11 -9 2 -9 -19 0 -16
-31 5 -47 9 -7 13 -13 7 -12 -21 3 -25 -2 -13 -15 7 -8 17 -11 22 -8 5 3 6 0
2 -7 -4 -6 -12 -9 -17 -6 -5 4 -9 2 -9 -4 0 -5 5 -13 11 -17 8 -5 8 -9 -1 -14
-9 -5 -9 -13 -2 -27 8 -14 8 -23 1 -30 -8 -8 -7 -13 2 -18 8 -6 10 -4 4 5 -5
9 -4 11 4 6 9 -6 9 -11 0 -23 -10 -12 -10 -16 2 -24 11 -7 10 -9 -6 -10 l-20
0 20 -9 c11 -5 14 -9 8 -9 -7 -1 -13 -6 -13 -11 0 -6 3 -9 8 -9 23 4 29 -4 27
-33 -2 -18 -4 -33 -5 -33 -1 0 -3 -8 -5 -18 -2 -9 1 -15 6 -11 5 3 6 10 3 16
-4 7 -2 8 4 4 9 -5 9 -13 2 -26 -7 -14 -6 -23 6 -34 8 -9 11 -16 6 -16 -6 0
-13 -7 -16 -16 -5 -14 -4 -15 9 -4 8 7 15 8 15 2 0 -5 -11 -17 -25 -26 -23
-15 -25 -15 -35 4 -6 11 -8 24 -5 29 3 5 -5 7 -17 4 -19 -4 -20 -3 -8 6 13 10
13 11 0 12 -8 1 -19 1 -24 0 -5 -1 -4 5 3 13 10 12 8 14 -12 12 -18 -2 -23 1
-20 13 2 9 -6 26 -19 36 -18 16 -20 16 -9 2 8 -9 11 -20 7 -24 -3 -3 -6 -2 -6
3 0 16 -57 73 -65 66 -5 -4 -6 3 -3 15 4 16 2 20 -8 16 -9 -3 -14 1 -14 12 0
9 -3 14 -7 12 -5 -3 -14 1 -21 9 -7 8 -10 14 -6 14 3 0 1 6 -6 14 -6 8 -19 12
-27 9 -11 -4 -14 -2 -9 5 4 7 1 12 -9 12 -10 0 -13 5 -9 12 5 8 2 9 -9 5 -10
-3 -17 -2 -17 3 0 6 5 10 12 10 6 0 8 3 5 6 -4 4 -14 1 -22 -6 -13 -11 -16
-11 -13 1 2 8 -3 13 -9 11 -7 -1 -13 3 -13 9 0 5 -6 7 -12 3 -9 -5 -9 -2 1 9
7 9 9 17 3 17 -6 0 -9 25 -8 59 0 33 -2 57 -6 55 -4 -3 -6 9 -4 26 3 24 1 28
-9 20 -10 -8 -15 -8 -21 1 -4 7 -3 9 3 6 7 -4 10 3 9 17 0 13 -4 22 -8 19 -5
-2 -8 1 -8 7 0 6 -5 8 -12 4 -10 -6 -10 -5 -1 7 10 12 8 15 -9 16 -12 1 -26 9
-30 18 -5 8 -13 13 -19 10 -5 -4 -9 0 -9 8 0 19 -36 51 -49 43 -5 -4 -12 -2
-16 4 -4 6 -11 7 -17 4 -7 -4 -8 -2 -4 4 4 7 1 12 -6 12 -10 0 -9 3 2 11 12 9
12 10 -4 5 -10 -4 -26 0 -35 7 -19 17 -64 29 -55 16 12 -20 -9 -7 -28 16 -11
14 -26 25 -34 25 -8 0 -12 4 -9 10 3 6 -1 7 -9 4 -11 -4 -16 0 -16 10 0 9 -6
16 -14 16 -8 0 -17 7 -20 16 -4 9 -13 14 -21 10 -8 -3 -14 0 -12 7 1 7 -4 11
-10 10 -7 -2 -13 1 -13 5 0 18 -36 49 -53 46 -15 -2 -16 0 -5 14 11 13 10 15
-9 10 -13 -4 -23 -2 -23 3 0 14 -42 59 -56 59 -7 0 -16 5 -20 12 -5 7 -3 8 6
3 8 -5 11 -4 6 3 -4 6 -14 8 -23 5 -11 -4 -14 -3 -9 5 4 7 1 12 -8 12 -9 0
-16 5 -16 11 0 5 -5 7 -10 4 -6 -4 -10 -3 -9 2 1 4 1 15 0 23 -1 13 -2 13 -12
0 -9 -12 -10 -10 -6 8 4 18 3 21 -8 12 -9 -8 -14 -7 -19 5 -3 8 -12 15 -21 15
-8 0 -15 5 -15 11 0 5 -4 7 -10 4 -5 -3 -10 -1 -10 4 0 6 5 11 12 11 6 0 8 3
5 6 -4 4 -13 1 -21 -5 -13 -11 -15 -9 -11 9 3 16 0 20 -10 16 -8 -3 -14 0 -12
7 1 7 -3 11 -10 10 -7 -2 -10 4 -7 12 4 9 0 15 -10 15 -9 0 -16 5 -16 11 0 8
-5 7 -16 -1 -12 -11 -15 -11 -12 0 2 8 -1 15 -7 15 -22 3 -45 18 -40 25 3 5
-1 15 -9 23 -8 8 -12 18 -8 22 4 5 -3 6 -14 3 -14 -4 -28 1 -38 14 -9 10 -22
16 -28 12 -7 -5 -9 -2 -6 8 6 16 -25 41 -55 43 -10 1 -23 8 -30 15 -9 10 -9
11 0 6 8 -5 11 -2 7 7 -2 7 -11 14 -19 14 -8 0 -12 -4 -9 -9 4 -5 -3 -4 -14 3
-12 7 -18 18 -15 24 4 5 3 7 -2 3 -4 -4 -15 -2 -23 5 -13 10 -14 9 -8 -2 6 -9
5 -12 -5 -9 -8 3 -13 11 -11 18 2 7 -3 10 -12 7 -8 -3 -17 -1 -20 6 -3 9 -5 8
-5 -1 -1 -7 -6 -10 -11 -7 -8 5 -8 11 -1 19 8 9 3 12 -19 10 -17 -1 -27 2 -24
7 3 5 10 7 15 4 5 -3 6 0 3 8 -2 7 -11 14 -19 14 -8 0 -12 -4 -10 -8 9 -13
-25 -3 -38 11 -10 12 -9 12 6 1 15 -12 17 -12 11 3 -7 18 -20 21 -29 5 -5 -7
-13 -5 -24 5 -10 9 -21 13 -26 9 -4 -5 -5 -3 -1 4 3 6 2 14 -4 18 -5 3 -10 2
-10 -2 0 -5 -9 -9 -19 -9 -11 0 -18 3 -16 6 2 3 -3 13 -10 23 -8 12 -15 14
-20 8 -3 -6 -11 -11 -16 -11 -6 0 -8 4 -4 9 3 5 0 13 -6 17 -7 4 -9 3 -5 -4 3
-6 2 -13 -3 -16 -5 -4 -13 3 -16 14 -6 18 -9 19 -23 8 -12 -10 -14 -10 -8 0 4
7 1 12 -9 12 -9 0 -14 4 -11 8 3 5 -1 9 -9 9 -8 0 -12 -3 -10 -7 2 -4 -2 -7
-10 -7 -8 0 -12 4 -9 9 3 4 2 8 -3 9 -4 0 -18 2 -30 3 -13 2 -23 -2 -23 -7 0
-5 -7 -4 -15 3 -12 10 -15 9 -15 -6 0 -15 -2 -16 -9 -5 -5 7 -14 10 -20 6 -7
-4 -18 -1 -26 5 -12 10 -13 8 -10 -10 3 -16 1 -19 -8 -11 -9 7 -17 7 -27 -1
-12 -8 -12 -9 3 -4 29 9 19 -2 -15 -17 -68 -29 -98 -36 -99 -24 0 7 -4 3 -9
-8 -5 -11 -9 -14 -9 -7 -1 7 -6 10 -11 7 -8 -5 -7 -12 2 -23 11 -14 11 -14 -7
-5 -15 9 -22 8 -33 -5 -12 -15 -13 -15 -7 3 6 19 5 18 -14 -2 -12 -12 -27 -20
-35 -17 -18 7 -30 -12 -15 -22 8 -5 9 -3 4 6 -5 9 -4 11 4 6 17 -11 3 -26 -24
-26 -13 0 -27 -5 -31 -11 -5 -8 -9 -8 -14 1 -5 8 -9 7 -13 -5 -4 -9 -3 -13 2
-10 5 3 12 1 15 -4 3 -5 -8 -7 -24 -6 -17 1 -30 -2 -30 -7 0 -5 -4 -6 -10 -3
-5 3 -10 -1 -10 -11 0 -13 -3 -14 -14 -5 -10 8 -16 9 -21 2 -3 -6 -16 -16 -28
-23 -21 -11 -21 -10 -7 8 14 18 14 18 -2 5 -10 -7 -18 -20 -18 -28 0 -13 -3
-13 -15 -3 -13 11 -14 10 -9 -4 4 -9 3 -16 -2 -15 -21 4 -45 -2 -40 -9 3 -5
-1 -9 -9 -9 -8 0 -12 4 -9 9 3 4 0 8 -5 8 -6 0 -11 -4 -11 -9 0 -5 -11 -8 -24
-7 -23 1 -23 2 -9 19 10 10 12 17 5 17 -7 0 -12 -5 -12 -11 0 -6 -7 -9 -15 -5
-8 3 -14 2 -14 -2 3 -19 -2 -25 -11 -12 -8 13 -10 13 -10 1 0 -11 -4 -10 -16
5 -8 10 -13 13 -9 7 3 -7 1 -13 -5 -13 -6 0 -8 -4 -5 -10 3 -6 -1 -7 -9 -4 -9
3 -13 11 -9 17 3 6 1 7 -5 3 -7 -4 -12 -14 -12 -22 0 -8 -5 -14 -11 -14 -6 0
-8 7 -5 16 4 10 2 13 -7 7 -15 -9 -35 -15 -63 -17 -13 0 -19 -6 -17 -13 4 -9
-4 -12 -26 -9 -21 2 -31 -1 -31 -10 0 -8 -5 -14 -11 -14 -5 0 -8 4 -4 9 3 5 1
13 -5 16 -6 4 -9 1 -8 -6 2 -7 -6 -14 -17 -15 -16 -1 -20 6 -21 30 -1 17 1 25
3 19 3 -7 10 -13 16 -13 5 0 8 3 4 6 -3 3 -1 12 6 19 9 10 14 9 25 -4 7 -9 11
-10 7 -3 -4 7 -1 19 5 27 10 12 17 12 34 3 19 -10 20 -9 8 5 -11 13 -10 15 5
12 10 -1 23 2 30 7 7 5 18 6 24 2 7 -4 9 -3 6 3 -4 6 1 19 9 29 12 14 14 15
11 3 -3 -9 1 -16 9 -16 7 0 11 4 8 9 -8 13 24 40 38 32 8 -5 9 -2 5 10 -5 13
-2 15 19 12 23 -4 24 -3 12 11 -7 10 -8 14 -1 10 6 -4 18 -4 27 -1 14 5 14 9
4 22 -12 14 -10 14 12 2 23 -12 24 -12 11 3 -12 15 -11 17 10 17 19 0 21 2 9
10 -13 8 -12 10 4 10 11 0 16 5 13 13 -3 8 4 13 22 12 16 0 25 5 24 12 -2 7 2
12 8 10 6 -1 14 4 17 12 3 9 0 11 -8 6 -8 -5 -11 -4 -6 3 4 6 14 8 23 5 11 -4
14 -3 9 5 -4 7 -2 12 5 12 8 0 8 4 -1 15 -11 13 -10 14 5 9 11 -5 16 -3 12 2
-3 6 3 16 13 24 10 8 16 18 13 24 -4 6 1 5 10 -2 9 -8 22 -12 29 -9 8 4 7 6
-4 6 -22 1 -24 21 -2 21 11 0 14 5 10 16 -5 14 -4 15 9 4 13 -11 14 -10 9 4
-4 10 -1 16 9 16 10 0 15 7 12 19 -3 14 1 18 11 14 8 -3 14 -2 13 3 -4 22 2
34 17 34 11 0 15 6 11 19 -4 15 0 18 19 16 13 -1 23 1 22 4 -2 21 4 31 15 25
7 -5 6 0 -3 11 -14 17 -13 18 2 12 13 -4 16 -1 13 14 -3 12 0 17 7 13 8 -5 9
-1 5 10 -5 11 -3 15 5 10 8 -5 9 -2 4 11 -6 16 -4 16 10 4 16 -13 16 -12 4 11
-12 22 -12 24 3 12 13 -11 15 -10 10 8 -4 14 -1 19 8 15 18 -6 42 42 25 49 -6
2 -1 5 12 5 12 1 22 6 22 12 0 5 -6 7 -12 3 -9 -5 -9 -2 1 9 7 9 10 17 5 17
-5 0 -1 5 9 11 9 5 17 22 17 37 0 21 2 24 10 12 5 -8 10 -10 10 -5 0 6 -6 17
-12 24 -8 9 -8 11 -2 8 7 -4 14 0 17 8 4 10 1 12 -11 9 -9 -2 -7 1 6 8 17 8
22 18 19 34 -3 19 -1 22 13 14 12 -6 17 -5 17 5 0 8 -4 12 -9 9 -4 -3 -8 -1
-8 5 0 5 5 13 10 16 7 4 7 12 0 25 -7 13 -5 21 6 31 12 10 12 14 2 20 -9 6 -6
9 10 9 21 0 22 1 8 16 -21 20 -20 25 2 17 15 -6 16 -5 2 12 -9 11 -10 16 -2
11 6 -4 12 -4 13 1 4 42 4 61 -2 58 -3 -2 -6 2 -6 10 0 8 5 11 10 8 6 -4 8 0
5 9 -4 8 0 15 8 15 7 0 11 -4 8 -9 -3 -4 0 -8 5 -8 6 0 11 6 11 14 0 8 5 18
12 22 7 4 8 3 4 -4 -4 -7 -3 -12 3 -12 5 0 12 4 15 8 6 10 36 9 53 -1 6 -4 14
-3 17 2 7 10 25 9 44 -2 12 -8 16 -2 13 17 -1 5 5 3 14 -4 13 -11 15 -10 9 6
-4 10 -4 16 1 12 4 -4 16 -3 27 3 16 9 17 13 6 27 -11 13 -11 14 1 7 11 -6 13
-4 7 10 -5 15 -4 16 8 6 11 -9 16 -9 22 0 4 7 3 10 -2 6 -5 -3 -14 5 -20 17
-8 17 -7 23 2 23 7 0 10 -5 7 -11 -3 -6 -2 -7 2 -3 16 14 14 37 -3 37 -15 1
-15 2 1 11 9 5 17 15 17 20 0 6 -6 7 -12 3 -10 -6 -10 -4 0 7 6 7 12 21 12 30
0 10 6 20 13 22 6 3 1 6 -13 7 l-25 1 23 10 c25 10 21 28 -6 30 -11 1 -8 4 8
9 14 4 18 8 9 9 -9 1 -16 8 -16 16 0 10 4 12 12 5 7 -6 11 -3 11 9 0 12 -6 17
-16 14 -11 -3 -10 -1 3 10 18 15 19 37 2 49 -6 5 -4 8 4 8 11 0 9 4 -5 14 -10
8 -16 18 -11 22 4 4 7 2 7 -4 0 -7 4 -12 9 -12 5 0 8 12 5 26 -3 19 -1 24 8
18 9 -5 8 -2 -2 10 -18 23 -24 66 -9 66 6 0 1 9 -12 21 -13 11 -18 18 -11 14
9 -4 12 6 12 37 0 33 -3 40 -11 28 -9 -12 -10 -11 -4 5 12 36 13 65 1 58 -6
-4 -5 1 3 10 12 15 11 17 -3 17 -10 0 -14 5 -11 10 4 6 12 7 18 4 9 -5 9 -4 0
6 -6 7 -9 19 -6 26 3 9 -2 14 -16 14 -23 0 -28 14 -9 26 7 5 8 3 3 -6 -6 -9
-4 -11 5 -5 10 6 9 11 -4 21 -16 11 -16 13 1 24 16 10 16 10 -4 5 -20 -5 -22
-3 -18 24 3 24 0 29 -13 24 -14 -6 -15 -4 -5 9 15 17 7 29 -13 21 -10 -4 -12
0 -8 13 4 11 3 15 -1 11 -5 -4 -15 3 -22 15 -7 13 -12 17 -13 10 0 -7 -5 -10
-10 -7 -6 4 -7 11 -4 17 4 7 0 7 -13 0 -16 -9 -19 -7 -20 10 -1 12 -8 25 -14
29 -10 6 -10 11 0 22 9 12 9 16 -1 21 -7 3 -2 3 11 0 15 -4 21 -2 17 4 -4 6 2
16 11 22 15 9 14 10 -7 5 -18 -5 -21 -4 -11 4 8 5 16 19 18 31 2 12 10 28 18
36 8 9 15 20 15 27 0 6 -6 2 -14 -8 -13 -19 -14 -18 -13 8 1 15 6 27 11 27 4
0 1 11 -7 24 -9 13 -13 27 -10 30 14 13 10 33 -5 32 -11 -1 -16 8 -17 32 0 18
-5 36 -11 40 -6 4 -17 18 -24 31 -10 19 -10 22 1 16 9 -6 11 -3 6 8 -4 10 -2
17 5 17 7 0 6 5 -2 15 -11 13 -10 14 6 8 17 -6 18 -5 4 12 -14 17 -13 18 3 12
15 -5 16 -4 7 13 -12 23 -13 33 -1 26 5 -3 11 1 15 9 3 8 0 15 -7 15 -8 0 -6
4 3 10 13 9 13 10 0 10 -13 0 -13 1 0 10 11 7 11 10 2 10 -7 0 -10 5 -7 10 4
6 10 8 15 5 4 -3 6 4 3 15 -3 11 -10 17 -16 13 -6 -4 -7 -1 -3 6 5 7 0 22 -11
34 -17 20 -17 21 0 8 16 -13 18 -12 13 12 -2 15 -8 32 -12 39 -5 8 0 7 11 -2
17 -14 18 -14 2 16 -9 17 -13 35 -9 39 4 5 1 5 -7 0 -10 -6 -12 3 -10 43 2 27
1 48 -2 46 -3 -1 -6 3 -6 10 0 8 7 12 16 9 13 -4 13 -3 2 5 -8 6 -12 19 -9 30
3 12 -1 31 -10 43 -14 21 -14 22 1 16 11 -4 17 2 22 24 4 16 12 29 18 29 7 0
6 4 -3 10 -9 6 -11 10 -3 10 7 0 10 7 6 17 -5 13 -2 15 12 10 15 -6 16 -5 5 8
-8 10 -9 15 -1 15 6 0 11 5 11 11 0 5 -4 8 -9 5 -5 -3 -11 1 -14 9 -4 10 -1
12 10 8 10 -4 14 -2 10 4 -4 6 -1 14 5 16 7 3 2 6 -12 6 -18 1 -21 4 -11 10
11 7 11 9 0 14 -9 3 -7 6 6 7 18 1 18 2 -3 10 -18 8 -21 14 -14 27 11 21 5 46
-9 37 -5 -3 -5 6 1 20 8 21 7 24 -7 19 -11 -4 -14 -3 -9 5 4 7 2 12 -4 12 -6
0 -8 5 -5 10 3 6 1 10 -4 10 -6 0 -10 6 -9 13 2 6 -3 11 -11 9 -11 -2 -12 0
-3 11 12 14 6 27 -12 27 -6 0 -4 -5 4 -10 13 -8 12 -10 -2 -10 -11 0 -18 8
-18 20 0 11 -5 20 -11 20 -5 0 -7 5 -4 10 3 6 1 10 -5 10 -7 0 -10 6 -7 14 4
10 0 12 -14 9 -10 -3 -19 0 -19 6 0 6 -10 11 -22 11 -13 0 -18 4 -13 8 14 10
17 32 5 32 -5 0 -10 -6 -11 -12 0 -7 -5 -3 -11 10 -6 12 -15 22 -20 22 -4 0
-8 5 -8 11 0 5 5 7 10 4 6 -3 10 -1 10 5 0 6 5 8 13 4 8 -5 8 -3 -2 9 -11 14
-11 18 3 23 18 7 22 25 5 22 -6 -2 -14 4 -16 12 -3 12 -2 12 5 2 7 -10 11 -10
21 2 9 10 9 16 1 21 -8 5 -6 14 7 28 10 11 12 17 5 13 -7 -4 -15 -1 -18 8 -3
9 -11 13 -17 9 -6 -4 -7 -1 -1 8 12 20 14 40 3 33 -5 -3 -6 -11 -2 -17 4 -7 0
-6 -10 2 -18 15 -23 26 -7 16 6 -3 10 1 10 10 0 12 -6 15 -22 11 -13 -3 -17
-3 -10 0 20 9 15 37 -5 29 -14 -5 -15 -4 -6 6 10 10 8 15 -10 24 -12 6 -21 17
-19 24 2 12 -20 40 -35 44 -4 1 -7 6 -5 11 2 5 -3 4 -11 -2 -11 -9 -18 -6 -35
13 -12 14 -18 25 -13 25 5 0 16 -10 25 -22 l17 -23 -11 22 c-6 13 -20 28 -31
34 -13 7 -19 7 -15 1 3 -6 2 -13 -4 -17 -5 -3 -10 1 -10 10 0 9 -4 13 -10 10
-5 -3 -10 -2 -10 2 0 5 -9 14 -20 20 -15 10 -18 10 -14 0 3 -9 -4 -13 -25 -11
-38 2 -54 13 -44 28 4 7 1 5 -7 -4 -8 -8 -24 -16 -35 -18 -20 -3 -20 -3 -1 11
15 11 16 16 6 22 -9 5 -11 4 -6 -3 4 -7 3 -12 -3 -12 -5 0 -12 6 -14 13 -4 9
-8 8 -17 -3 -10 -13 -11 -13 -7 0 2 8 0 23 -5 34 -6 11 -6 16 -1 13 5 -4 10 0
10 8 0 8 -4 12 -9 9 -4 -3 -8 4 -8 16 0 12 -4 18 -10 15 -5 -3 -10 1 -10 10 0
10 5 13 13 9 7 -4 9 -3 4 2 -5 5 -17 9 -28 9 -11 0 -25 11 -32 25 -7 14 -26
31 -44 39 -17 8 -34 22 -36 33 -4 12 -10 16 -23 11 -12 -5 -15 -3 -9 6 6 10 3
11 -15 1 -19 -10 -22 -10 -18 2 4 9 -1 14 -13 15 -11 1 -17 -2 -14 -7 3 -6 -1
-7 -9 -4 -9 3 -16 10 -16 14 0 4 -7 10 -14 13 -11 4 -13 1 -10 -11 5 -15 4
-15 -9 1 -16 20 -32 23 -21 5 4 -7 -1 -6 -12 3 -21 17 -32 18 -53 5 -10 -6
-16 -5 -19 2 -2 7 -8 12 -13 12 -6 0 -8 -4 -5 -8 7 -12 -38 -10 -46 2 -5 8 -8
7 -8 0 0 -7 -7 -14 -14 -17 -11 -4 -13 -1 -9 11 5 13 3 15 -7 5 -15 -14 -40 5
-40 31 0 9 -5 16 -11 16 -6 0 -8 7 -5 16 4 11 -1 18 -15 21 -16 4 -17 8 -7 14
9 6 7 9 -8 9 -17 0 -21 5 -17 28 3 23 2 24 -6 7 -9 -19 -10 -19 -10 4 -1 19
-4 21 -15 12 -12 -10 -14 -8 -12 12 2 14 -2 24 -10 24 -6 0 -10 -7 -7 -16 3
-12 2 -12 -7 2 -6 9 -8 23 -4 30 5 8 2 7 -9 -2 -14 -11 -17 -11 -17 0 0 11 -2
11 -10 -1 -8 -13 -10 -13 -10 1 0 19 -30 35 -30 16 0 -8 -4 -7 -10 3 -9 13
-11 13 -20 0 -8 -13 -10 -12 -10 4 0 16 -2 17 -17 5 -11 -10 -14 -10 -9 -1 4
6 3 12 -3 12 -5 0 -13 -4 -16 -10 -3 -5 -11 -10 -17 -10 -7 0 -7 4 0 13 8 9 5
12 -13 12 -12 0 -21 -5 -18 -10 2 -6 -6 -11 -18 -12 -15 -1 -19 2 -15 15 5 13
3 13 -9 -2 -10 -13 -15 -15 -15 -6 0 7 -3 10 -7 7 -3 -4 -11 -3 -17 3 -7 5
-17 5 -26 -2 -12 -8 -12 -9 3 -4 11 4 16 2 12 -5 -4 -6 -22 -8 -40 -6 -24 3
-32 1 -29 -8 5 -12 -30 -29 -55 -25 -8 1 -10 -3 -5 -12 6 -10 4 -10 -9 1 -9 7
-14 18 -10 25 4 6 -1 5 -10 -3 -14 -11 -18 -11 -23 3 -3 9 -10 13 -15 10 -5
-3 -9 0 -9 6 0 8 -6 8 -20 0 -16 -9 -18 -8 -14 5 5 13 2 14 -20 5 -19 -7 -25
-7 -20 1 4 7 -3 10 -17 9 -46 -4 -53 -1 -39 15 17 20 10 18 -19 -6z m989 -265
c0 -8 -19 -13 -24 -6 -3 5 1 9 9 9 8 0 15 -2 15 -3z m-2170 -90 c0 -8 -5 -12
-10 -9 -6 4 -8 11 -5 16 9 14 15 11 15 -7z m2430 -19 c7 -9 8 -15 2 -15 -5 0
-12 7 -16 15 -3 8 -4 15 -2 15 2 0 9 -7 16 -15z m-2865 -135 c-10 -11 -22 -20
-28 -20 -5 0 1 9 14 20 31 25 37 25 14 0z m3389 -361 c-3 -5 -10 -7 -15 -3 -5
3 -7 10 -3 15 3 5 10 7 15 3 5 -3 7 -10 3 -15z m1 -29 c3 -6 -1 -7 -9 -4 -18
7 -21 14 -7 14 6 0 13 -4 16 -10z m-4105 -580 c0 -5 -5 -10 -11 -10 -5 0 -7 5
-4 10 3 6 8 10 11 10 2 0 4 -4 4 -10z m7880 -240 c0 -5 -5 -10 -11 -10 -5 0
-7 5 -4 10 3 6 8 10 11 10 2 0 4 -4 4 -10z m-44 -232 c4 -7 4 -10 -1 -6 -4 4
-15 2 -24 -5 -14 -11 -14 -10 -2 6 16 20 18 21 27 5z m-1046 -182 c0 -2 -7 -7
-16 -10 -8 -3 -12 -2 -9 4 6 10 25 14 25 6z m-703 -51 c0 -8 -4 -12 -9 -9 -5
3 -6 10 -3 15 9 13 12 11 12 -6z m1093 -9 c0 -3 -4 -8 -10 -11 -5 -3 -10 -1
-10 4 0 6 5 11 10 11 6 0 10 -2 10 -4z m-7206 -37 c-3 -5 -10 -7 -15 -3 -5 3
-7 10 -3 15 3 5 10 7 15 3 5 -3 7 -10 3 -15z m26 -90 c15 -28 5 -23 -15 7 -9
15 -12 23 -6 20 6 -4 16 -16 21 -27z m7583 6 c-3 -9 -8 -14 -10 -11 -3 3 -2 9
2 15 9 16 15 13 8 -4z m-1376 -257 c-3 -8 -6 -5 -6 6 -1 11 2 17 5 13 3 -3 4
-12 1 -19z m-1946 -11 c-10 -9 -11 -8 -5 6 3 10 9 15 12 12 3 -3 0 -11 -7 -18z
m3969 -111 c0 -3 -4 -8 -10 -11 -5 -3 -10 -1 -10 4 0 6 5 11 10 11 6 0 10 -2
10 -4z m-463 -31 c0 -8 -7 -15 -14 -15 -8 0 -12 -3 -10 -7 3 -5 -6 -9 -20 -10
-16 0 -21 2 -14 7 7 4 12 10 12 14 -3 21 1 26 22 26 14 0 24 -6 24 -15z
m-3330 -90 c0 -8 -4 -12 -9 -9 -5 3 -6 10 -3 15 9 13 12 11 12 -6z m-2748 -35
c-6 -4 -9 -12 -5 -18 3 -6 8 -24 10 -40 2 -24 0 -29 -12 -24 -10 3 -13 1 -8
-6 4 -8 0 -12 -11 -12 -11 0 -25 -6 -32 -12 -7 -7 -12 -8 -11 -3 5 23 -1 36
-12 29 -9 -5 -9 -2 1 9 11 14 11 17 0 18 -10 0 -10 2 -2 5 7 3 9 12 6 20 -3 9
1 14 13 14 16 0 17 -2 4 -10 -8 -5 -10 -10 -4 -10 6 0 19 10 30 22 13 16 14
19 2 10 -10 -8 -18 -9 -22 -3 -4 6 -14 8 -24 5 -11 -4 -13 -3 -5 3 6 4 30 8
53 9 23 1 36 -2 29 -6z m4526 -240 c-3 -5 -1 -10 6 -10 7 0 10 -3 6 -6 -9 -9
-28 6 -22 17 4 5 8 9 11 9 3 0 2 -4 -1 -10z m1546 -263 c-10 -9 -11 -8 -5 6 3
10 9 15 12 12 3 -3 0 -11 -7 -18z m-7455 -2 c-8 -8 -18 -15 -22 -15 -3 0 -1 7
6 15 7 8 17 15 22 15 5 0 3 -7 -6 -15z m6864 -445 c0 -5 -5 -10 -11 -10 -5 0
-7 5 -4 10 3 6 8 10 11 10 2 0 4 -4 4 -10z m-6598 -357 c-6 -2 -9 -10 -6 -15
4 -7 2 -8 -5 -4 -13 9 -5 26 12 25 9 0 8 -2 -1 -6z m862 -405 c-3 -4 -11 -5
-19 -1 -21 7 -19 12 4 10 11 0 18 -5 15 -9z m158 -102 c7 4 8 2 4 -5 -9 -13
-26 -5 -25 12 0 9 2 8 6 -1 2 -6 10 -9 15 -6z m1761 -127 c-8 -8 -13 -7 -18 2
-5 8 -4 10 3 5 7 -4 12 -2 12 5 0 7 3 9 7 6 4 -4 2 -12 -4 -18z m1587 -50 c0
-6 -4 -7 -10 -4 -5 3 -10 11 -10 16 0 6 5 7 10 4 6 -3 10 -11 10 -16z m761
-616 c13 -16 12 -17 -3 -4 -10 7 -18 15 -18 17 0 8 8 3 21 -13z m-4149 -45
c-7 -7 -12 -8 -12 -2 0 6 3 14 7 17 3 4 9 5 12 2 2 -3 -1 -11 -7 -17z m4349
-55 c13 -16 12 -17 -3 -4 -10 7 -18 15 -18 17 0 8 8 3 21 -13z m1545 -126 c1
-9 -2 -15 -7 -11 -5 3 -7 9 -4 14 3 4 0 11 -5 13 -6 3 -5 4 1 3 7 -1 13 -10
15 -19z m-1016 -71 c0 -3 -4 -8 -10 -11 -5 -3 -10 -1 -10 4 0 6 5 11 10 11 6
0 10 -2 10 -4z m1035 -146 c3 -5 1 -10 -4 -10 -6 0 -11 5 -11 10 0 6 2 10 4
10 3 0 8 -4 11 -10z m-6409 -52 c4 -7 4 -10 -1 -6 -4 4 -15 2 -24 -5 -14 -11
-14 -10 -2 6 16 20 18 21 27 5z m5119 -8 c3 -5 1 -10 -4 -10 -6 0 -11 5 -11
10 0 6 2 10 4 10 3 0 8 -4 11 -10z m-5255 -80 c0 -5 -5 -10 -11 -10 -5 0 -7 5
-4 10 3 6 8 10 11 10 2 0 4 -4 4 -10z m-70 -53 c0 -2 -10 -12 -22 -23 l-23
-19 19 23 c18 21 26 27 26 19z m-245 -207 c-3 -5 -12 -10 -18 -10 -7 0 -6 4 3
10 19 12 23 12 15 0z m6945 -614 c0 -3 -4 -8 -10 -11 -5 -3 -10 -1 -10 4 0 6
5 11 10 11 6 0 10 -2 10 -4z m-2405 -65 c3 -5 2 -12 -3 -15 -5 -3 -9 1 -9 9 0
17 3 19 12 6z m825 -155 c0 -2 -8 -10 -17 -17 -16 -13 -17 -12 -4 4 13 16 21
21 21 13z m147 -111 c0 -8 -4 -12 -9 -9 -5 3 -6 10 -3 15 9 13 12 11 12 -6z
m335 -243 c-10 -3 -10 -7 0 -20 10 -14 10 -15 -2 -5 -20 18 -22 43 -2 35 11
-4 12 -7 4 -10z m202 -138 c5 -14 4 -15 -9 -4 -17 14 -19 20 -6 20 5 0 12 -7
15 -16z m-6353 -1107 c-10 -9 -11 -8 -5 6 3 10 9 15 12 12 3 -3 0 -11 -7 -18z"/>
<path d="M9660 6350 c-9 -6 -10 -10 -3 -10 6 0 15 5 18 10 8 12 4 12 -15 0z"/>
<path d="M3590 6190 c-9 -6 -10 -10 -3 -10 6 0 15 5 18 10 8 12 4 12 -15 0z"/>
<path d="M3553 6165 c0 -8 4 -12 9 -9 4 3 8 9 8 15 0 5 -4 9 -8 9 -5 0 -9 -7
-9 -15z"/>
<path d="M3565 6140 c-3 -6 1 -7 9 -4 18 7 21 14 7 14 -6 0 -13 -4 -16 -10z"/>
<path d="M5468 8748 c5 -5 16 -8 23 -6 8 3 3 7 -10 11 -17 4 -21 3 -13 -5z"/>
<path d="M2675 8640 c-3 -5 -1 -10 4 -10 6 0 11 5 11 10 0 6 -2 10 -4 10 -3 0
-8 -4 -11 -10z"/>
<path d="M2566 8525 c-11 -8 -15 -15 -9 -15 6 0 16 7 23 15 16 19 11 19 -14 0z"/>
<path d="M5947 8379 c7 -7 15 -10 18 -7 3 3 -2 9 -12 12 -14 6 -15 5 -6 -5z"/>
<path d="M6020 8116 c0 -2 7 -7 16 -10 8 -3 12 -2 9 4 -6 10 -25 14 -25 6z"/>
<path d="M2100 7949 c0 -5 5 -7 10 -4 6 3 10 8 10 11 0 2 -4 4 -10 4 -5 0 -10
-5 -10 -11z"/>
<path d="M1899 7523 c-13 -17 -13 -17 6 -3 11 8 22 16 24 17 2 2 0 3 -6 3 -6
0 -17 -8 -24 -17z"/>
<path d="M9410 7419 c0 -5 5 -7 10 -4 6 3 10 8 10 11 0 2 -4 4 -10 4 -5 0 -10
-5 -10 -11z"/>
<path d="M9376 7368 c3 -5 10 -6 15 -3 13 9 11 12 -6 12 -8 0 -12 -4 -9 -9z"/>
<path d="M1900 7301 c0 -6 4 -13 10 -16 6 -3 7 1 4 9 -7 18 -14 21 -14 7z"/>
<path d="M9726 7222 c-3 -5 1 -9 9 -9 8 0 15 4 15 9 0 4 -4 8 -9 8 -6 0 -12
-4 -15 -8z"/>
<path d="M9665 7120 c-3 -5 -1 -10 4 -10 6 0 11 5 11 10 0 6 -2 10 -4 10 -3 0
-8 -4 -11 -10z"/>
<path d="M9090 6915 c-11 -13 -10 -14 4 -9 9 3 16 10 16 15 0 13 -6 11 -20 -6z"/>
<path d="M9465 6720 c-3 -5 -2 -10 4 -10 5 0 13 5 16 10 3 6 2 10 -4 10 -5 0
-13 -4 -16 -10z"/>
<path d="M10355 6680 c-3 -5 -1 -10 4 -10 6 0 11 5 11 10 0 6 -2 10 -4 10 -3
0 -8 -4 -11 -10z"/>
<path d="M9426 6668 c3 -5 10 -6 15 -3 13 9 11 12 -6 12 -8 0 -12 -4 -9 -9z"/>
<path d="M2009 6563 c-13 -16 -12 -17 4 -4 16 13 21 21 13 21 -2 0 -10 -8 -17
-17z"/>
<path d="M9756 6448 c3 -5 10 -6 15 -3 13 9 11 12 -6 12 -8 0 -12 -4 -9 -9z"/>
<path d="M10075 6300 c-3 -5 -1 -10 4 -10 6 0 11 5 11 10 0 6 -2 10 -4 10 -3
0 -8 -4 -11 -10z"/>
<path d="M2030 6276 c0 -2 7 -7 16 -10 8 -3 12 -2 9 4 -6 10 -25 14 -25 6z"/>
<path d="M9890 6055 c-11 -13 -10 -14 4 -9 9 3 16 10 16 15 0 13 -6 11 -20 -6z"/>
<path d="M6055 5260 c3 -5 8 -10 11 -10 2 0 4 5 4 10 0 6 -5 10 -11 10 -5 0
-7 -4 -4 -10z"/>
<path d="M2293 5205 c0 -8 4 -12 9 -9 5 3 6 10 3 15 -9 13 -12 11 -12 -6z"/>
<path d="M5215 4250 c-3 -5 -1 -10 4 -10 6 0 11 5 11 10 0 6 -2 10 -4 10 -3 0
-8 -4 -11 -10z"/>
<path d="M7015 4130 c3 -5 8 -10 11 -10 2 0 4 5 4 10 0 6 -5 10 -11 10 -5 0
-7 -4 -4 -10z"/>
<path d="M3780 4120 c-9 -6 -10 -10 -3 -10 6 0 15 5 18 10 8 12 4 12 -15 0z"/>
<path d="M3775 4089 c-10 -15 3 -25 16 -12 7 7 7 13 1 17 -6 3 -14 1 -17 -5z"/>
<path d="M9310 3896 c0 -2 8 -10 18 -17 15 -13 16 -12 3 4 -13 16 -21 21 -21
13z"/>
<path d="M3650 3679 c0 -5 5 -7 10 -4 6 3 10 8 10 11 0 2 -4 4 -10 4 -5 0 -10
-5 -10 -11z"/>
<path d="M3590 3660 c0 -5 5 -10 11 -10 5 0 7 5 4 10 -3 6 -8 10 -11 10 -2 0
-4 -4 -4 -10z"/>
<path d="M3364 3516 c-10 -8 -16 -17 -13 -20 3 -3 14 3 24 14 21 23 17 26 -11
6z"/>
<path d="M3214 3384 c-18 -14 -18 -15 4 -4 12 6 22 13 22 15 0 8 -5 6 -26 -11z"/>
<path d="M8354 3009 c-4 -7 -3 -9 4 -5 5 3 13 0 15 -6 4 -9 6 -10 6 -1 1 17
-16 25 -25 12z"/>
<path d="M8356 2867 c3 -10 9 -15 12 -12 3 3 0 11 -7 18 -10 9 -11 8 -5 -6z"/>
<path d="M9207 1373 c-4 -3 -7 -11 -7 -17 0 -6 5 -5 12 2 6 6 9 14 7 17 -3 3
-9 2 -12 -2z"/>
<path d="M2180 859 c0 -5 5 -7 10 -4 6 3 10 8 10 11 0 2 -4 4 -10 4 -5 0 -10
-5 -10 -11z"/>
<path d="M2190 526 c0 -2 7 -7 16 -10 8 -3 12 -2 9 4 -6 10 -25 14 -25 6z"/>
<path d="M6826 393 c-4 -9 -1 -21 5 -27 9 -8 10 -7 4 3 -4 7 -2 16 5 21 8 5 8
10 2 14 -5 3 -13 -2 -16 -11z"/>
<path d="M6839 288 c-4 -12 -5 -57 0 -53 6 6 10 55 4 55 -1 0 -3 -1 -4 -2z"/>
</g>
</svg>
