<?xml version="1.0" standalone="no"?>
<!DOCTYPE svg PUBLIC "-//W3C//DTD SVG 20010904//EN"
 "http://www.w3.org/TR/2001/REC-SVG-20010904/DTD/svg10.dtd">
<svg version="1.0" xmlns="http://www.w3.org/2000/svg"
 width="1080.000000pt" height="1080.000000pt" viewBox="0 0 1080.000000 1080.000000"
 preserveAspectRatio="xMidYMid meet">
<metadata>
Created by potrace 1.14, written by Peter Selinger 2001-2017
</metadata>
<g transform="translate(0.000000,1080.000000) scale(0.100000,-0.100000)"
fill="#000000" stroke="none">
<path d="M7416 10103 c-3 -7 -13 -13 -21 -13 -9 0 -13 -4 -10 -10 3 -5 2 -10
-4 -10 -14 0 -91 -76 -91 -90 0 -5 -4 -10 -9 -10 -5 0 -36 -27 -70 -60 -34
-33 -59 -60 -55 -60 5 0 -6 -10 -22 -22 -44 -33 -64 -55 -57 -62 4 -3 1 -6 -5
-6 -15 0 -390 -378 -418 -421 -29 -47 -53 -121 -57 -179 -5 -62 18 -162 49
-218 30 -54 363 -390 414 -418 19 -10 37 -21 40 -24 3 -3 10 -6 16 -7 6 -1 24
-5 40 -9 38 -8 156 -12 169 -5 6 3 21 7 35 9 14 1 32 5 40 9 8 3 18 5 23 5 4
-1 7 2 7 7 0 10 39 27 53 23 5 -1 6 2 3 7 -4 5 3 12 14 16 11 3 20 13 20 21 0
8 3 13 8 11 4 -2 15 4 25 15 9 10 14 18 10 18 -5 0 6 9 22 20 17 11 27 20 24
20 -4 0 17 24 46 53 50 49 86 107 66 107 -5 0 -7 8 -5 18 5 20 -28 62 -53 67
-10 1 -22 5 -28 6 -16 5 -75 -19 -75 -30 0 -6 -7 -11 -16 -11 -8 0 -13 -3 -11
-7 2 -5 -6 -18 -19 -31 -13 -12 -24 -21 -24 -18 0 2 -28 -24 -62 -59 -35 -35
-79 -69 -98 -77 -51 -21 -132 -15 -172 13 -56 40 -329 322 -349 361 -43 84
-16 172 82 265 24 23 93 91 153 152 86 87 117 113 150 122 100 28 144 9 272
-116 110 -107 135 -124 179 -118 36 4 79 48 72 74 -3 11 -1 19 3 19 25 0 -15
54 -115 153 -129 129 -150 147 -170 147 -8 0 -15 5 -15 10 0 6 -8 10 -17 10
-10 0 -24 4 -32 9 -11 7 -1 23 47 70 34 34 62 66 62 72 0 5 3 8 8 6 9 -4 46
35 50 54 10 40 10 53 0 73 -15 28 -34 46 -42 39 -3 -4 -6 -2 -6 4 0 16 -68 22
-74 6z"/>
<path d="M1480 9933 c0 -5 -16 -7 -35 -5 -19 2 -42 -1 -49 -7 -10 -9 -16 -9
-21 -1 -5 8 -11 8 -20 0 -8 -7 -19 -9 -25 -5 -5 3 -10 2 -10 -3 0 -5 -6 -9
-12 -9 -7 0 -38 -11 -68 -25 -79 -36 -97 -43 -132 -51 -7 -1 -17 -5 -23 -8 -5
-4 -17 -5 -26 -4 -20 3 -111 -46 -117 -62 -2 -8 5 -13 17 -13 23 0 30 -27 34
-127 1 -35 5 -63 8 -63 3 0 5 -12 5 -27 -1 -16 2 -40 6 -55 4 -19 3 -28 -5
-28 -9 0 -9 -2 0 -8 7 -4 15 -40 18 -81 3 -40 8 -77 11 -82 3 -5 -1 -9 -8 -9
-11 0 -10 -2 0 -9 11 -7 10 -10 -3 -15 -24 -9 -24 -9 -19 24 3 17 1 30 -3 30
-5 0 -9 10 -10 23 -1 12 -4 33 -7 47 -15 58 -23 110 -18 115 3 3 0 5 -7 5 -7
0 -11 7 -8 15 4 8 2 17 -4 21 -6 3 -8 12 -5 20 3 8 2 14 -2 14 -5 0 -14 16
-22 35 -7 19 -17 32 -22 29 -4 -3 -8 4 -8 14 0 11 -6 22 -14 25 -10 4 -13 0
-11 -14 2 -11 0 -31 -5 -45 -7 -18 -7 -23 1 -18 8 5 8 1 0 -14 -7 -14 -8 -29
-2 -45 6 -14 7 -27 5 -30 -3 -3 -1 -13 5 -24 15 -29 24 -57 22 -70 -1 -7 2
-13 7 -13 5 0 15 -25 22 -55 7 -30 17 -55 22 -55 5 0 7 -4 4 -8 -3 -5 2 -21
10 -37 8 -16 12 -35 10 -42 -3 -7 -2 -13 2 -13 4 0 8 -12 7 -27 0 -16 5 -37
12 -49 7 -11 10 -24 6 -27 -3 -4 -1 -7 5 -7 7 0 12 -8 12 -19 0 -10 7 -35 15
-55 8 -20 12 -36 8 -36 -4 0 -2 -5 5 -12 7 -7 12 -20 12 -30 0 -10 5 -18 11
-18 5 0 8 -4 4 -9 -3 -6 3 -14 12 -20 10 -6 14 -11 9 -11 -5 0 1 -11 14 -25
13 -14 20 -25 15 -25 -4 0 2 -9 15 -20 13 -11 20 -20 15 -20 -4 0 -2 -7 5 -15
7 -8 9 -15 6 -15 -4 0 -2 -9 4 -20 7 -14 7 -20 0 -20 -5 0 -10 6 -10 13 0 8
-3 7 -10 -3 -5 -9 -5 -19 2 -27 8 -10 7 -12 -5 -7 -12 4 -15 1 -12 -14 2 -14
-3 -22 -17 -26 -19 -4 -20 -7 -7 -22 8 -10 9 -15 3 -11 -7 4 -15 0 -18 -9 -4
-10 -13 -14 -22 -10 -11 4 -14 1 -10 -12 5 -14 -1 -17 -35 -18 -24 0 -46 -6
-53 -15 -6 -7 -20 -16 -31 -17 -11 -2 -21 -8 -23 -13 -2 -5 -10 -9 -18 -9 -35
0 -97 -51 -101 -84 -3 -19 3 -26 28 -35 17 -6 28 -14 26 -18 -3 -5 9 -9 26
-10 17 -1 33 -7 36 -12 3 -5 27 -19 54 -31 26 -12 47 -27 47 -32 0 -5 10 -8
23 -7 12 2 28 -1 36 -5 10 -6 12 -5 7 2 -4 7 -2 12 3 12 16 0 13 -16 -5 -35
-14 -13 -14 -19 -4 -28 10 -9 11 -9 6 1 -10 17 -1 15 14 -4 11 -12 11 -15 0
-12 -7 2 -15 -3 -17 -10 -3 -7 1 -11 7 -10 7 2 14 -6 15 -17 2 -11 6 -41 9
-66 10 -69 60 -111 147 -124 76 -11 186 26 210 72 7 13 17 23 22 23 5 0 16 8
23 17 11 16 13 15 25 -12 26 -57 95 -95 184 -100 52 -3 72 0 113 21 52 26 90
79 78 110 -3 8 -1 14 4 14 6 0 9 3 8 8 -2 4 1 9 6 12 5 3 11 -5 12 -17 2 -13
-1 -23 -7 -23 -8 0 -8 -4 -2 -12 5 -7 8 -25 7 -40 -2 -15 2 -30 8 -34 7 -4 6
-9 -3 -14 -9 -6 -10 -12 -1 -22 6 -8 7 -19 2 -28 -5 -8 -6 -19 -2 -25 4 -5 8
-21 9 -35 2 -14 5 -38 8 -55 3 -16 5 -34 6 -40 0 -5 5 -16 11 -22 8 -9 7 -13
-3 -13 -12 0 -12 -2 0 -9 7 -5 10 -14 7 -20 -4 -6 -2 -11 3 -11 6 0 11 -12 11
-26 0 -14 4 -23 9 -19 6 3 8 -4 6 -15 -2 -11 0 -20 4 -20 5 0 8 -6 8 -12 -2
-12 26 -114 40 -148 7 -17 12 -37 17 -65 2 -11 8 -33 15 -48 6 -16 11 -32 11
-37 0 -5 5 -21 11 -37 15 -37 19 -70 21 -171 1 -47 5 -77 9 -70 5 7 9 8 9 2 0
-5 -5 -15 -12 -22 -9 -9 -9 -12 1 -12 11 0 11 -3 0 -17 -12 -15 -12 -16 5 -9
20 7 20 7 0 -15 -10 -12 -13 -19 -6 -15 8 5 11 1 9 -13 -2 -11 -6 -24 -10 -27
-14 -14 -7 -26 8 -14 9 7 18 10 22 6 3 -3 1 -6 -5 -6 -13 0 -12 -27 1 -47 5
-9 3 -11 -6 -7 -15 5 -17 -30 -2 -43 4 -5 5 -2 0 6 -6 10 -4 12 4 7 9 -6 9
-11 -1 -24 -10 -12 -10 -14 -1 -8 8 4 13 1 13 -9 0 -10 5 -14 13 -9 9 6 9 4
-1 -7 -18 -20 -15 -33 6 -18 9 7 14 9 10 5 -5 -5 1 -15 12 -23 11 -8 20 -20
20 -27 0 -7 12 -23 27 -37 14 -13 23 -19 19 -12 -3 6 -1 15 6 19 7 4 10 4 6
-1 -4 -4 -1 -20 7 -34 8 -16 10 -33 5 -41 -4 -7 -6 -20 -3 -29 4 -11 0 -9 -10
4 -16 20 -16 19 -10 -4 4 -16 2 -22 -4 -18 -6 4 -14 0 -17 -9 -3 -8 -2 -12 4
-9 5 3 8 -4 7 -15 -1 -12 -7 -18 -14 -16 -8 3 -10 -1 -6 -11 5 -12 3 -14 -7
-8 -8 5 -11 4 -6 -3 4 -6 12 -9 20 -6 17 7 17 -27 -1 -48 -13 -14 -12 -17 2
-25 9 -5 18 -21 19 -36 2 -15 0 -25 -4 -22 -4 2 -7 -2 -7 -10 0 -8 4 -12 8 -9
4 2 10 0 14 -6 4 -6 12 -7 18 -3 7 4 5 -2 -3 -12 -9 -11 -10 -16 -2 -11 8 4
12 1 12 -9 0 -10 6 -15 13 -12 8 3 14 -1 14 -8 0 -7 -7 -11 -16 -9 -9 2 1 -4
21 -14 21 -10 41 -22 45 -27 5 -4 3 -5 -3 -2 -6 3 -11 0 -11 -8 0 -10 6 -11
24 -4 12 4 22 5 21 1 -3 -16 15 -41 26 -35 6 4 4 -2 -4 -12 -9 -11 -10 -16 -2
-11 8 5 12 0 12 -14 0 -14 -4 -19 -12 -15 -7 4 -4 -1 6 -9 11 -9 15 -16 10
-16 -6 0 -11 -6 -11 -14 0 -9 6 -12 16 -8 14 5 14 3 2 -11 -9 -11 -10 -17 -2
-17 6 0 11 -11 11 -24 0 -13 6 -27 13 -29 9 -4 9 -6 -1 -6 -10 -1 -10 -5 2
-16 8 -9 13 -22 10 -30 -4 -9 0 -15 9 -15 8 0 17 6 20 13 2 6 4 -3 5 -22 0
-18 6 -39 13 -45 9 -8 10 -8 4 3 -5 9 -4 12 2 8 5 -3 9 -16 8 -29 -1 -16 -7
-22 -20 -20 -16 3 -17 2 -6 -12 12 -14 11 -16 -3 -10 -11 4 -16 1 -16 -11 0
-9 -4 -14 -9 -11 -5 3 -8 -7 -7 -23 2 -23 -2 -28 -15 -26 -12 3 -16 -1 -12
-11 3 -7 10 -11 17 -8 6 3 4 0 -4 -8 -9 -7 -14 -21 -12 -32 2 -10 -2 -22 -10
-27 -10 -6 -10 -9 0 -9 6 0 12 -5 12 -11 0 -5 -5 -7 -12 -3 -7 5 -8 3 -2 -7
14 -23 15 -49 1 -50 -6 0 -3 -4 8 -9 11 -5 15 -9 9 -9 -13 -1 -10 -57 5 -75 7
-9 7 -16 0 -23 -8 -8 -7 -13 2 -18 8 -6 10 -4 4 5 -5 8 -4 11 2 7 6 -4 9 -20
7 -37 -2 -19 1 -30 9 -30 8 0 7 -4 -3 -10 -12 -8 -12 -10 -1 -10 8 0 11 -7 8
-20 -4 -15 0 -20 14 -20 17 0 18 -3 8 -21 -6 -12 -7 -19 -1 -15 5 3 15 0 21
-8 9 -11 9 -15 -1 -20 -10 -5 -10 -7 -1 -12 7 -3 9 -12 6 -21 -4 -10 -2 -14 5
-9 6 3 13 2 17 -4 3 -5 0 -10 -7 -10 -9 -1 -7 -5 4 -14 10 -7 15 -16 11 -19
-3 -4 -1 -7 6 -7 7 0 9 -4 6 -10 -3 -5 -1 -10 5 -10 6 0 8 -5 5 -10 -3 -6 1
-13 9 -16 12 -5 13 -10 5 -26 -6 -11 -7 -18 -2 -15 15 9 55 -23 49 -39 -3 -8
1 -14 11 -14 13 0 14 -2 2 -17 -10 -11 -10 -14 -1 -9 7 4 12 2 12 -4 0 -6 5
-8 13 -4 8 5 8 2 -2 -9 -12 -15 -11 -17 3 -17 10 0 14 -4 11 -10 -3 -5 1 -10
10 -10 9 0 13 -4 10 -10 -3 -6 1 -10 10 -10 9 0 13 -5 10 -10 -4 -6 -3 -10 2
-9 20 3 33 -2 30 -13 -1 -7 4 -12 11 -10 8 1 11 -1 8 -6 -2 -4 -1 -14 5 -22 5
-8 9 -10 9 -4 0 6 7 11 15 11 11 0 12 -3 3 -14 -9 -11 -7 -12 14 -4 14 5 31 5
38 1 8 -5 18 -6 22 -3 5 2 16 -1 25 -9 12 -9 15 -9 9 0 -4 6 -2 12 3 12 21 0
26 2 39 12 6 6 12 7 12 2 0 -5 5 -1 11 9 10 17 12 17 36 2 14 -10 23 -13 19
-7 -3 5 1 13 10 16 8 3 12 2 9 -4 -3 -6 -2 -10 4 -10 5 0 12 6 14 13 3 6 6 3
6 -8 1 -15 4 -17 10 -7 6 11 11 10 25 -3 9 -9 16 -12 16 -6 0 6 5 11 11 11 6
0 9 -6 6 -13 -3 -8 1 -14 9 -14 7 0 11 4 8 8 -2 4 0 11 6 14 6 4 10 3 9 -2 -1
-4 -1 -15 0 -23 1 -12 3 -13 10 -1 7 11 10 10 15 -5 3 -11 17 -24 31 -31 14
-6 23 -7 19 -2 -10 16 13 9 27 -8 9 -11 10 -14 2 -9 -9 5 -11 2 -7 -8 3 -9 11
-13 17 -9 7 4 8 -1 4 -13 -7 -18 -6 -18 9 1 16 20 16 20 11 -3 -3 -12 -2 -20
2 -18 4 3 19 -1 33 -8 20 -11 29 -11 39 -2 11 9 11 8 0 -6 -7 -9 -21 -15 -32
-13 -10 2 -19 1 -19 -3 0 -6 -49 -8 -57 -2 -4 2 -72 2 -75 0 -8 -5 -48 -6 -48
-1 0 4 -17 5 -37 4 -21 -2 -52 -4 -68 -4 l-31 -1 0 -139 c-1 -130 0 -138 16
-124 9 8 20 12 23 8 4 -3 7 -1 7 5 0 26 115 41 132 17 5 -6 8 -5 8 3 0 9 8 8
33 -4 57 -29 71 -46 103 -129 8 -22 15 -380 8 -407 -4 -13 -16 -18 -42 -18
-82 0 -77 -11 -74 191 2 137 0 185 -10 197 -10 12 -10 14 0 8 22 -13 -9 42
-32 57 -35 23 -105 13 -135 -19 -14 -16 -25 -32 -24 -36 2 -5 -1 -8 -5 -8 -5
0 -9 -76 -9 -170 -1 -93 -2 -181 -2 -195 -1 -24 -4 -25 -56 -25 l-55 0 -1 118
c0 64 0 241 0 393 1 236 -2 278 -14 283 -8 3 -15 2 -15 -2 0 -9 -58 -7 -67 1
-3 3 -15 2 -28 -3 -14 -5 -26 -5 -34 3 -8 8 -11 8 -11 -2 0 -7 -6 -11 -12 -8
-7 2 -21 -8 -30 -22 -16 -24 -18 -66 -18 -492 0 -572 -18 -518 172 -520 32 0
62 2 67 6 5 3 12 1 16 -4 4 -7 15 -7 30 -1 14 5 25 6 25 2 0 -5 19 -6 43 -4
23 2 50 4 60 3 19 -1 40 -1 90 -1 17 0 53 0 79 -1 26 0 52 2 57 5 5 4 12 2 16
-4 4 -7 12 -7 25 0 11 6 21 6 24 1 3 -5 21 -5 40 -1 18 4 41 3 50 -2 11 -6 16
-5 16 3 0 8 4 8 13 1 17 -14 53 2 68 29 8 17 12 133 13 425 1 339 3 405 16
416 12 11 12 11 1 -5 -15 -19 -2 -24 17 -5 9 9 11 6 7 -11 -4 -20 -2 -21 12
-9 12 9 15 9 9 1 -4 -7 -2 -13 3 -13 6 0 11 -8 11 -17 0 -15 2 -16 10 -3 9 13
10 13 10 0 0 -13 1 -13 10 0 8 13 10 12 10 -2 0 -10 7 -18 16 -18 9 0 12 5 8
13 -4 7 -3 9 2 4 5 -5 9 -14 9 -20 1 -7 7 -11 14 -9 7 1 10 -2 6 -8 -5 -8 -12
-7 -23 2 -15 12 -16 11 -3 -5 9 -11 22 -16 33 -13 15 3 17 2 8 -9 -9 -10 -7
-13 7 -10 10 1 24 -2 31 -8 8 -6 12 -5 12 4 1 8 8 1 16 -16 8 -16 12 -21 9
-10 -5 19 -5 20 10 1 12 -16 17 -17 32 -5 14 11 14 9 -2 -10 l-20 -24 24 13
c18 9 22 9 16 0 -6 -9 0 -11 23 -8 24 3 29 1 22 -7 -8 -9 -2 -16 20 -25 17 -7
28 -15 26 -18 -10 -9 15 -43 26 -36 7 4 8 3 4 -5 -4 -6 -13 -8 -19 -4 -7 4 -5
-2 3 -12 14 -17 13 -18 -2 -12 -12 4 -15 2 -11 -8 3 -8 10 -12 17 -8 7 4 7 2
-1 -8 -10 -12 -10 -18 0 -29 9 -10 9 -11 0 -6 -7 4 -13 2 -13 -5 0 -6 8 -9 20
-6 11 3 18 1 14 -4 -3 -5 -13 -9 -22 -10 -11 0 -12 -3 -4 -6 6 -2 12 -9 12
-14 0 -6 -4 -8 -8 -5 -13 8 -8 -36 8 -64 12 -22 11 -24 -2 -13 -12 10 -15 10
-15 -2 0 -8 4 -15 9 -15 4 0 8 -7 8 -15 0 -8 -5 -15 -11 -15 -5 0 -7 -5 -4
-10 4 -6 10 -8 15 -5 5 3 11 1 14 -4 4 -5 -5 -8 -19 -6 -19 2 -23 -1 -15 -10
8 -9 7 -15 -2 -18 -7 -3 -8 -6 -2 -6 14 -1 5 -61 -10 -61 -7 0 -7 -3 1 -8 7
-4 10 -17 6 -30 -3 -12 -10 -19 -16 -15 -5 3 -7 1 -4 -5 9 -13 -2 -44 -13 -37
-4 2 -5 -7 -2 -20 3 -18 0 -25 -12 -25 -10 0 -13 -5 -9 -17 5 -12 2 -15 -10
-10 -12 4 -17 1 -18 -11 0 -14 -2 -14 -9 3 -7 18 -9 18 -15 3 -4 -9 -13 -14
-21 -11 -9 3 -14 0 -12 -8 2 -8 -3 -13 -9 -12 -7 2 -13 -2 -13 -8 0 -5 -5 -7
-11 -4 -6 4 -8 14 -5 24 5 13 3 12 -8 -3 -9 -10 -20 -15 -27 -10 -8 5 -10 3
-4 -6 6 -10 4 -12 -10 -6 -16 6 -16 4 -4 -10 13 -16 12 -16 -10 -4 -22 11 -23
10 -17 -5 5 -15 4 -16 -9 -5 -12 10 -15 10 -15 -3 0 -10 -6 -14 -15 -11 -8 4
-15 1 -15 -5 0 -6 -7 -11 -16 -11 -9 0 -12 -5 -8 -12 5 -8 0 -9 -15 -5 -17 4
-20 3 -12 -7 8 -9 4 -16 -14 -26 -14 -7 -25 -17 -25 -22 0 -5 -16 -16 -35 -24
-19 -8 -35 -21 -35 -30 0 -10 -5 -14 -16 -10 -8 3 -12 2 -9 -3 3 -5 -4 -12
-15 -16 -11 -3 -20 -14 -20 -23 0 -9 -5 -24 -11 -32 -8 -12 -9 -9 -5 10 5 18
1 15 -11 -10 -10 -19 -22 -38 -27 -41 -4 -4 -2 -9 5 -12 10 -4 10 -6 2 -6 -7
-1 -13 -10 -13 -20 0 -12 -11 -23 -30 -30 -18 -6 -30 -17 -30 -28 0 -15 -2
-16 -10 -3 -8 13 -10 12 -10 -3 0 -10 -4 -15 -10 -12 -5 3 -10 0 -10 -7 0 -9
-3 -9 -10 2 -8 13 -10 12 -10 -2 0 -10 -7 -18 -15 -18 -9 0 -12 -6 -8 -17 4
-10 2 -14 -4 -10 -6 4 -19 -1 -29 -10 -9 -9 -24 -18 -32 -19 -8 -2 -20 -8 -26
-15 -8 -9 -8 -10 3 -4 10 6 12 4 7 -4 -5 -7 -14 -10 -21 -7 -12 4 -30 -19 -27
-35 1 -3 -10 -4 -23 -1 -18 3 -25 0 -25 -12 0 -10 -5 -13 -17 -9 -11 4 -14 3
-9 -5 6 -11 -5 -16 -26 -13 -4 0 -5 -5 -2 -13 3 -8 0 -17 -7 -22 -8 -4 -10 -3
-5 4 4 7 3 12 -1 12 -5 0 -13 -10 -18 -23 -6 -12 -19 -22 -30 -22 -11 0 -20
-5 -20 -12 0 -6 -4 -15 -9 -20 -5 -5 -6 -3 -2 5 11 18 -2 14 -24 -8 -12 -12
-25 -18 -30 -15 -5 3 -7 0 -4 -8 3 -8 0 -18 -7 -23 -8 -5 -10 -3 -4 7 8 12 6
12 -8 0 -9 -7 -14 -18 -10 -25 4 -6 -2 -4 -12 4 -10 8 -16 11 -13 5 7 -12 -17
-36 -28 -27 -4 4 -4 -1 -1 -11 4 -11 3 -16 -3 -12 -6 4 -25 -8 -42 -27 -17
-18 -28 -27 -23 -19 5 9 4 12 -3 7 -6 -3 -9 -16 -7 -27 3 -15 0 -19 -10 -15
-9 3 -12 -1 -10 -15 2 -10 -1 -19 -6 -19 -6 0 -7 -4 -4 -10 3 -6 -1 -7 -9 -4
-11 4 -16 0 -16 -10 0 -9 -6 -16 -12 -16 -9 0 -8 -4 2 -10 12 -8 12 -10 -5
-11 -17 0 -17 -1 -3 -7 14 -6 14 -10 4 -24 -7 -10 -17 -14 -21 -10 -5 4 -6 -1
-2 -10 3 -10 -1 -19 -11 -23 -14 -5 -14 -7 -2 -15 13 -9 13 -10 0 -11 -8 -1
-18 -1 -21 -1 -3 1 -6 -6 -6 -13 0 -10 4 -11 11 -6 7 6 11 2 11 -14 0 -13 -2
-23 -5 -23 -19 1 -23 -4 -10 -12 10 -6 11 -10 3 -10 -7 0 -13 -7 -13 -16 0 -9
-5 -12 -12 -8 -10 6 -10 4 0 -7 14 -15 16 -33 3 -25 -5 4 -8 -5 -6 -19 1 -14
-1 -25 -6 -25 -5 0 -5 -7 -2 -17 4 -10 2 -14 -4 -10 -6 4 -9 -9 -8 -33 1 -31
-2 -40 -14 -40 -10 0 -12 -3 -5 -8 15 -10 14 -44 -1 -38 -8 3 -10 -4 -7 -20 2
-13 -2 -32 -9 -41 -12 -15 -12 -16 3 -10 12 4 15 2 12 -8 -3 -8 -10 -13 -14
-12 -4 1 -8 -2 -8 -8 0 -5 5 -9 11 -7 7 2 6 -2 -1 -11 -7 -8 -8 -18 -4 -22 4
-5 -1 -5 -11 -2 -11 4 -16 3 -12 -3 3 -6 1 -10 -6 -10 -7 0 -5 -6 6 -13 12
-10 14 -16 7 -21 -16 -10 -15 -43 1 -49 6 -3 2 -6 -10 -6 -13 -1 -23 -6 -23
-12 0 -5 4 -8 8 -5 4 2 8 -6 8 -19 0 -13 -4 -22 -8 -19 -4 3 -6 -9 -4 -25 2
-18 -1 -31 -8 -31 -7 0 -7 -3 1 -8 10 -6 9 -14 -2 -35 -7 -15 -10 -29 -5 -32
12 -7 8 -45 -5 -45 -5 0 -3 -5 5 -11 12 -9 11 -10 -7 -6 -19 4 -20 2 -10 -13
6 -10 15 -17 19 -14 4 3 5 -2 2 -10 -3 -9 -11 -13 -18 -10 -6 3 -2 -2 8 -10
14 -12 16 -16 5 -16 -9 0 -14 -11 -14 -29 -1 -16 2 -28 5 -26 10 6 5 -33 -5
-42 -4 -5 -5 -2 -1 4 4 7 2 13 -3 13 -15 0 -14 -6 7 -37 9 -15 11 -24 5 -20
-7 5 -13 4 -13 -2 0 -6 6 -11 13 -11 8 0 8 -3 -2 -9 -13 -8 -13 -12 0 -27 11
-14 11 -16 0 -10 -10 7 -12 3 -6 -13 4 -14 2 -21 -7 -21 -8 0 -9 -3 -3 -8 15
-11 16 -124 2 -115 -7 4 -6 -1 2 -11 13 -15 13 -19 0 -27 -8 -5 -9 -9 -4 -9 6
0 11 -27 11 -60 1 -42 -2 -58 -10 -53 -6 4 -5 -1 3 -11 13 -15 13 -19 0 -27
-8 -5 -9 -9 -3 -9 15 0 5 -253 -11 -280 -4 -6 -11 -7 -17 -4 -7 4 -8 2 -4 -5
4 -6 12 -9 17 -5 6 3 5 -3 -2 -14 -7 -12 -17 -18 -23 -15 -5 4 -6 1 0 -8 13
-22 14 -42 3 -74 -8 -24 -6 -32 6 -41 14 -10 14 -12 -2 -19 -17 -7 -17 -8 2
-15 11 -5 14 -9 8 -9 -7 -1 -13 -6 -13 -12 0 -5 4 -8 9 -4 5 3 12 1 16 -5 3
-5 1 -10 -4 -10 -7 0 -7 -7 1 -20 7 -11 19 -20 26 -20 7 0 10 -4 7 -10 -3 -5
-1 -10 4 -10 6 0 11 -10 10 -23 0 -12 2 -34 4 -49 2 -17 0 -28 -7 -28 -6 0 -4
-5 4 -10 9 -6 11 -10 3 -10 -7 0 -10 -7 -7 -15 4 -9 0 -15 -7 -15 -11 0 -11
-2 -1 -8 7 -5 10 -16 6 -26 -4 -10 -10 -13 -13 -8 -5 8 -6 -215 -2 -300 1 -17
117 -18 2297 -18 1666 0 2293 3 2288 11 -4 8 0 8 15 0 17 -9 21 -9 19 1 -2 7
2 12 7 11 13 -2 14 41 2 53 -4 5 -5 1 -2 -8 4 -9 2 -18 -3 -22 -12 -7 -8 34 5
42 16 11 12 44 -5 37 -12 -4 -13 -3 -2 10 7 8 8 15 3 15 -15 0 -10 54 6 68 9
8 10 11 4 7 -15 -7 -18 21 -3 30 16 10 2 24 -20 20 -12 -2 -18 0 -15 6 4 5 14
9 23 9 14 0 15 2 2 9 -8 6 -17 8 -20 6 -4 -2 -7 2 -7 10 0 8 5 11 10 8 6 -4 8
0 4 10 -4 10 -2 17 5 17 7 0 6 5 -2 15 -6 8 -9 19 -5 25 4 6 1 17 -5 25 -9 11
-10 15 -1 15 8 0 9 5 2 17 -6 12 -5 21 7 31 10 7 12 11 6 8 -7 -3 -14 1 -18 9
-3 8 -1 15 4 15 6 0 6 10 0 26 -12 31 -12 37 -2 30 7 -4 8 27 2 44 -1 3 -1 20
0 39 1 24 -2 31 -11 26 -8 -5 -10 -4 -5 4 6 9 11 9 23 -1 8 -6 22 -13 30 -14
8 -2 24 -11 36 -21 14 -12 18 -13 12 -3 -6 11 -3 10 12 -3 11 -9 27 -17 36
-17 9 0 17 -4 17 -9 0 -6 9 -8 20 -6 11 2 20 0 20 -6 0 -12 23 -11 57 3 15 6
30 12 33 12 17 4 76 31 81 39 3 4 13 9 21 11 9 1 22 7 29 12 8 6 29 17 47 25
17 8 32 18 32 22 0 5 4 5 10 2 6 -3 10 -1 10 4 0 6 7 11 15 11 8 0 15 4 15 9
0 5 12 12 27 16 15 3 30 10 33 14 3 5 37 28 75 52 39 23 72 46 75 49 3 3 20
16 38 29 40 28 50 46 59 113 9 63 10 503 1 570 -8 60 -20 81 -66 115 -20 15
-38 31 -40 36 -2 4 -10 7 -18 7 -8 0 -14 5 -14 10 0 6 -7 10 -15 10 -8 0 -15
4 -15 9 0 5 -8 11 -17 15 -10 3 -31 15 -48 26 -16 11 -49 30 -72 42 -24 12
-43 26 -43 31 0 4 -4 6 -10 2 -5 -3 -18 3 -30 15 -11 11 -20 17 -20 14 0 -4
-6 -1 -13 5 -8 6 -17 8 -20 4 -4 -3 -7 -1 -7 5 0 7 -9 12 -19 12 -11 0 -21 4
-23 8 -1 4 -25 19 -53 31 -62 30 -135 33 -163 8 -15 -14 -21 -15 -25 -5 -4 9
-6 9 -6 1 -1 -7 -28 -24 -61 -39 -33 -15 -60 -31 -60 -37 0 -6 -3 -7 -6 -4 -7
7 -59 -19 -82 -40 -12 -12 -42 -8 -42 6 0 4 5 12 12 19 9 9 9 12 0 12 -8 0 -9
7 -2 24 5 14 5 27 0 32 -5 5 -11 31 -12 57 -2 26 -7 47 -13 47 -5 0 -3 5 5 10
8 5 10 10 3 10 -6 0 -10 13 -9 29 1 17 -2 27 -8 24 -5 -4 -7 1 -3 11 4 10 3
26 -3 36 -7 14 -3 25 21 51 17 19 28 28 24 22 -4 -8 0 -13 10 -13 9 0 14 4 11
9 -3 5 5 11 19 13 17 4 25 1 25 -9 0 -8 4 -12 9 -9 5 3 12 -6 15 -19 4 -14 11
-23 16 -20 6 3 10 -1 10 -10 0 -11 5 -15 15 -11 8 3 14 2 13 -2 -4 -10 50 -61
56 -54 3 3 6 -6 6 -19 0 -17 3 -20 9 -11 7 11 9 11 14 -2 3 -8 15 -15 26 -15
12 -1 30 -1 41 -2 11 0 20 -6 20 -12 0 -8 3 -8 8 -2 11 15 32 17 32 3 0 -6 6
-4 13 7 11 14 16 15 22 5 6 -9 4 -11 -5 -5 -9 6 -11 4 -5 -5 6 -10 11 -9 21 4
7 10 18 15 23 11 6 -3 15 4 20 17 6 13 10 17 10 10 1 -7 6 -10 11 -7 6 4 7 12
3 18 -3 7 4 3 18 -8 15 -13 19 -14 11 -3 -15 19 -4 29 26 23 22 -4 26 13 7 28
-6 5 2 7 17 4 19 -3 25 0 21 10 -3 7 2 13 11 13 10 0 13 6 10 15 -4 10 0 15
15 15 12 0 21 5 21 11 0 5 5 7 12 3 7 -4 8 -3 4 4 -3 6 3 16 15 22 12 7 19 8
16 2 -4 -5 4 -7 17 -5 13 3 27 -1 31 -8 6 -8 4 -10 -5 -4 -9 6 -11 4 -6 -4 5
-7 14 -10 22 -7 8 3 14 1 14 -5 0 -6 7 -8 16 -5 10 4 13 2 8 -6 -5 -8 -1 -9
12 -4 10 4 15 4 11 0 -8 -9 11 -34 27 -34 6 0 4 5 -4 11 -13 9 -13 10 0 6 8
-2 14 -11 12 -20 -2 -11 3 -15 19 -12 18 4 19 2 7 -12 -9 -12 -9 -15 0 -9 7 4
12 2 12 -6 0 -9 3 -9 10 2 8 12 10 12 10 1 0 -17 29 -40 51 -41 20 0 61 -39
54 -51 -4 -5 1 -9 10 -9 9 0 14 4 11 8 -3 5 1 9 8 9 8 0 11 -8 8 -19 -3 -13 1
-18 19 -18 12 0 19 -3 16 -6 -9 -9 33 -45 44 -38 11 6 39 -20 39 -36 0 -6 4
-8 10 -5 5 3 10 2 10 -2 0 -5 14 -17 31 -27 18 -11 29 -14 25 -8 -3 6 -1 14 5
18 7 4 9 3 6 -2 -8 -13 45 -72 61 -67 6 3 12 -2 12 -11 0 -9 5 -16 11 -16 5 0
7 -5 3 -12 -4 -6 -3 -8 3 -5 6 4 16 0 23 -9 7 -8 19 -13 27 -10 7 3 13 1 13
-5 0 -6 10 -8 23 -4 12 3 18 3 12 -2 -5 -4 -11 -14 -13 -22 -3 -12 0 -12 13
-1 13 11 14 10 8 -6 -6 -17 -5 -17 10 -5 15 12 17 12 12 -1 -4 -11 3 -17 24
-21 18 -4 31 -13 31 -22 0 -8 6 -15 14 -15 7 0 16 -10 19 -22 5 -18 8 -19 21
-9 13 11 17 10 22 -3 3 -9 10 -13 15 -10 5 3 9 -2 9 -11 0 -10 6 -15 13 -13
17 6 50 -29 34 -36 -7 -3 -2 -3 10 -1 12 3 25 0 29 -6 5 -8 3 -9 -6 -4 -9 6
-11 4 -6 -4 5 -7 14 -10 22 -7 8 3 14 0 14 -7 0 -8 4 -6 10 3 5 8 10 10 10 4
0 -6 9 -21 19 -33 14 -16 21 -18 24 -9 4 10 6 10 6 1 1 -7 8 -13 17 -13 8 0
13 -4 10 -9 -3 -5 6 -9 20 -9 14 1 33 -7 42 -16 15 -15 15 -18 2 -26 -8 -5
-10 -10 -5 -10 6 0 17 6 24 13 7 6 12 8 11 2 -5 -24 1 -33 20 -28 12 3 20 0
20 -6 0 -7 4 -10 9 -7 5 3 14 -1 21 -10 7 -8 20 -12 27 -9 8 3 22 -2 30 -11 9
-8 24 -13 34 -11 11 3 22 0 26 -5 4 -7 1 -8 -7 -3 -9 6 -11 4 -5 -4 4 -7 18
-11 30 -9 17 4 22 1 18 -9 -4 -9 0 -11 13 -6 11 4 15 3 11 -4 -5 -7 6 -10 29
-7 21 2 46 -3 60 -13 13 -8 24 -11 24 -7 0 5 32 7 70 4 39 -3 70 -2 70 3 0 4
4 6 9 2 5 -3 12 -1 16 5 3 5 15 10 25 10 10 0 25 6 32 13 7 8 18 12 25 10 6
-2 17 5 23 16 6 12 16 21 23 21 7 0 23 14 37 30 14 17 30 30 37 30 19 0 36 37
20 43 -7 3 -5 6 5 6 9 1 20 6 24 13 5 7 2 9 -7 4 -8 -4 -4 1 9 10 22 17 32 41
10 28 -7 -4 -8 -3 -4 5 4 6 11 9 16 6 5 -3 11 -1 15 5 3 5 2 10 -3 10 -6 0 -8
9 -5 20 3 11 10 17 15 14 6 -4 7 2 3 17 -7 23 -7 24 8 4 16 -20 16 -19 10 4
-3 13 -2 22 3 19 10 -7 12 47 2 57 -4 4 0 17 8 29 8 13 11 26 7 29 -3 4 0 7 8
7 12 0 11 2 -1 10 -9 6 -11 13 -5 17 14 11 16 46 2 55 -9 6 -9 8 0 8 13 0 12
18 -1 39 -6 10 -5 12 2 7 7 -4 12 -4 13 1 0 4 2 17 4 28 2 10 -1 25 -7 32 -7
9 -7 13 0 13 5 0 8 10 4 22 -4 16 -2 19 9 13 12 -7 12 -6 0 9 -16 19 -22 106
-8 106 4 0 5 -5 1 -12 -5 -7 -3 -8 5 -4 10 6 9 12 -1 24 -8 11 -13 44 -13 89
1 39 -3 69 -8 66 -5 -3 -4 4 3 16 9 17 9 26 -1 37 -9 11 -9 14 1 14 9 0 9 4
-1 17 -10 11 -10 14 -1 9 16 -9 16 6 0 23 -11 11 -10 12 2 6 13 -8 13 -7 1 8
-7 9 -10 17 -5 17 5 0 9 13 9 29 0 16 -2 28 -5 26 -3 -2 -11 3 -18 11 -10 11
-10 14 0 14 10 0 12 12 10 41 -3 28 -7 37 -13 28 -6 -9 -9 -10 -9 -2 0 6 4 14
9 17 10 7 9 31 -2 42 -4 4 -2 13 4 21 9 10 8 13 -2 13 -11 0 -11 2 1 10 11 7
11 10 2 10 -10 0 -10 5 -2 20 6 11 7 20 1 20 -5 0 -12 7 -15 16 -3 8 -2 13 3
10 5 -3 12 1 15 10 3 8 2 13 -2 10 -4 -2 -14 -1 -22 5 -13 7 -12 9 2 9 12 0
15 5 11 16 -3 8 -12 13 -19 10 -8 -3 -14 -1 -14 4 0 6 7 10 16 10 8 0 13 4 9
9 -3 5 -1 12 5 16 5 3 10 11 10 17 0 5 -8 0 -18 -12 -17 -21 -18 -21 -18 -2 0
11 4 18 8 16 4 -3 8 -2 9 3 0 4 2 16 4 26 2 9 -1 15 -6 11 -5 -3 -6 -11 -3
-17 4 -7 3 -9 -1 -5 -14 13 -15 59 -2 51 7 -3 3 4 -7 16 -19 21 -19 21 -1 15
14 -6 16 -4 9 7 -4 8 -7 23 -6 34 2 17 1 18 -8 5 -10 -12 -11 -11 -5 5 12 33
16 92 5 75 -5 -8 -6 -18 -3 -24 3 -5 2 -6 -4 -3 -6 4 -7 24 -3 51 4 25 3 51
-3 58 -6 9 -7 7 -2 -7 5 -16 4 -17 -6 -8 -8 8 -9 16 -2 25 10 15 11 28 1 43
-4 6 -3 17 3 25 11 19 12 33 1 26 -5 -3 -9 1 -9 9 0 8 4 15 9 15 4 0 8 5 8 11
0 5 -4 8 -9 5 -5 -3 -12 1 -15 9 -3 9 1 18 11 22 13 5 12 8 -7 15 -22 8 -22 9
-4 29 16 17 16 19 1 13 -20 -7 -23 6 -5 24 9 9 9 12 0 12 -10 0 -10 5 -2 20 6
11 7 20 1 20 -5 0 -12 7 -15 16 -5 14 -4 15 9 4 14 -11 15 -10 7 11 -5 13 -9
36 -8 50 1 20 -3 25 -14 22 -11 -4 -11 -1 3 10 17 14 24 33 9 23 -4 -2 -14 -1
-22 5 -12 7 -12 9 4 9 16 0 17 2 5 17 -12 15 -12 16 1 8 13 -7 13 -6 2 7 -10
13 -10 17 0 21 11 4 10 6 0 6 -7 1 -10 6 -7 11 3 6 1 10 -6 10 -7 0 -4 7 7 16
10 8 14 13 8 10 -16 -8 -25 19 -11 33 8 8 7 11 -6 11 -11 0 -14 5 -10 17 4 10
2 14 -4 10 -5 -3 -10 0 -10 8 0 8 4 12 9 9 4 -3 8 4 8 16 0 12 -4 19 -9 15 -5
-3 -13 0 -17 6 -4 7 -3 9 3 6 6 -4 13 2 16 13 4 14 0 20 -11 21 -11 0 -12 2
-4 6 6 2 12 12 12 21 -1 18 -24 54 -31 47 -8 -7 -3 60 5 73 4 7 2 12 -3 12 -7
0 -10 17 -8 41 2 28 -1 43 -10 46 -11 4 -10 8 4 19 10 8 14 14 8 13 -22 -3
-27 2 -15 16 10 12 10 15 0 15 -7 0 -10 6 -7 14 3 7 0 19 -6 25 -7 7 -8 11 0
11 12 0 7 70 -7 84 -5 5 -5 19 1 33 5 15 5 22 0 18 -6 -3 -10 3 -10 12 0 10
-1 44 -2 76 0 31 -5 57 -11 57 -5 0 -6 -5 -2 -12 5 -7 3 -8 -5 -4 -9 6 -9 12
3 25 13 14 13 19 -4 40 -17 24 -17 56 1 45 5 -3 6 2 3 10 -3 9 -11 13 -18 9
-6 -4 -5 1 3 10 9 11 10 17 2 17 -15 0 -14 33 2 49 6 8 7 11 2 8 -6 -3 -17 -2
-25 4 -13 7 -13 9 -1 9 12 0 11 3 -2 13 -15 11 -15 15 -3 39 10 20 11 25 2 22
-8 -3 -12 4 -12 18 1 14 -4 22 -12 20 -8 -1 -11 2 -7 7 3 6 11 9 18 7 7 -1 9
-1 4 1 -4 3 -4 10 -1 15 4 7 2 8 -5 4 -8 -5 -11 3 -11 26 1 72 0 81 -12 96 -7
9 -8 13 -3 10 6 -4 11 2 11 13 0 21 -12 26 -18 7 -2 -6 -3 28 -1 76 3 66 0 92
-13 111 -17 26 -10 50 12 41 8 -3 14 -1 14 5 0 6 6 9 14 6 8 -3 17 -1 19 6 3
9 9 8 22 -3 10 -8 16 -10 12 -3 -9 14 27 28 44 17 7 -4 9 -3 6 3 -3 5 7 19 23
31 20 15 31 18 36 10 5 -8 10 -7 18 3 6 8 19 15 29 16 34 1 38 3 32 12 -3 5
-1 12 5 16 5 3 10 1 10 -4 0 -6 5 -11 11 -11 5 0 7 5 4 10 -3 6 -1 10 6 10 19
0 81 69 73 81 -4 7 2 6 17 -1 13 -7 21 -9 17 -5 -11 11 12 36 25 28 5 -3 7 -1
3 5 -3 6 0 17 8 25 8 8 12 17 9 21 -4 3 -1 6 5 6 6 0 9 9 7 21 -4 17 -2 19 11
8 12 -10 13 -9 8 5 -4 11 -2 16 7 14 8 -2 13 2 12 9 -1 6 4 17 13 23 12 11 14
10 9 -6 -3 -12 -1 -10 7 4 9 19 9 25 -3 34 -11 8 -11 9 4 4 9 -3 17 -1 17 5 0
6 6 7 13 3 7 -5 6 0 -3 11 -12 15 -12 17 -1 10 11 -6 13 -4 8 8 -4 11 -2 14 9
10 10 -4 15 0 14 8 -4 26 0 39 11 39 8 0 7 -6 -2 -17 -13 -16 -12 -17 3 -4 10
7 15 17 12 23 -3 5 0 16 7 24 10 12 9 13 -7 8 -18 -5 -18 -5 -1 6 9 6 15 15
12 21 -4 5 -2 9 4 9 5 0 12 -6 14 -12 3 -8 6 -7 6 4 1 9 6 20 13 24 6 4 8 3 4
-4 -3 -6 -2 -13 3 -16 11 -7 9 13 -2 32 -5 7 -2 14 8 18 12 5 13 9 4 20 -10
12 -9 13 5 8 11 -4 16 -2 14 7 -2 8 2 13 8 12 7 -1 10 6 7 16 -3 14 0 19 14
18 11 -1 17 4 15 12 -5 23 7 61 19 61 7 0 8 -5 3 -13 -5 -7 -1 -4 10 8 10 11
22 19 26 18 4 -1 6 9 5 22 -2 13 4 30 13 37 16 12 16 11 2 -7 -14 -19 -14 -19
2 -6 10 7 16 17 13 21 -8 13 5 38 23 45 13 5 12 1 -3 -17 -11 -13 -2 -7 19 12
20 19 42 44 47 55 7 14 4 12 -10 -5 -11 -14 -21 -20 -20 -15 0 17 25 45 40 45
11 0 11 2 -1 10 -13 8 -12 10 3 10 10 0 20 8 24 18 9 26 34 52 44 46 5 -3 6 3
2 12 -5 13 -3 16 10 11 11 -4 14 -2 10 9 -3 7 0 14 7 14 8 0 10 8 7 21 -5 17
-3 18 9 8 8 -7 14 -8 13 -3 -4 21 2 35 11 29 6 -3 10 1 10 10 0 10 -5 14 -12
9 -10 -5 -10 -4 -2 6 7 6 23 13 37 13 14 1 22 6 19 12 -12 19 -10 34 4 28 8
-3 14 0 14 6 0 6 -6 11 -12 11 -9 0 -8 3 2 9 8 6 17 8 21 5 4 -2 11 1 15 7 5
8 2 10 -7 5 -8 -4 -6 -1 5 8 10 8 15 20 11 25 -3 6 1 14 10 17 13 6 14 8 3 15
-10 7 -8 9 6 9 11 0 17 3 13 6 -3 4 4 15 16 25 22 18 22 18 2 34 -11 9 -15 14
-8 11 6 -4 14 -2 18 4 3 5 1 10 -5 10 -7 0 -8 6 -1 18 7 14 6 19 -4 19 -8 0
-11 -5 -8 -10 3 -6 1 -7 -6 -3 -9 6 -9 11 0 22 10 12 9 13 -7 7 -16 -6 -17 -5
-6 9 10 13 10 18 1 24 -8 4 -9 3 -5 -4 4 -7 2 -12 -3 -12 -6 0 -11 8 -11 18 0
14 -2 15 -10 2 -8 -12 -10 -11 -10 8 0 16 -6 22 -22 22 -19 0 -20 2 -8 11 12
8 11 9 -6 4 -14 -3 -24 0 -27 8 -6 17 -57 11 -57 -7 0 -6 -7 -3 -14 6 -12 17
-26 15 -26 -4 0 -5 5 -6 12 -2 6 4 8 3 4 -4 -3 -6 -15 -9 -26 -7 -12 2 -24 -4
-30 -16 -7 -11 -16 -17 -23 -12 -7 4 -6 0 2 -10 12 -15 12 -17 -3 -11 -9 4
-16 2 -14 -4 2 -5 -1 -10 -7 -10 -5 0 -12 -9 -16 -19 -3 -10 -12 -18 -20 -18
-8 0 -14 -10 -14 -23 0 -26 -28 -47 -48 -36 -7 5 -6 0 3 -11 14 -17 13 -18 -3
-12 -11 4 -16 3 -12 -3 3 -6 1 -10 -6 -10 -8 0 -8 -4 1 -15 11 -13 10 -14 -4
-9 -10 4 -18 0 -22 -10 -3 -9 -10 -14 -14 -11 -5 3 -12 0 -16 -6 -4 -7 -3 -9
2 -6 6 3 16 2 24 -4 12 -7 10 -9 -7 -9 -13 0 -23 -5 -23 -11 0 -5 5 -7 12 -3
6 4 8 3 5 -4 -4 -5 -17 -8 -28 -5 -19 5 -20 4 -10 -15 10 -18 9 -20 -8 -17
-15 3 -18 0 -14 -12 5 -13 2 -15 -13 -10 -18 7 -18 6 1 -9 20 -16 20 -16 -3
-11 -23 6 -24 5 -5 -15 10 -12 13 -18 6 -15 -6 4 -15 2 -18 -4 -4 -5 -14 -8
-22 -4 -14 5 -14 3 -2 -12 9 -11 10 -14 2 -9 -12 6 -18 -9 -15 -35 1 -4 -6 -6
-16 -5 -11 1 -17 -6 -16 -21 0 -12 -2 -21 -5 -21 -15 3 -40 -15 -35 -24 4 -6
-2 -7 -16 -3 -15 5 -20 4 -16 -4 5 -7 1 -8 -9 -4 -12 4 -13 8 -5 13 6 4 11 11
10 16 -1 4 7 11 17 15 10 4 14 8 10 8 -4 1 -2 7 5 15 7 8 18 11 23 8 6 -3 5 1
-2 9 -9 11 -7 19 7 37 10 12 24 22 30 22 7 0 10 8 7 20 -6 23 8 36 19 19 5 -8
3 -9 -6 -4 -9 5 -11 4 -6 -4 12 -19 27 -2 16 19 -8 16 -7 18 4 14 16 -6 41 30
31 46 -4 6 1 7 12 3 15 -6 16 -4 5 9 -10 13 -9 18 5 29 16 13 17 12 4 -3 -8
-11 -9 -18 -3 -18 14 0 25 37 16 51 -5 8 -3 9 6 4 10 -6 12 -4 6 10 -5 14 -4
16 7 6 12 -9 14 -7 13 11 -1 18 4 22 18 20 18 -3 18 -2 5 14 -12 15 -12 16 0
9 11 -6 13 -4 7 10 -5 15 -4 16 8 6 13 -11 15 -9 11 8 -3 14 1 21 12 21 12 0
13 3 4 14 -9 11 -9 16 0 22 8 4 9 3 5 -4 -4 -7 -2 -12 5 -12 6 0 9 8 6 20 -3
11 -1 18 4 14 5 -3 9 2 9 11 0 9 4 14 9 11 10 -7 24 22 16 34 -2 4 4 15 15 25
11 10 17 21 15 25 -3 5 4 6 14 3 14 -3 19 0 18 14 -1 10 4 17 11 15 10 -2 10
2 2 18 -6 11 -7 20 -3 19 19 -3 33 2 33 12 0 5 -6 7 -12 4 -7 -4 -5 0 6 9 10
8 15 20 10 27 -4 8 -3 10 4 5 7 -4 12 -2 12 3 0 6 3 10 8 10 19 -3 25 2 12 11
-13 9 -13 10 0 10 13 0 13 1 0 10 -12 8 -10 10 9 10 16 0 21 4 18 14 -3 8 1
17 9 20 8 3 14 11 14 18 0 9 -3 9 -11 -2 -9 -13 -10 -13 -6 0 2 8 12 14 21 13
12 -1 15 4 12 14 -7 18 12 45 25 37 5 -3 6 2 3 10 -4 11 0 16 10 16 9 0 15 3
15 8 -1 4 0 9 1 12 1 3 3 22 5 43 2 26 0 35 -8 30 -7 -4 -6 1 2 10 11 14 11
17 0 17 -11 0 -11 2 1 10 13 8 12 10 -3 10 -11 0 -15 4 -11 12 5 8 2 9 -10 5
-11 -5 -15 -3 -10 5 5 8 2 9 -10 5 -9 -4 -14 -3 -11 2 3 5 1 12 -5 16 -5 3
-10 11 -10 16 0 6 5 7 12 3 7 -4 8 -3 4 4 -4 6 -13 9 -21 5 -10 -3 -15 1 -15
12 0 13 -6 16 -26 12 -16 -3 -28 0 -31 9 -4 12 -8 12 -21 2 -11 -9 -14 -9 -9
-1 12 19 -33 6 -48 -14 -11 -15 -15 -16 -31 -3 -16 14 -17 13 -11 -4 7 -17 6
-17 -10 -5 -11 9 -14 10 -9 2 4 -8 2 -13 -4 -13 -6 0 -9 -4 -6 -9 3 -5 -5 -16
-19 -25 -14 -9 -25 -22 -25 -28 0 -7 6 -4 13 7 11 14 16 15 22 5 5 -8 4 -11
-3 -6 -6 3 -13 -3 -17 -14 -5 -16 -10 -18 -19 -10 -10 8 -13 5 -11 -13 2 -20
-1 -24 -21 -21 -13 1 -22 -1 -19 -6 2 -4 -2 -22 -11 -39 -8 -17 -13 -35 -9
-41 3 -5 -1 -10 -10 -10 -12 0 -15 -5 -11 -16 5 -12 2 -15 -12 -12 -11 3 -19
0 -19 -8 0 -7 4 -11 9 -8 4 3 5 -2 2 -10 -3 -8 -12 -12 -20 -9 -8 3 -14 0 -14
-6 0 -6 6 -11 13 -11 6 0 4 -5 -6 -11 -9 -5 -23 -7 -30 -3 -8 5 -7 2 2 -9 9
-12 10 -17 2 -17 -7 0 -9 -4 -6 -10 3 -5 -1 -10 -9 -10 -8 0 -18 -5 -22 -12
-4 -7 -3 -8 4 -4 17 10 15 -10 -3 -27 -8 -8 -11 -18 -7 -23 4 -5 -2 -2 -12 6
-11 8 -17 10 -13 3 9 -14 -2 -43 -15 -43 -6 0 -6 6 1 14 9 11 9 16 0 22 -7 4
-9 3 -5 -4 3 -6 2 -13 -4 -17 -6 -4 -7 -11 -4 -17 5 -8 1 -9 -11 -4 -15 5 -16
4 -5 -9 8 -10 9 -15 1 -15 -6 0 -11 -7 -11 -16 0 -9 -5 -12 -12 -8 -6 4 -8 3
-4 -4 3 -6 -1 -18 -10 -26 -10 -11 -11 -16 -3 -16 7 0 9 -3 5 -7 -4 -5 -13 -8
-19 -8 -7 0 -13 -8 -15 -19 -3 -13 0 -16 9 -11 8 5 10 4 5 -3 -4 -7 -15 -12
-24 -12 -15 0 -15 -2 -2 -10 12 -8 10 -10 -8 -10 -13 0 -20 -4 -17 -10 3 -5 1
-10 -6 -10 -8 0 -7 -5 2 -17 13 -15 12 -15 -10 -4 -13 7 -21 8 -17 3 3 -6 2
-13 -4 -17 -5 -3 -10 -12 -10 -18 0 -7 4 -6 10 3 7 10 10 11 10 2 0 -7 -7 -15
-15 -18 -8 -4 -12 -11 -9 -16 4 -6 -5 -2 -20 7 -23 16 -25 20 -13 34 8 9 12
22 10 29 -3 8 1 10 12 6 9 -4 15 -3 14 2 -4 22 2 44 12 44 5 0 7 -5 3 -12 -4
-6 -3 -8 3 -5 6 4 8 19 5 33 -4 23 -2 26 14 21 18 -7 18 -6 -1 9 -19 16 -19
16 8 12 23 -5 25 -3 15 10 -11 14 -10 15 7 8 11 -4 16 -4 12 0 -4 4 0 18 9 32
9 13 11 22 6 18 -6 -3 -4 7 4 24 10 18 20 27 27 23 7 -4 5 2 -3 12 -12 15 -12
17 -1 10 11 -6 13 -4 8 8 -4 11 -2 14 8 11 10 -4 13 0 10 15 -4 22 25 46 41
33 5 -4 2 1 -6 11 -10 14 -10 17 -1 15 7 -2 21 13 32 32 10 19 27 41 37 49 16
13 16 13 0 8 -14 -5 -18 -1 -17 16 0 12 3 16 6 10 2 -7 9 -13 14 -13 6 0 7 5
3 12 -5 8 -2 9 9 5 10 -3 17 -2 17 3 0 6 -4 10 -8 10 -5 0 -9 7 -9 15 0 11 4
12 14 3 11 -8 12 -7 7 6 -5 12 -2 15 12 9 12 -4 15 -3 10 6 -4 6 -2 19 5 27 6
8 9 17 6 21 -4 3 1 12 11 20 11 10 12 12 2 8 -10 -4 -10 -2 2 8 14 11 15 16 5
26 -9 10 -8 11 5 6 13 -5 16 -1 14 24 -2 26 0 28 13 18 9 -7 12 -8 8 -1 -3 6
1 20 9 30 9 10 12 13 8 5 -5 -10 -3 -12 5 -7 9 6 9 11 -1 24 -11 14 -10 15 6
9 14 -6 17 -4 12 9 -5 14 -4 15 8 5 12 -11 14 -8 11 19 -2 17 0 28 5 25 5 -3
12 7 16 22 4 15 11 31 16 34 5 3 10 21 10 40 0 19 5 40 11 47 8 10 7 16 -3 22
-7 4 -11 17 -8 28 4 14 -2 26 -17 38 -13 10 -22 21 -19 26 3 4 0 8 -6 8 -6 0
-9 4 -6 9 3 4 -5 8 -17 8 -40 1 -48 3 -43 12 3 5 -1 11 -9 15 -10 3 -15 -1
-16 -12 0 -14 -2 -14 -7 -2 -7 16 -82 22 -82 7 0 -5 -4 -5 -10 -2 -5 3 -10 1
-10 -4 0 -6 -7 -11 -15 -11 -9 0 -18 -7 -22 -15 -3 -9 -18 -22 -34 -30 -20
-11 -26 -20 -22 -32 4 -10 2 -14 -5 -9 -7 4 -10 -1 -7 -15 3 -16 0 -19 -13
-14 -9 3 -13 3 -9 -1 4 -4 2 -12 -3 -19 -5 -7 -11 -26 -13 -44 -2 -17 -8 -30
-13 -29 -5 2 -8 10 -7 18 2 9 0 10 -3 3 -3 -7 -6 -16 -6 -20 0 -5 -9 -14 -19
-21 -11 -7 -19 -18 -19 -23 0 -6 7 -3 16 5 22 22 31 20 11 -2 -10 -10 -14 -22
-10 -27 5 -4 -2 -2 -14 4 -21 11 -22 10 -13 -13 7 -20 6 -24 -5 -19 -8 3 -15
1 -15 -5 0 -6 6 -13 13 -15 7 -3 5 -6 -5 -6 -11 -1 -16 -8 -13 -21 2 -11 0
-18 -6 -15 -5 4 -9 1 -9 -5 0 -7 -7 -10 -17 -6 -17 6 -17 5 0 -8 17 -13 16
-14 -2 -19 -15 -4 -18 -10 -14 -28 l6 -24 -23 20 -23 20 19 -30 c16 -25 16
-28 2 -17 -15 12 -17 11 -13 -8 2 -12 -2 -23 -11 -27 -8 -3 -13 -12 -10 -20 3
-8 1 -11 -4 -8 -6 3 -10 2 -10 -4 0 -5 6 -12 13 -14 9 -4 9 -6 -1 -6 -8 -1
-10 -6 -6 -13 5 -9 2 -8 -9 1 -15 12 -17 12 -11 -3 5 -12 2 -15 -11 -10 -15 6
-16 4 -6 -14 6 -12 7 -23 2 -26 -5 -4 -12 0 -15 6 -4 7 -4 3 -2 -9 3 -15 -1
-23 -10 -23 -8 0 -14 -7 -14 -15 0 -8 -4 -15 -10 -15 -5 0 -10 -4 -10 -10 0
-5 8 -7 18 -5 9 3 2 -2 -16 -10 -28 -13 -32 -18 -22 -30 10 -12 9 -15 -4 -15
-9 0 -16 -7 -16 -15 0 -8 -6 -15 -12 -15 -8 0 -9 -3 -3 -8 17 -12 16 -32 -2
-25 -13 5 -15 2 -10 -11 4 -11 3 -15 -4 -10 -8 4 -9 -1 -4 -17 4 -15 3 -19 -3
-11 -6 9 -14 6 -31 -12 -12 -13 -21 -27 -20 -32 4 -21 -2 -35 -11 -29 -5 3
-10 -3 -10 -15 0 -12 -4 -18 -10 -15 -9 5 -12 -1 -9 -21 1 -8 -23 -24 -36 -24
-5 0 -3 5 5 10 11 7 11 10 2 10 -7 0 -10 5 -7 10 4 6 12 7 18 3 7 -4 6 0 -2
10 -12 15 -11 17 2 17 10 0 14 6 11 14 -3 7 2 16 10 19 13 5 14 12 6 33 -9 24
-9 25 5 14 14 -11 14 -10 6 14 -8 20 -7 26 3 26 7 0 20 8 27 18 13 15 12 16
-3 3 -23 -17 -23 -9 -1 32 9 18 16 36 15 40 -2 5 7 11 18 14 16 4 18 8 9 19
-9 12 -9 13 4 9 8 -4 18 -1 23 6 4 7 3 10 -3 6 -5 -3 -10 0 -10 7 0 8 6 12 13
9 6 -2 15 1 20 8 4 8 3 10 -4 5 -7 -4 -12 -2 -12 3 0 6 6 11 13 11 8 0 7 4 -3
10 -11 7 -11 10 -2 10 7 0 10 4 7 10 -4 6 1 7 12 3 16 -6 16 -5 4 10 -12 15
-12 17 3 11 14 -5 15 -2 7 18 -7 19 -6 25 4 25 8 0 11 -5 8 -11 -4 -6 2 -4 13
4 10 8 20 15 22 16 2 1 -4 4 -13 8 -9 3 -13 2 -10 -4 10 -16 -1 -11 -16 7 -8
9 -9 14 -3 10 17 -10 57 22 45 37 -11 14 22 50 35 38 3 -4 1 3 -5 16 -8 14 -8
22 -1 22 5 0 9 6 8 13 -2 6 3 11 11 9 12 -3 12 -1 0 14 -9 12 -9 15 -1 10 7
-4 12 -2 12 4 0 6 4 9 9 5 5 -3 12 -1 16 5 3 5 1 10 -6 10 -8 0 -7 5 2 17 8 9
9 14 2 10 -7 -5 -9 0 -6 13 3 11 10 20 15 20 5 0 6 5 3 10 -3 6 1 10 10 10 10
0 13 -5 9 -12 -4 -7 -3 -9 1 -5 13 12 15 38 2 30 -6 -4 -1 7 11 24 15 21 18
33 11 40 -8 8 -7 13 2 18 8 6 10 4 4 -5 -5 -9 -4 -11 3 -6 8 5 9 13 2 25 -5
10 -6 21 -3 25 11 10 12 37 2 30 -5 -3 -6 -10 -3 -16 4 -7 2 -8 -4 -4 -8 5 -9
13 -2 26 7 13 6 21 -5 30 -8 7 -12 17 -8 23 3 6 1 7 -5 3 -7 -4 -12 -2 -12 4
0 6 -4 8 -10 5 -5 -3 -10 -2 -10 4 0 6 -10 15 -21 22 -15 7 -19 8 -15 0 5 -7
1 -9 -8 -5 -9 3 -13 10 -10 15 7 13 -10 11 -23 -2 -8 -8 -15 -4 -27 12 -13 19
-16 20 -16 6 0 -9 -4 -17 -10 -17 -5 0 -6 7 -3 17 4 11 3 14 -5 9 -7 -4 -12
-15 -12 -24 0 -15 -2 -15 -10 -2 -5 8 -10 10 -10 5 0 -6 -9 -16 -21 -23 -15
-10 -19 -10 -14 -1 5 8 4 10 -3 5 -7 -4 -12 -14 -12 -21 0 -9 -6 -12 -17 -8
-10 4 -14 2 -9 -5 3 -6 -3 -16 -14 -22 -11 -6 -20 -20 -20 -32 0 -11 -8 -27
-17 -35 -17 -14 -17 -14 2 -9 18 5 18 4 -2 -10 -13 -9 -23 -23 -23 -31 0 -9
-5 -11 -12 -7 -9 5 -8 2 1 -9 12 -15 12 -17 -2 -11 -12 4 -18 -2 -23 -20 -3
-14 -11 -26 -16 -26 -6 0 -8 -11 -6 -25 3 -13 1 -22 -3 -19 -10 6 -33 -44 -30
-63 1 -7 -4 -10 -13 -7 -18 7 -31 -12 -15 -22 8 -5 9 -3 4 6 -6 9 -4 11 5 5
11 -7 9 -12 -8 -23 -12 -8 -22 -21 -22 -29 0 -8 -4 -11 -10 -8 -6 4 -7 -1 -3
-11 4 -10 0 -20 -10 -26 -9 -4 -14 -15 -11 -23 4 -8 1 -15 -7 -15 -7 0 -9 -3
-6 -7 4 -3 2 -13 -5 -20 -9 -11 -9 -16 1 -23 10 -6 9 -10 -5 -19 -15 -8 -15
-11 -4 -11 9 -1 5 -5 -8 -11 -13 -5 -20 -14 -16 -20 3 -6 0 -15 -7 -20 -12 -8
-12 -11 1 -19 9 -6 10 -10 3 -10 -7 0 -16 8 -22 18 -9 15 -10 15 -10 -5 -2
-72 -1 -67 -17 -47 -13 17 -13 17 -4 -9 9 -26 8 -27 -11 -16 -19 9 -20 9 -11
-7 8 -14 6 -22 -6 -32 -10 -7 -12 -11 -5 -8 8 5 8 0 0 -18 -7 -13 -16 -22 -22
-18 -5 3 -3 -3 5 -13 12 -15 12 -17 1 -10 -11 6 -13 4 -8 -8 3 -10 3 -17 -1
-17 -5 0 -17 -7 -28 -16 -10 -8 -13 -13 -6 -9 6 3 12 1 12 -5 0 -6 5 -8 12 -4
7 4 8 3 4 -5 -4 -6 -12 -8 -18 -5 -6 4 -8 -2 -4 -17 3 -13 3 -19 0 -12 -3 7
-12 9 -20 6 -12 -4 -12 -8 -2 -21 11 -13 11 -14 -1 -7 -11 6 -13 4 -8 -8 4
-12 2 -14 -10 -10 -12 5 -14 3 -8 -7 6 -10 4 -12 -10 -6 -13 5 -15 3 -8 -6 14
-19 10 -35 -12 -53 -11 -9 -14 -13 -6 -9 9 4 12 3 7 -4 -4 -6 -13 -9 -21 -5
-11 3 -15 -2 -15 -18 0 -19 -2 -21 -10 -9 -8 13 -10 12 -10 -3 0 -12 -4 -16
-12 -11 -10 6 -10 4 0 -8 10 -13 10 -17 -1 -21 -16 -6 -49 17 -39 28 4 5 1 5
-5 1 -8 -4 -28 7 -49 28 -21 20 -32 36 -26 36 6 0 19 -12 30 -27 15 -20 21
-23 27 -12 5 8 5 11 1 8 -9 -8 -79 62 -71 70 4 3 10 -1 15 -9 6 -8 10 -10 10
-4 0 6 -9 19 -19 28 -12 11 -17 25 -13 38 3 14 1 19 -6 14 -6 -3 -14 -1 -18 5
-4 8 -3 9 4 5 8 -5 12 1 12 18 0 14 -5 28 -11 31 -6 4 -8 13 -5 21 3 8 -1 14
-9 14 -8 0 -15 5 -15 11 0 5 4 8 9 4 5 -3 13 0 17 6 4 7 3 9 -3 6 -6 -4 -19 0
-29 8 -17 13 -17 14 -1 9 13 -5 16 -2 11 10 -3 9 -10 13 -15 10 -5 -3 -9 5
-10 18 0 22 -1 22 -9 3 -7 -17 -9 -17 -9 -3 -1 10 -12 25 -26 34 -14 9 -23 20
-20 24 3 5 0 12 -6 16 -8 4 -9 3 -5 -4 4 -7 3 -12 -3 -12 -5 0 -13 10 -16 21
-6 17 -9 19 -16 8 -7 -12 -9 -11 -10 1 -1 8 -1 19 0 23 1 5 -3 6 -9 2 -6 -3
-7 -11 -4 -17 5 -7 2 -8 -5 -4 -7 5 -10 14 -8 20 4 9 -13 12 -61 11 -37 0 -70
3 -74 9 -4 6 -12 5 -21 -2 -16 -14 -38 -12 -49 3 -5 6 -8 3 -8 -7 0 -9 -5 -20
-12 -24 -7 -4 -8 -3 -4 4 4 7 1 12 -9 12 -11 0 -15 -5 -11 -16 3 -8 2 -13 -3
-9 -5 3 -12 -1 -14 -7 -4 -10 -6 -10 -6 0 -1 6 -6 12 -12 12 -5 0 -8 -4 -4 -9
3 -5 0 -13 -6 -16 -5 -4 -8 -13 -5 -21 3 -8 0 -13 -7 -11 -7 1 -11 -6 -11 -16
2 -14 -1 -15 -11 -7 -10 9 -13 7 -10 -7 1 -10 -2 -24 -8 -31 -8 -10 -7 -16 1
-21 7 -4 10 -15 6 -24 -5 -13 -2 -16 10 -11 9 3 16 1 16 -5 0 -6 -5 -11 -12
-11 -6 0 -1 -8 10 -19 12 -10 22 -23 22 -29 0 -6 8 -13 18 -15 16 -4 16 -5 -1
-6 -10 0 -15 -6 -12 -11 4 -6 3 -10 -2 -8 -17 4 -79 -15 -128 -39 -58 -30
-142 -114 -169 -169 -10 -21 -22 -47 -27 -56 -5 -10 -9 -27 -9 -38 0 -32 -30
-25 -31 8 -1 15 -1 30 0 35 0 4 -4 7 -9 7 -6 0 -10 9 -10 20 0 11 -5 20 -12
20 -6 0 -9 3 -5 6 7 7 -3 21 -50 71 -18 19 -33 38 -33 42 -1 6 -76 55 -88 57
-4 0 -23 8 -42 16 -28 13 -99 27 -155 30 -56 4 -196 -38 -233 -70 -11 -9 -30
-25 -41 -34 -26 -22 -21 -34 35 -80 l44 -37 38 25 c50 35 74 43 141 50 99 9
195 -37 243 -115 13 -20 23 -39 23 -43 0 -3 3 -10 8 -14 4 -4 7 -18 7 -31 0
-18 -5 -23 -27 -23 -16 -1 -161 -2 -323 -3 l-294 -2 -6 -25 c-4 -14 -3 -37 1
-52 5 -17 4 -28 -2 -28 -6 0 -8 -4 -5 -8 3 -5 7 -21 10 -36 13 -72 41 -129 88
-180 10 -11 18 -24 18 -28 0 -5 4 -6 10 -3 6 3 10 2 10 -3 0 -8 104 -66 125
-68 6 -1 15 -3 20 -4 6 -2 15 -4 20 -5 6 -2 12 -4 15 -5 18 -7 147 -3 142 4
-3 5 3 6 13 3 9 -4 24 -2 31 4 8 6 14 8 14 4 0 -4 8 -1 17 6 15 12 16 12 8 -1
-7 -12 -6 -13 7 -3 8 7 18 10 21 6 4 -3 7 -1 7 5 0 6 16 19 36 28 19 9 54 36
78 59 42 43 106 150 106 178 0 15 18 33 25 25 2 -2 6 -15 8 -28 12 -64 128
-220 164 -220 6 0 13 -4 15 -8 6 -16 88 -52 88 -39 0 9 2 9 8 0 4 -6 20 -14
35 -17 14 -2 31 -7 37 -11 5 -3 10 0 10 7 0 8 3 9 8 3 8 -12 47 -14 57 -3 4 4
16 3 26 -2 12 -7 20 -7 24 0 13 21 43 -8 40 -40 -1 -16 2 -30 8 -30 7 0 7 -4
-1 -12 -19 -19 -14 -31 11 -25 18 5 20 4 7 -6 -16 -13 -15 -51 1 -42 5 4 9 3
10 -2 6 -57 4 -62 -11 -50 -8 6 -4 -1 9 -16 l24 -27 -24 -9 -24 -10 23 0 c17
-1 22 -6 20 -18 -2 -10 3 -24 12 -31 13 -12 13 -13 -4 -8 -16 6 -17 4 -6 -9 7
-8 9 -15 4 -16 -5 0 0 -4 11 -9 17 -7 17 -9 3 -9 -10 -1 -18 -5 -18 -10 0 -6
9 -8 20 -6 14 3 18 0 13 -8 -11 -18 -12 -37 -2 -37 6 0 7 -4 4 -10 -3 -5 -1
-10 4 -10 6 0 11 -5 11 -11 0 -5 -6 -7 -12 -4 -7 4 -4 -1 6 -9 11 -9 14 -16 7
-16 -7 0 -9 -5 -6 -11 4 -6 14 -8 22 -4 13 4 14 3 3 -10 -10 -12 -10 -15 0
-15 9 0 9 -4 -1 -17 -12 -14 -12 -16 0 -9 9 6 12 5 9 -5 -7 -19 10 -49 27 -49
9 0 15 -10 15 -26 0 -21 4 -25 18 -20 14 5 14 4 -2 -9 -11 -8 -14 -15 -8 -15
24 0 11 -16 -22 -28 -61 -22 -56 -96 7 -109 18 -4 36 -6 40 -5 5 1 6 -2 2 -8
-3 -5 0 -10 7 -10 9 0 9 -3 2 -8 -15 -10 -10 -62 7 -74 11 -8 10 -9 -3 -4 -12
3 -18 0 -18 -10 0 -9 5 -12 13 -8 8 5 8 2 -2 -9 -11 -14 -11 -17 0 -17 9 0 10
-3 4 -8 -12 -9 -13 -192 0 -211 5 -9 4 -12 -2 -8 -12 8 -10 -134 3 -154 4 -8
3 -10 -4 -5 -8 5 -12 -1 -12 -14 0 -14 4 -19 13 -14 9 6 9 4 1 -7 -6 -8 -10
-54 -9 -106 1 -58 -2 -90 -8 -86 -6 4 -7 1 -1 -8 13 -22 14 -122 1 -138 -9
-12 -9 -13 0 -8 9 6 11 -10 9 -63 -2 -39 1 -73 6 -76 4 -3 5 -11 1 -17 -4 -6
-7 -23 -7 -37 -1 -14 -5 -31 -10 -39 -6 -9 -5 -12 2 -7 7 4 9 -13 8 -54 -2
-33 1 -63 6 -66 5 -3 4 -12 -3 -20 -6 -8 -8 -14 -4 -14 4 0 2 -6 -4 -14 -8 -9
-8 -16 -2 -20 5 -4 9 -19 7 -34 -1 -15 2 -33 8 -41 8 -11 8 -13 -1 -8 -13 8
-11 -42 3 -65 6 -9 3 -9 -9 1 -16 13 -17 12 -7 -14 7 -19 7 -31 0 -40 -7 -9
-6 -16 5 -25 8 -7 12 -17 8 -24 -10 -14 -10 -156 -1 -156 4 0 5 -7 2 -15 -4
-8 -11 -12 -18 -8 -6 4 -4 -1 4 -12 8 -10 14 -21 14 -24 -1 -3 3 -5 10 -3 6 1
4 -3 -5 -10 -11 -9 -15 -26 -12 -57 2 -24 -2 -51 -9 -60 -10 -13 -10 -14 2 -3
21 18 26 15 26 -18 0 -20 -4 -29 -12 -26 -7 3 -10 -2 -7 -15 3 -10 10 -19 17
-19 6 0 4 -5 -4 -10 -11 -7 -11 -10 -2 -10 7 0 10 -5 7 -10 -4 -6 -11 -7 -17
-4 -7 4 -8 2 -4 -5 4 -6 11 -9 16 -6 7 4 8 -12 9 -138 1 -42 3 -47 23 -47 23
-1 23 -1 -2 -15 l-25 -15 28 4 c23 4 26 2 18 -8 -6 -7 -8 -16 -4 -19 3 -4 1
-7 -6 -7 -7 0 -11 7 -8 14 4 10 1 13 -9 9 -10 -4 -12 -9 -4 -18 5 -6 7 -15 3
-19 -4 -4 0 -4 8 -1 10 4 16 0 16 -9 0 -8 -3 -13 -7 -11 -4 2 -7 -2 -7 -10 0
-8 5 -11 10 -8 6 4 8 0 5 -9 -4 -8 -2 -21 3 -29 6 -10 3 -16 -9 -21 -14 -6
-14 -7 4 -7 11 -1 21 -8 21 -16 0 -12 -3 -12 -15 -2 -13 10 -14 9 -5 -8 10
-17 8 -20 -12 -20 -18 0 -21 3 -13 13 8 9 6 12 -6 12 -10 0 -14 5 -11 10 3 6
1 10 -5 10 -6 0 -8 4 -5 10 3 6 -1 7 -9 4 -11 -4 -16 0 -16 11 0 9 -4 13 -10
10 -5 -3 -10 -1 -10 5 0 6 -10 21 -21 33 -12 12 -19 17 -16 11 3 -6 0 -11 -7
-11 -8 0 -12 6 -9 13 3 8 -6 19 -21 25 -14 7 -23 16 -20 21 3 4 -2 11 -10 14
-9 3 -16 12 -16 19 0 7 -8 19 -17 26 -11 10 -14 10 -9 2 4 -7 3 -13 -3 -13 -5
0 -13 9 -16 20 -3 11 -11 20 -16 20 -6 0 -7 -5 -3 -12 4 -7 3 -8 -5 -4 -9 6
-9 11 1 24 10 12 10 14 1 8 -9 -5 -13 -1 -14 11 0 10 -3 13 -6 6 -3 -10 -7
-10 -18 0 -7 7 -11 15 -8 20 4 7 -2 8 -37 11 -8 1 -15 11 -14 22 0 11 -5 21
-12 21 -7 0 -10 -5 -7 -10 3 -6 1 -7 -4 -4 -6 4 -13 16 -16 28 -4 15 -2 19 9
15 11 -4 11 0 -2 19 -15 24 -15 25 2 26 11 0 14 3 7 6 -7 2 -13 17 -13 32 0
15 -4 31 -10 37 -5 5 -11 22 -12 36 -1 15 -7 24 -12 21 -5 -4 -7 1 -2 12 5 15
4 16 -9 5 -13 -11 -14 -10 -9 5 6 14 4 16 -6 10 -10 -6 -12 -4 -7 9 4 10 3 15
-4 11 -12 -8 -41 14 -34 26 3 4 -3 6 -14 4 -14 -2 -18 1 -15 10 5 11 -34 43
-43 37 -8 -6 -33 -1 -30 5 3 5 -1 14 -9 21 -9 8 -14 9 -14 2 0 -7 -5 -6 -14 2
-8 7 -12 16 -10 19 2 3 -3 6 -11 6 -8 0 -12 -5 -8 -10 3 -5 -6 -2 -20 7 -20
13 -26 14 -30 4 -4 -8 -8 -5 -12 9 -4 13 -13 19 -21 16 -8 -3 -19 8 -29 29 -8
18 -13 25 -11 16 4 -12 1 -15 -10 -11 -8 3 -13 11 -10 19 3 8 -2 11 -15 9 -11
-2 -17 0 -14 5 3 5 -4 12 -16 15 -17 6 -19 9 -8 17 10 7 8 8 -8 5 -12 -3 -22
-2 -21 2 2 20 -4 31 -18 31 -10 0 -14 6 -11 14 4 10 1 13 -8 10 -8 -3 -22 1
-31 10 -8 9 -20 14 -25 10 -5 -3 -9 -2 -8 3 4 21 -3 31 -22 36 -16 4 -20 11
-15 24 4 9 4 14 0 10 -4 -4 -19 3 -33 15 l-26 23 25 -29 25 -30 -31 25 c-17
13 -29 30 -26 37 3 8 -5 16 -17 19 -11 3 -21 9 -21 14 0 5 -7 5 -17 2 -11 -4
-14 -3 -9 5 4 7 -3 14 -18 18 -14 3 -28 15 -31 25 -6 17 -17 23 -37 20 -4 0
-3 10 2 24 7 19 6 23 -5 19 -7 -3 -23 4 -35 16 -12 12 -28 19 -35 16 -7 -2
-15 4 -18 15 -3 11 -15 23 -26 26 -11 3 -18 9 -15 14 3 5 0 9 -6 9 -6 0 -9 4
-6 8 2 4 -5 9 -16 9 -11 1 -27 10 -35 20 -8 10 -12 12 -8 6 4 -9 1 -11 -9 -7
-9 3 -13 10 -10 15 3 5 -2 9 -11 9 -9 0 -13 5 -10 10 4 6 3 10 -2 9 -4 -1 -16
-1 -27 0 -16 1 -17 3 -5 18 13 15 12 15 -7 5 -18 -10 -23 -8 -34 13 -7 14 -22
25 -32 25 -11 0 -17 4 -14 8 3 5 -9 9 -27 10 -17 0 -33 6 -35 11 -2 6 -10 11
-18 11 -8 0 -14 5 -14 10 0 6 -7 10 -16 10 -10 0 -14 6 -11 14 4 10 1 13 -9 9
-7 -3 -14 -10 -14 -16 0 -6 -3 -7 -6 -4 -4 4 -1 14 7 23 13 16 12 16 -10 4
-21 -11 -23 -10 -18 3 4 11 0 13 -14 10 -10 -3 -19 0 -19 6 0 6 -14 11 -31 11
-17 0 -28 4 -24 10 6 10 -15 14 -44 11 -7 -2 -11 2 -8 6 3 5 -3 15 -15 22 -11
7 -17 8 -14 2 4 -5 -2 -9 -14 -8 -12 1 -18 7 -16 14 7 16 -11 27 -20 12 -5 -8
-3 -9 6 -4 9 6 11 4 5 -5 -6 -10 -11 -10 -20 3 -7 10 -20 17 -29 17 -10 0 -14
5 -10 12 4 6 3 8 -4 4 -6 -3 -22 -1 -35 5 -18 8 -30 8 -47 -1 -13 -7 -20 -8
-16 -2 4 6 -2 10 -13 9 -12 -1 -17 -6 -13 -17 5 -13 3 -13 -11 -1 -14 11 -17
11 -17 0 0 -12 -2 -12 -9 0 -7 12 -12 11 -30 -1 -11 -8 -19 -17 -16 -20 3 -3
-5 -5 -17 -4 -13 1 -30 -3 -38 -9 -8 -6 -34 -17 -57 -25 -23 -7 -44 -19 -48
-28 -4 -12 -8 -12 -22 -1 -12 10 -14 10 -9 2 5 -9 0 -13 -14 -13 -11 0 -23 -7
-27 -16 -3 -8 -11 -13 -19 -10 -8 3 -11 -2 -9 -13 2 -13 -3 -17 -26 -15 -16 1
-32 -3 -36 -9 -3 -6 -1 -7 5 -3 7 4 12 2 12 -4 0 -6 -10 -10 -22 -8 -13 2 -22
-2 -21 -8 1 -6 -9 -10 -22 -8 -16 1 -25 -3 -25 -11 0 -8 -5 -17 -12 -21 -6 -4
-8 -3 -4 4 4 6 -1 10 -13 9 -11 0 -17 -5 -15 -9 3 -4 -2 -8 -11 -8 -10 0 -13
5 -9 13 4 7 3 9 -2 4 -5 -5 -10 -13 -10 -18 -1 -5 -2 -13 -3 -18 -1 -10 -20
-9 -38 2 -9 6 -11 3 -6 -9 5 -13 3 -15 -7 -9 -10 6 -12 4 -6 -10 7 -18 6 -18
-13 -1 -14 13 -21 14 -27 5 -5 -8 -3 -10 7 -4 8 5 11 4 6 -1 -12 -13 -30 -12
-46 4 -11 11 -16 10 -28 -5 -14 -17 -14 -17 -9 1 5 15 4 17 -7 8 -10 -9 -17
-8 -26 1 -10 9 -11 8 -5 -8 7 -18 6 -18 -9 -6 -11 9 -17 10 -17 2 0 -6 -13
-11 -28 -11 -15 0 -34 -6 -41 -13 -8 -6 -11 -7 -8 -1 3 6 0 11 -8 11 -8 0 -13
-3 -11 -6 2 -3 -3 -13 -12 -21 -14 -13 -15 -12 -10 2 8 19 -18 33 -28 16 -4
-7 -3 -8 4 -4 7 4 12 3 12 -2 0 -14 -47 -21 -59 -9 -6 6 -9 2 -8 -9 2 -13 -4
-18 -17 -16 -10 2 -15 -1 -11 -7 3 -7 0 -8 -9 -5 -9 3 -16 10 -16 16 0 5 -4 6
-10 3 -6 -3 -7 1 -4 9 3 9 10 16 16 16 5 0 7 -4 3 -9 -3 -5 -1 -12 4 -15 11
-7 9 13 -3 33 -6 10 -5 12 2 7 7 -4 12 -3 12 2 0 6 8 9 18 8 9 0 16 5 14 12
-1 8 2 11 7 7 14 -8 61 5 61 17 0 5 -5 6 -12 2 -7 -4 -8 -3 -4 5 6 9 11 9 22
0 12 -10 13 -9 9 4 -4 8 -1 18 6 23 8 4 10 3 5 -4 -4 -7 -2 -12 3 -12 6 0 11
5 11 10 0 6 7 10 15 10 8 0 15 6 15 13 0 8 4 7 10 -3 8 -12 10 -10 10 10 0 18
3 21 9 11 7 -11 11 -9 20 8 7 12 16 19 22 16 5 -4 9 -2 9 4 0 5 8 8 19 6 14
-2 18 1 14 15 -6 21 12 36 23 19 5 -8 3 -9 -6 -4 -9 5 -11 4 -6 -4 11 -16 26
-3 19 16 -5 12 -3 14 8 8 12 -8 12 -6 0 8 -12 15 -12 17 4 11 13 -5 16 -4 11
4 -4 7 -2 13 3 13 6 1 16 3 21 4 6 1 15 3 21 4 8 1 7 7 -2 18 -13 15 -12 15
10 4 15 -8 21 -9 17 -2 -4 6 -1 11 7 11 8 0 14 8 13 18 0 9 5 16 12 14 8 -1
11 2 7 8 -4 6 1 23 11 38 10 15 18 29 17 33 -1 3 11 4 26 3 20 -1 27 3 28 18
2 20 1 20 -13 2 -14 -18 -14 -17 -4 4 10 20 14 21 28 10 9 -7 13 -8 9 -2 -3 6
1 20 9 30 9 10 12 13 8 5 -5 -10 -3 -12 5 -7 9 6 9 11 1 21 -8 10 -8 15 1 21
8 4 9 3 5 -4 -4 -7 -2 -12 3 -12 6 0 11 10 11 21 0 16 5 20 19 16 14 -3 18 -1
14 9 -3 8 -10 11 -16 7 -6 -3 -7 -1 -3 5 3 6 15 9 26 7 13 -2 17 1 13 11 -3 8
4 18 18 23 13 5 18 10 12 10 -7 1 -13 6 -13 12 0 5 5 7 10 4 6 -3 10 1 10 10
0 9 5 13 10 10 14 -8 13 8 -1 22 -9 9 -6 11 12 7 24 -5 24 -5 4 11 -20 17 -20
17 2 11 12 -4 24 -2 29 5 4 8 3 9 -4 5 -7 -4 -12 -2 -12 3 0 10 14 15 33 12 5
-1 6 3 2 9 -3 6 -11 7 -17 4 -7 -4 -8 -2 -4 5 4 7 17 9 29 6 15 -4 18 -3 9 3
-10 7 -10 11 3 22 11 9 12 16 5 25 -8 10 -8 15 1 21 8 5 10 3 4 -7 -6 -10 -5
-11 4 -3 7 6 13 21 14 33 1 13 6 20 15 16 8 -3 10 0 5 8 -11 17 -13 38 -3 32
4 -3 10 2 13 9 3 8 1 17 -6 20 -7 4 -2 4 11 2 19 -4 21 -2 11 10 -10 12 -9 17
1 27 10 10 11 9 5 -3 -5 -8 -4 -11 0 -7 11 9 17 34 17 64 0 13 5 20 10 17 6
-4 5 3 -1 15 -10 18 -9 20 6 14 16 -6 16 -5 4 10 -11 14 -11 18 3 23 12 5 13
10 5 26 -7 13 -7 18 -1 14 6 -3 13 -2 17 4 3 5 1 10 -4 10 -6 0 -11 5 -11 11
0 6 6 9 14 6 12 -5 12 0 5 26 -11 39 -11 40 1 32 5 -3 7 0 4 8 -3 8 0 18 7 23
7 4 10 3 5 -4 -3 -6 -3 -13 2 -16 13 -8 11 28 -2 37 -7 6 -4 7 6 3 10 -3 20
-1 23 3 3 5 14 7 25 4 11 -3 17 -10 13 -17 -4 -6 1 -4 11 3 20 17 85 21 104 7
9 -7 12 -5 10 5 -2 8 3 13 10 11 6 -1 12 2 12 8 0 6 5 9 11 8 6 -2 14 3 17 11
3 10 0 11 -9 5 -11 -6 -12 -5 -2 8 7 8 9 18 5 23 -4 4 3 2 15 -4 20 -10 22 -9
16 5 -5 13 -3 15 8 9 11 -7 12 -6 2 7 -7 8 -9 19 -5 23 4 5 2 5 -4 2 -6 -3
-11 0 -11 7 0 8 6 12 12 10 6 -3 12 2 12 10 0 8 -5 12 -11 9 -6 -4 -5 1 3 10
11 14 11 17 0 17 -10 0 -11 2 -2 8 6 4 13 36 14 72 2 36 5 70 8 75 10 18 9 35
-1 35 -6 0 -8 -7 -5 -15 6 -15 -6 -29 -16 -18 -3 3 2 22 11 42 20 43 22 117 3
113 -7 -1 -9 2 -5 9 12 20 13 63 3 75 -6 8 -6 14 0 18 5 3 7 15 4 26 -3 11
-10 17 -17 13 -8 -5 -8 -3 0 8 12 16 12 29 1 47 -5 6 -4 12 0 12 5 0 9 11 9
25 0 14 -5 25 -12 25 -8 0 -11 13 -10 34 2 22 -2 37 -10 40 -8 3 -14 11 -14
18 0 9 3 8 10 -2 6 -9 10 -10 10 -3 0 7 -8 17 -17 22 -17 10 -17 10 0 11 9 0
17 4 17 10 0 5 -7 6 -17 3 -10 -4 -14 -2 -9 5 3 6 1 14 -5 17 -5 4 -8 13 -5
21 5 12 -8 27 -26 30 -5 1 -11 2 -15 3 -5 1 -1 6 7 11 13 8 11 11 -7 16 -13 4
-20 10 -17 15 3 5 0 9 -5 9 -6 0 -11 -5 -11 -12 0 -6 -7 -3 -15 8 -11 14 -14
15 -15 4 0 -13 -2 -13 -9 0 -6 8 -7 18 -4 24 4 5 -1 7 -10 3 -10 -3 -17 -2
-17 3 0 6 5 10 11 10 6 0 8 7 5 16 -3 8 -2 12 4 9 9 -5 15 23 11 48 -2 13 11
8 26 -10 11 -14 11 -11 -1 9 -13 23 -13 28 -1 38 8 7 12 17 8 24 -14 22 -11
38 8 43 26 7 24 23 -2 18 -15 -3 -18 -1 -12 8 11 14 11 27 -1 46 -6 9 -5 12 1
8 21 -13 8 26 -13 40 -14 9 -21 20 -17 30 4 10 2 14 -4 10 -5 -3 -9 3 -8 16 3
38 -5 50 -24 35 -14 -11 -14 -11 -4 3 7 9 10 19 6 22 -3 4 1 9 9 12 9 4 14 17
13 36 -1 23 4 33 19 39 18 8 18 9 3 9 -17 1 -17 2 -2 17 12 12 13 19 4 30 -9
11 -8 14 2 14 11 0 11 2 -1 10 -13 9 -13 10 0 10 13 0 13 1 0 10 -8 5 -10 10
-4 10 6 0 11 7 11 15 0 8 -5 15 -10 15 -5 0 -4 7 3 15 10 12 10 18 0 30 -9 11
-10 15 -1 15 8 0 7 5 -3 15 -8 9 -12 23 -9 32 4 10 2 14 -4 10 -6 -4 -10 6
-11 25 0 17 -7 35 -14 39 -12 8 -4 13 15 10 4 -1 3 8 -3 19 -8 15 -8 20 2 20
8 1 5 7 -6 15 -17 13 -18 15 -3 15 22 0 22 9 0 27 -13 11 -14 13 -3 10 11 -3
15 4 14 27 0 41 6 57 19 49 6 -4 8 0 4 10 -3 9 -2 19 4 22 5 4 6 11 3 17 -5 8
-1 9 11 4 15 -5 16 -4 6 8 -10 12 -8 16 8 21 12 3 21 11 21 16 0 5 6 9 13 9 6
0 35 22 63 49 50 47 131 108 147 109 4 1 35 18 69 38 86 53 126 49 278 -23
102 -49 133 -59 205 -68 41 -5 166 -6 185 -2 77 19 110 31 110 38 0 5 7 9 16
9 8 0 12 5 9 10 -3 6 -1 10 5 10 6 0 8 5 5 10 -3 6 -1 10 5 10 7 0 10 6 7 14
-3 8 -1 17 6 20 9 3 8 5 -1 5 -7 1 -10 6 -7 11 3 6 1 10 -5 10 -6 0 -8 5 -5
11 4 5 -1 19 -11 30 -9 10 -15 19 -12 19 10 0 -46 55 -73 72 -39 25 -141 55
-248 73 -52 9 -100 20 -105 24 -11 10 -106 36 -165 46 -19 3 -100 19 -180 35
-124 24 -242 44 -326 56 -11 1 -20 3 -20 4 0 1 -13 3 -30 5 -16 3 -41 6 -55 9
-14 3 -57 10 -97 17 -50 8 -70 15 -67 24 3 7 -10 25 -28 40 -18 15 -27 24 -20
20 11 -6 12 -3 3 14 -7 11 -21 21 -31 21 -11 0 -20 7 -20 15 0 8 -7 15 -16 15
-8 0 -13 4 -10 9 3 5 -2 15 -11 22 -12 10 -14 10 -9 2 4 -7 2 -13 -3 -13 -6 0
-11 5 -11 11 0 5 -4 7 -10 4 -5 -3 -10 1 -10 9 0 9 -5 16 -11 16 -5 0 -8 -4
-5 -9 4 -5 -2 -8 -11 -6 -10 2 -21 4 -24 4 -12 2 -44 36 -47 51 -2 8 -7 17
-10 20 -4 3 -9 14 -10 25 -2 11 -13 38 -23 59 -10 22 -19 44 -19 49 0 5 -10
23 -22 40 -12 17 -17 28 -11 24 8 -5 8 0 0 18 -7 14 -15 25 -19 25 -5 0 -8 9
-8 20 0 11 -5 20 -11 20 -5 0 -8 4 -4 9 3 5 -2 17 -11 25 -8 9 -13 16 -10 16
8 0 -34 79 -45 86 -5 3 -7 10 -4 15 4 5 1 9 -4 9 -6 0 -11 5 -11 11 0 30 -180
323 -236 386 -16 17 -41 44 -55 60 -61 67 -199 183 -218 183 -5 0 -11 4 -13 8
-7 18 -139 89 -268 145 -60 26 -194 67 -225 70 -17 1 -32 5 -35 8 -3 4 -25 10
-50 13 -25 4 -61 9 -80 12 -20 3 -65 7 -100 9 -36 2 -67 4 -70 5 -3 1 -9 1
-15 0 -5 -1 -32 -4 -60 -5 -85 -6 -179 -15 -210 -21 -16 -3 -48 -7 -70 -9 -22
-2 -41 -4 -42 -5 -2 -2 -16 -4 -33 -5 -16 -1 -31 -3 -32 -5 -3 -2 -22 -5 -83
-14 -94 -14 -108 -17 -116 -22 -5 -3 -9 1 -9 8 0 9 -3 9 -8 2 -4 -6 -38 -17
-77 -24 -38 -7 -80 -19 -92 -27 -14 -10 -23 -11 -28 -3 -3 6 -10 8 -14 6 -4
-3 -13 -1 -21 4 -8 5 -21 5 -31 -1 -11 -6 -20 -5 -24 1 -8 14 -124 3 -143 -13
-8 -6 -16 -10 -16 -8 -2 9 -86 -21 -86 -31 0 -6 -3 -8 -7 -5 -7 7 -67 -34 -95
-66 -10 -11 -23 -32 -30 -47 -7 -16 -19 -28 -28 -27 -14 0 -117 -47 -164 -76
-183 -112 -269 -175 -380 -279 -28 -26 -54 -48 -58 -48 -5 0 -8 -4 -8 -10 0
-5 -17 -27 -37 -48 -45 -45 -62 -65 -128 -152 -28 -36 -54 -68 -60 -72 -7 -5
-7 -8 0 -8 6 0 6 -3 -1 -8 -13 -9 -84 -119 -84 -131 0 -4 -8 -19 -19 -32 -10
-13 -20 -28 -21 -34 -1 -5 -7 -21 -13 -35 -6 -14 -10 -28 -9 -32 1 -5 -2 -8
-6 -8 -4 0 -14 -20 -21 -45 -10 -34 -18 -44 -30 -41 -9 2 -31 8 -49 11 -31 6
-32 8 -15 22 10 8 13 12 8 9 -6 -2 -17 -1 -25 5 -12 7 -9 9 10 9 19 0 22 2 10
9 -8 6 -19 7 -25 5 -5 -3 -2 1 8 9 16 13 16 15 2 21 -9 3 -15 11 -13 18 2 7
-2 14 -7 16 -6 1 -10 -2 -10 -7 0 -5 -4 -13 -9 -18 -5 -5 -6 -3 -2 5 4 6 3 12
-2 12 -13 0 -3 41 16 62 8 10 20 15 26 11 7 -4 7 -1 -1 7 -9 10 -8 16 3 27 8
8 12 19 9 24 -4 5 -2 9 3 9 5 0 9 6 9 13 2 26 15 91 24 115 5 13 7 28 3 33 -3
5 0 9 6 9 6 0 9 4 5 9 -3 5 -1 12 5 16 6 4 8 11 5 16 -4 5 -2 9 3 9 6 0 15 14
21 30 5 17 15 30 21 30 6 0 9 4 6 9 -3 5 1 14 9 21 8 7 15 16 15 21 0 5 9 20
21 33 12 13 20 27 19 31 -1 3 10 17 25 31 14 13 23 24 19 24 -4 0 3 11 16 25
13 14 19 25 14 25 -5 0 -2 5 6 10 8 5 15 14 15 20 0 6 7 15 15 20 8 5 12 10 8
10 -4 0 1 19 11 41 11 23 18 49 16 58 -1 9 3 20 9 24 8 6 8 10 0 13 -7 3 -10
14 -7 24 3 10 -4 32 -16 49 -12 16 -21 34 -21 41 0 6 -4 8 -10 5 -5 -3 -10 1
-10 10 0 9 -18 34 -40 56 -22 22 -40 44 -40 48 0 4 -13 15 -30 24 -16 10 -35
24 -43 31 -20 21 -94 56 -101 49 -3 -4 -6 0 -6 7 0 7 -3 11 -6 7 -4 -3 -19 0
-34 8 -15 8 -30 11 -34 8 -3 -4 -6 -1 -6 5 0 7 -12 10 -30 8 -16 -2 -30 0 -30
5 0 4 -8 8 -17 8 -24 1 -72 8 -108 16 -16 3 -60 8 -96 9 -36 2 -71 6 -78 10
-6 4 -11 3 -11 -1z m414 -158 c-8 -19 -11 -35 -7 -35 5 0 3 -4 -3 -8 -10 -7
-47 -96 -44 -108 1 -4 -2 -10 -7 -13 -13 -9 -37 -64 -34 -78 1 -7 -3 -13 -9
-13 -6 0 -8 -6 -4 -12 5 -10 3 -10 -7 0 -9 8 -10 15 -4 20 6 4 11 16 12 27 2
21 10 60 13 60 1 0 3 8 5 17 2 9 10 31 19 49 9 17 13 35 10 40 -3 5 -1 9 5 9
10 0 27 38 23 53 -1 4 5 7 14 7 8 0 12 5 9 10 -3 6 1 10 9 10 13 0 13 -4 0
-35z m-760 -17 c-3 -4 -1 -8 4 -8 4 0 9 -43 10 -95 1 -53 4 -100 7 -105 3 -5
1 -11 -5 -15 -6 -4 -7 -12 -3 -18 10 -16 11 -117 1 -123 -5 -3 -6 -10 -3 -15
4 -5 2 -9 -4 -9 -17 0 -35 76 -20 85 5 3 1 18 -9 33 -16 25 -16 26 2 19 17 -7
17 -6 5 9 -8 10 -14 27 -14 38 -1 12 -4 26 -8 32 -3 6 -8 25 -9 43 -1 17 -6
31 -10 31 -4 0 -8 7 -8 15 0 15 -19 55 -31 65 -3 3 -8 13 -12 22 -10 27 49 40
85 20 15 -9 25 -19 22 -24z m446 -38 c0 -5 -2 -10 -4 -10 -3 0 -8 5 -11 10 -3
6 -1 10 4 10 6 0 11 -4 11 -10z m562 -92 c-5 -7 -20 -47 -33 -88 -13 -41 -26
-77 -29 -80 -6 -6 -12 -30 -13 -47 0 -7 -4 -13 -8 -13 -4 0 -10 -18 -14 -40
-4 -22 -11 -38 -16 -34 -5 3 -9 -6 -9 -20 0 -14 -3 -26 -7 -26 -5 0 -9 -12
-10 -26 0 -15 -6 -29 -11 -33 -6 -3 -12 -19 -15 -36 -2 -16 -14 -47 -26 -68
-12 -21 -19 -42 -16 -47 3 -5 -2 -15 -11 -24 -8 -9 -12 -20 -9 -26 3 -5 1 -10
-4 -10 -15 0 -5 148 11 168 11 13 11 14 -1 7 -11 -6 -13 -4 -7 11 4 10 8 24 9
29 1 6 4 12 7 15 8 7 35 93 33 108 0 6 4 12 9 12 6 0 8 7 4 15 -3 8 2 19 12
24 11 7 12 10 4 11 -10 0 -9 4 2 16 9 8 14 20 11 25 -4 5 -1 9 5 9 6 0 8 5 4
12 -4 6 1 17 11 25 11 7 15 13 11 13 -5 0 -3 7 4 15 6 8 9 19 5 25 -3 5 1 10
10 10 9 0 13 5 10 10 -3 6 1 13 9 16 8 3 18 14 21 25 4 11 10 17 14 15 4 -3
13 -1 21 5 21 12 24 11 12 -3z m-1107 -408 c-3 -5 0 -10 7 -11 10 0 10 -2 1
-6 -7 -2 -13 -9 -13 -14 0 -6 4 -7 10 -4 6 4 8 -6 6 -25 -2 -17 1 -33 6 -36 5
-3 7 -12 4 -20 -3 -8 -2 -14 2 -14 4 0 8 -9 9 -20 1 -11 -2 -20 -6 -20 -7 0
-11 15 -12 53 0 9 -4 15 -9 12 -4 -3 -7 2 -6 11 2 10 -3 33 -10 53 -12 37 -10
51 7 51 6 0 7 -4 4 -10z m870 -580 c3 -5 1 -10 -4 -10 -6 0 -11 5 -11 10 0 6
2 10 4 10 3 0 8 -4 11 -10z m-874 -153 c-10 -9 -11 -8 -5 6 3 10 9 15 12 12 3
-3 0 -11 -7 -18z m-26 -7 c-3 -5 2 -10 12 -11 10 0 13 -3 6 -5 -7 -3 -9 -12
-6 -20 3 -9 0 -12 -8 -9 -10 4 -14 -3 -14 -20 0 -18 4 -24 15 -20 9 3 7 -1 -4
-10 -18 -14 -13 -19 14 -17 3 0 7 -9 7 -21 2 -16 0 -18 -6 -8 -5 8 -20 15 -33
17 -12 1 -44 13 -69 26 -41 21 -45 26 -34 41 6 9 15 14 18 10 4 -3 7 -1 7 6 0
7 4 10 9 7 5 -3 12 1 15 10 3 8 10 12 16 9 5 -3 10 -1 10 6 0 8 4 8 16 -1 8
-8 14 -9 13 -4 -3 16 1 24 12 24 5 0 7 -4 4 -10z m5185 -74 c0 -3 -4 -8 -10
-11 -5 -3 -10 -1 -10 4 0 6 5 11 10 11 6 0 10 -2 10 -4z m44 -77 c-3 -5 -10
-7 -15 -3 -5 3 -7 10 -3 15 3 5 10 7 15 3 5 -3 7 -10 3 -15z m3484 -894 c-3
-3 -9 2 -12 12 -6 14 -5 15 5 6 7 -7 10 -15 7 -18z m-138 -41 c0 -8 -19 -13
-24 -6 -3 5 1 9 9 9 8 0 15 -2 15 -3z m-130 -394 c0 -5 -5 -10 -11 -10 -5 0
-7 5 -4 10 3 6 8 10 11 10 2 0 4 -4 4 -10z m-75 -20 c3 -6 -1 -7 -9 -4 -18 7
-21 14 -7 14 6 0 13 -4 16 -10z m-1048 -181 c3 -11 9 -19 14 -19 5 0 9 -5 9
-11 0 -5 -6 -7 -12 -3 -9 5 -9 2 1 -9 7 -9 10 -17 5 -17 -5 0 0 -7 10 -15 11
-8 15 -15 9 -15 -6 0 -9 -9 -6 -21 4 -16 8 -17 14 -7 7 10 9 9 9 -4 0 -10 -8
-19 -17 -19 -16 -1 -16 -2 0 -6 10 -3 16 -11 14 -18 -3 -7 -1 -17 5 -23 19
-19 -7 -22 -200 -25 l-184 -2 6 28 c24 119 132 205 258 205 51 0 61 -3 65 -19z
m1400 -88 c0 -11 -5 -17 -9 -15 -4 3 -8 -4 -8 -15 0 -12 -5 -21 -11 -21 -5 0
-7 6 -4 13 4 6 1 5 -7 -4 -7 -8 -21 -18 -30 -22 -14 -5 -16 -2 -8 16 4 12 14
21 21 19 10 -2 10 0 -1 12 -7 9 -10 17 -6 17 3 1 10 2 15 3 5 0 13 4 17 9 14
14 33 7 31 -12z m893 -17 c0 -8 -19 -13 -24 -6 -3 5 1 9 9 9 8 0 15 -2 15 -3z
m-2943 -250 c2 -7 -4 -19 -13 -28 -9 -9 -14 -20 -11 -23 8 -7 -95 -93 -105
-87 -5 3 -8 0 -8 -6 0 -6 -4 -9 -9 -5 -5 3 -12 1 -16 -4 -3 -5 -14 -8 -25 -6
-11 2 -20 1 -20 -3 0 -4 -13 -7 -30 -7 -16 -1 -30 3 -30 8 0 5 -6 4 -13 -2 -8
-6 -17 -8 -21 -4 -3 4 -14 8 -24 10 -36 7 -40 9 -56 22 -9 7 -16 11 -16 7 0
-3 -11 4 -25 16 -14 12 -25 28 -25 35 0 8 -4 12 -9 9 -5 -3 -11 3 -14 14 -3
11 -6 24 -7 28 -1 4 -6 15 -11 25 -9 16 4 17 237 15 173 -2 248 -6 251 -14z
m699 -9 c-2 -14 1 -22 7 -18 6 4 7 1 2 -7 -12 -19 -14 -70 -3 -70 5 0 4 -8 -1
-19 -6 -10 -8 -20 -6 -23 5 -5 -3 -6 -45 -10 -11 -1 -20 -5 -20 -8 0 -8 -88
-6 -96 3 -4 4 -17 7 -29 7 -50 0 -140 78 -165 144 l-10 26 184 0 184 0 -2 -25z
m-1729 -404 c0 -11 -5 -18 -9 -15 -4 3 -5 11 -1 19 7 21 12 19 10 -4z m-6
-104 c-10 -9 -11 -8 -5 6 3 10 9 15 12 12 3 -3 0 -11 -7 -18z m9 -27 c0 -5 -5
-10 -11 -10 -5 0 -7 5 -4 10 3 6 8 10 11 10 2 0 4 -4 4 -10z m1883 -347 c-3
-7 -6 -13 -8 -13 -2 0 -5 6 -8 13 -3 8 1 14 8 14 7 0 11 -6 8 -14z m-4463
-1498 c0 -2 -6 -5 -13 -8 -8 -3 -14 1 -14 8 0 7 6 11 14 8 7 -3 13 -6 13 -8z
m5485 -75 c3 -5 -1 -10 -10 -10 -9 0 -13 5 -10 10 3 6 8 10 10 10 2 0 7 -4 10
-10z m-6122 -155 c7 -3 13 -16 12 -28 l-2 -22 -280 -3 -279 -2 0 29 0 29 267
1 c147 0 274 -2 282 -4z m401 -210 c-4 -8 -11 -12 -16 -9 -6 4 -5 10 3 15 19
12 19 11 13 -6z m4307 -1682 c13 -16 12 -17 -3 -4 -10 7 -18 15 -18 17 0 8 8
3 21 -13z m143 -95 c-3 -4 -1 -8 4 -8 6 0 12 -7 16 -15 8 -21 3 -19 -22 8 -17
18 -19 24 -8 24 8 0 13 -4 10 -9z m-5834 -1078 c0 -5 -5 -10 -11 -10 -5 0 -7
5 -4 10 3 6 8 10 11 10 2 0 4 -4 4 -10z m-15 -100 c3 -5 1 -10 -4 -10 -6 0
-11 5 -11 10 0 6 2 10 4 10 3 0 8 -4 11 -10z"/>
<path d="M1130 9399 c0 -5 5 -7 10 -4 6 3 10 8 10 11 0 2 -4 4 -10 4 -5 0 -10
-5 -10 -11z"/>
<path d="M916 9735 c-9 -26 -7 -32 5 -12 6 10 9 21 6 23 -2 3 -7 -2 -11 -11z"/>
<path d="M7179 9218 c-10 -4 -19 -5 -19 -2 0 2 -9 -3 -19 -13 -57 -53 -39
-132 35 -158 26 -9 45 -10 56 -4 10 5 18 6 18 1 0 -9 53 -8 69 3 6 3 11 2 11
-3 0 -6 14 -7 34 -2 19 4 39 4 46 0 6 -4 24 -5 38 -3 34 5 40 5 75 0 15 -2 27
0 27 5 0 5 6 6 12 2 18 -11 48 -12 48 -2 0 5 6 6 13 1 15 -9 65 -11 92 -2 11
3 29 3 40 -1 11 -4 28 -3 38 2 10 5 17 5 17 0 0 -5 18 -6 40 -2 24 4 40 3 40
-2 0 -19 65 32 76 59 15 38 0 88 -31 109 -22 14 -71 17 -381 18 -195 0 -364
-2 -375 -6z"/>
<path d="M9570 7921 c0 -6 4 -13 10 -16 6 -3 7 1 4 9 -7 18 -14 21 -14 7z"/>
<path d="M10275 7490 c-3 -5 -1 -10 4 -10 6 0 11 5 11 10 0 6 -2 10 -4 10 -3
0 -8 -4 -11 -10z"/>
<path d="M2115 7121 c-3 -5 -2 -12 3 -15 5 -3 9 1 9 9 0 17 -3 19 -12 6z"/>
<path d="M9907 7089 c7 -7 15 -10 18 -7 3 3 -2 9 -12 12 -14 6 -15 5 -6 -5z"/>
<path d="M2115 7080 c3 -5 8 -10 11 -10 2 0 4 5 4 10 0 6 -5 10 -11 10 -5 0
-7 -4 -4 -10z"/>
<path d="M10274 6898 l-19 -23 25 20 c14 11 27 21 29 22 2 2 0 3 -6 3 -5 0
-18 -10 -29 -22z"/>
<path d="M9716 6762 c-3 -5 1 -9 9 -9 8 0 12 4 9 9 -3 4 -7 8 -9 8 -2 0 -6 -4
-9 -8z"/>
<path d="M10225 6720 c-3 -6 1 -7 9 -4 18 7 21 14 7 14 -6 0 -13 -4 -16 -10z"/>
<path d="M2194 6709 c-4 -7 -3 -9 4 -5 5 3 13 0 15 -6 4 -9 6 -10 6 -1 1 17
-16 25 -25 12z"/>
<path d="M6506 6687 c3 -10 9 -15 12 -12 3 3 0 11 -7 18 -10 9 -11 8 -5 -6z"/>
<path d="M2279 6617 c6 -8 7 -18 3 -22 -4 -5 -1 -5 6 -1 10 6 10 11 1 22 -6 8
-14 14 -16 14 -3 0 0 -6 6 -13z"/>
<path d="M9985 6449 c-4 -6 -5 -12 -2 -15 2 -3 7 2 10 11 7 17 1 20 -8 4z"/>
<path d="M2245 6440 c3 -5 8 -10 11 -10 2 0 4 5 4 10 0 6 -5 10 -11 10 -5 0
-7 -4 -4 -10z"/>
<path d="M9953 6375 c0 -8 4 -12 9 -9 4 3 8 9 8 15 0 5 -4 9 -8 9 -5 0 -9 -7
-9 -15z"/>
<path d="M2253 6365 c0 -8 4 -12 9 -9 5 3 6 10 3 15 -9 13 -12 11 -12 -6z"/>
<path d="M10365 6329 c-11 -16 -1 -19 13 -3 7 8 8 14 3 14 -5 0 -13 -5 -16
-11z"/>
<path d="M2511 5884 c0 -11 3 -14 6 -6 3 7 2 16 -1 19 -3 4 -6 -2 -5 -13z"/>
<path d="M2445 5591 c-3 -5 -2 -12 3 -15 5 -3 9 1 9 9 0 17 -3 19 -12 6z"/>
<path d="M6395 5469 c-4 -6 -4 -13 -1 -16 3 -4 6 -1 6 6 0 7 5 9 12 5 7 -4 8
-3 4 4 -9 15 -13 15 -21 1z"/>
<path d="M5900 4580 c-6 -11 -8 -20 -6 -20 3 0 10 9 16 20 6 11 8 20 6 20 -3
0 -10 -9 -16 -20z"/>
<path d="M7067 4289 c7 -7 15 -10 18 -7 3 3 -2 9 -12 12 -14 6 -15 5 -6 -5z"/>
<path d="M9545 4041 c-3 -5 -2 -12 3 -15 5 -3 9 1 9 9 0 17 -3 19 -12 6z"/>
<path d="M3590 3495 c-11 -13 -10 -14 4 -9 9 3 16 10 16 15 0 13 -6 11 -20 -6z"/>
<path d="M3140 3080 c-9 -6 -10 -10 -3 -10 6 0 15 5 18 10 8 12 4 12 -15 0z"/>
<path d="M7890 2096 c0 -2 8 -10 18 -17 15 -13 16 -12 3 4 -13 16 -21 21 -21
13z"/>
<path d="M8790 1476 c0 -2 7 -7 16 -10 8 -3 12 -2 9 4 -6 10 -25 14 -25 6z"/>
<path d="M7094 186 c1 -8 5 -18 8 -22 4 -3 5 1 4 10 -1 8 -5 18 -8 22 -4 3 -5
-1 -4 -10z"/>
</g>
</svg>
